<?xml version="1.0" encoding="UTF-8" standalone="no"?>
<!-- Created with Inkscape (http://www.inkscape.org/) -->

<svg
   xmlns:dc="http://purl.org/dc/elements/1.1/"
   xmlns:cc="http://creativecommons.org/ns#"
   xmlns:rdf="http://www.w3.org/1999/02/22-rdf-syntax-ns#"
   xmlns:svg="http://www.w3.org/2000/svg"
   xmlns="http://www.w3.org/2000/svg"
   xmlns:sodipodi="http://sodipodi.sourceforge.net/DTD/sodipodi-0.dtd"
   xmlns:inkscape="http://www.inkscape.org/namespaces/inkscape"
   width="74.699997"
   height="95.099998"
   id="svg2"
   version="1.1"
   inkscape:version="0.47 r22583"
   sodipodi:docname="绘图-2.svg">
  <defs
     id="defs4" />
  <sodipodi:namedview
     id="base"
     pagecolor="#ffffff"
     bordercolor="#666666"
     borderopacity="1.0"
     inkscape:pageopacity="0.0"
     inkscape:pageshadow="2"
     inkscape:zoom="3.959798"
     inkscape:cx="-92.010929"
     inkscape:cy="45.845148"
     inkscape:document-units="px"
     inkscape:current-layer="svg2"
     showgrid="false"
     inkscape:window-width="1440"
     inkscape:window-height="851"
     inkscape:window-x="0"
     inkscape:window-y="25"
     inkscape:window-maximized="1" />
  <metadata
     id="metadata7">
    <rdf:RDF>
      <cc:Work
         rdf:about="">
        <dc:format>image/svg+xml</dc:format>
        <dc:type
           rdf:resource="http://purl.org/dc/dcmitype/StillImage" />
        <dc:title></dc:title>
      </cc:Work>
    </rdf:RDF>
  </metadata>
  <g
     transform="translate(-577.81428,-364.01932)"
     id="g2850"
     inkscape:groupmode="layer"
     inkscape:label="Layer 1">
    <path
       style="fill:#ffffff;fill-opacity:1;fill-rule:nonzero;stroke:none"
       d="m 581.95782,456.69495 c -0.7133,-0.3772 -1.27585,-0.92594 -1.61809,-1.57837 -0.52416,-0.99923 -0.5247,-1.03815 -0.599,-43.04773 -0.0507,-28.67823 0.009,-42.33784 0.1893,-42.96042 0.36956,-1.27949 1.18714,-2.22858 2.3906,-2.77516 0.9852,-0.44746 2.41414,-0.46781 32.8498,-0.46781 30.43567,0 31.86462,0.0204 32.84981,0.46781 1.2243,0.55604 2.03014,1.50756 2.38134,2.81179 0.16983,0.63071 0.23403,15.12726 0.19026,42.96165 l -0.0661,42.00974 -0.6147,1.07326 c -0.40577,0.70846 -0.96935,1.24495 -1.6581,1.57837 -1.02662,0.49698 -1.55906,0.5051 -33.12255,0.5051 l -32.07916,0 -1.09345,-0.57823 0,0 z"
       id="path3380" />
    <g
       transform="translate(547.92628,379.85807)"
       style="font-size:100px;font-style:normal;font-variant:normal;font-weight:normal;font-stretch:normal;fill:#10106c;fill-opacity:1;stroke:none;font-family:Droid Serif;-inkscape-font-specification:Droid Serif"
       id="g3372">
      <path
         d="m 100.6,13.542855 c -7e-5,3.000043 -1.033405,5.533374 -3.1,7.6 -2.066735,2.000037 -4.566732,3.000036 -7.5,3 -3.00006,3.6e-5 -5.53339,-1.033297 -7.6,-3.1 -2.000053,-2.066626 -3.000052,-4.566623 -3,-7.5 -5.2e-5,-2.933284 1.03328,-5.4332816 3.1,-7.4999999 2.06661,-2.0666109 4.566607,-3.0999432 7.5,-3.1 2.999934,5.68e-5 5.499932,1.0333891 7.5,3.1 2.066595,2.0667183 3.09993,4.5667159 3.1,7.4999999 m -0.8,0 c -7.2e-5,-2.733284 -0.966738,-5.033282 -2.9,-6.8999999 -1.866734,-1.9332783 -4.166732,-2.899944 -6.9,-2.9 -2.733393,5.6e-5 -5.066724,0.9667217 -7,2.9 -1.86672,1.8667179 -2.800053,4.1667159 -2.8,6.8999999 -5.3e-5,2.800043 0.93328,5.133374 2.8,7 1.933276,1.866704 4.266607,2.800036 7,2.8 2.799935,3.6e-5 5.133266,-0.933296 7,-2.8 1.866595,-1.933292 2.799928,-4.266623 2.8,-7 M 90,4.8428551 c 2.466602,5.49e-5 4.533266,0.8667207 6.2,2.6 1.666596,1.7333839 2.499929,3.7667149 2.5,6.0999999 -7.1e-5,2.46671 -0.866737,4.533375 -2.6,6.2 -1.666734,1.666705 -3.700065,2.500038 -6.1,2.5 -2.466727,3.8e-5 -4.533391,-0.833295 -6.2,-2.5 -1.666721,-1.733292 -2.500054,-3.799956 -2.5,-6.2 -5.4e-5,-2.466618 0.833279,-4.5332825 2.5,-6.1999999 1.733275,-1.6666126 3.79994,-2.4999451 6.2,-2.5 M 84.4,19.242855 c 1.533275,1.466706 3.39994,2.200038 5.6,2.2 2.199935,3.8e-5 4.0666,-0.733294 5.6,-2.2 1.533264,-1.533291 2.29993,-3.433289 2.3,-5.7 -7e-5,-2.199952 -0.766736,-4.0666163 -2.3,-5.5999999 -1.5334,-1.53328 -3.400065,-2.2999459 -5.6,-2.3 -2.266727,5.41e-5 -4.166725,0.76672 -5.7,2.3 -1.466722,1.5333836 -2.200055,3.4000479 -2.2,5.5999999 -5.5e-5,2.266711 0.766611,4.166709 2.3,5.7 m 10.8,-7.8 c 0.666598,4.8e-5 1.199931,0.200048 1.6,0.6 0.466597,0.400047 0.69993,0.93338 0.7,1.6 -7e-5,0.600046 -0.20007,1.100045 -0.6,1.5 -0.400069,0.400044 -0.966735,0.600044 -1.7,0.6 l -1.4,0 c 0.6666,1.200043 0.999933,2.000042 1,2.4 -6.7e-5,0.600041 -0.2334,1.133374 -0.7,1.6 -0.400066,0.40004 -0.900066,0.600039 -1.5,0.6 -0.200065,3.9e-5 -0.400065,3.9e-5 -0.6,0 -0.133398,-0.06663 -0.300064,-0.133294 -0.5,-0.2 -0.133397,-0.133294 -0.26673,-0.233293 -0.4,-0.3 -0.06673,-0.133293 -0.16673,-0.29996 -0.3,-0.5 -0.133397,-0.199959 -0.233396,-0.333293 -0.3,-0.4 -0.06673,-0.133292 -0.16673,-0.299959 -0.3,-0.5 -0.06673,-0.266625 -0.133396,-0.433292 -0.2,-0.5 -0.666729,1.133374 -1.166728,1.80004 -1.5,2 -0.266727,0.266706 -0.633394,0.400039 -1.1,0.4 -0.600059,3.9e-5 -1.133392,-0.19996 -1.6,-0.6 -0.466724,-0.466626 -0.700058,-0.966626 -0.7,-1.5 -5.8e-5,-0.399958 0.366609,-1.233291 1.1,-2.5 l -1.4,0 c -0.666723,4.4e-5 -1.233389,-0.199956 -1.7,-0.6 -0.400055,-0.466622 -0.600055,-0.999954 -0.6,-1.6 -5.5e-5,-0.66662 0.199945,-1.166619 0.6,-1.5 0.399944,-0.399952 0.96661,-0.599952 1.7,-0.6 l 1.4,0 c -0.666725,-1.266617 -1.000058,-2.0999495 -1,-2.4999999 -5.8e-5,-0.5999486 0.199942,-1.0999481 0.6,-1.5 0.466608,-0.4666139 0.999941,-0.699947 1.6,-0.7 0.266606,5.3e-5 0.49994,0.06672 0.7,0.2 0.199939,0.066719 0.333272,0.133386 0.4,0.2 0.133272,0.066719 0.266605,0.2333857 0.4,0.5 0.199938,0.2000519 0.333272,0.3333851 0.4,0.4 0.06661,0.066718 0.166605,0.2667181 0.3,0.6 0.199938,0.3333841 0.333271,0.5333839 0.4,0.6 0.666603,-1.1999483 1.166603,-1.8999476 1.5,-2.1 0.266602,-0.1999472 0.633269,-0.2999471 1.1,-0.3 0.599934,5.29e-5 1.133267,0.2000527 1.6,0.6 0.4666,0.4000519 0.699933,0.9000514 0.7,1.5 -6.7e-5,0.3333838 -0.366734,1.1667159 -1.1,2.4999999 l 1.4,0 m -2.6,8.1 c 0.399934,4e-5 0.733268,-0.133293 1,-0.4 0.2666,-0.266626 0.399933,-0.599959 0.4,-1 -6.7e-5,-0.266625 -0.06673,-0.499958 -0.2,-0.7 l -1.4,-2.5 2.8,0 c 0.999931,4.5e-5 1.499931,-0.466621 1.5,-1.4 -6.9e-5,-0.933286 -0.500069,-1.399952 -1.5,-1.4 l -2.8,0 1.4,-2.3999999 c 0.199933,-0.2666164 0.299933,-0.5666161 0.3,-0.9 -6.7e-5,-0.3332821 -0.166733,-0.6332818 -0.5,-0.9 -0.266732,-0.2666146 -0.600066,-0.3999478 -1,-0.4 -0.466731,5.22e-5 -0.866731,0.2333853 -1.2,0.7 L 90,10.742855 88.6,8.2428551 c -0.333394,-0.4666147 -0.733394,-0.6999478 -1.2,-0.7 -0.40006,5.22e-5 -0.766726,0.1333854 -1.1,0.4 -0.266725,0.2667182 -0.400058,0.6000512 -0.4,1 -5.8e-5,0.2667172 0.09994,0.5333836 0.3,0.8 l 1.4,2.3999999 -2.8,0 c -1.000056,4.8e-5 -1.500056,0.466714 -1.5,1.4 -5.6e-5,0.933379 0.499944,1.400045 1.5,1.4 l 2.8,0 -1.4,2.5 c -0.200058,0.266709 -0.300058,0.533375 -0.3,0.8 -5.8e-5,0.333375 0.133275,0.633374 0.4,0.9 0.333274,0.266707 0.69994,0.40004 1.1,0.4 0.466606,4e-5 0.866606,-0.233293 1.2,-0.7 l 1.4,-2.5 1.4,2.5 c 0.333269,0.466707 0.733269,0.70004 1.2,0.7 m -4.3,-7.6 c 0.466605,-0.466618 0.999938,-0.699951 1.6,-0.7 0.666604,4.9e-5 1.23327,0.233382 1.7,0.7 0.466602,0.400047 0.699935,0.93338 0.7,1.6 -6.5e-5,0.666712 -0.233398,1.233378 -0.7,1.7 -0.400064,0.400044 -0.933397,0.600044 -1.6,0.6 -0.666729,4.4e-5 -1.233395,-0.233289 -1.7,-0.7 -0.40006,-0.466622 -0.60006,-0.999954 -0.6,-1.6 -6e-5,-0.66662 0.19994,-1.199953 0.6,-1.6 m 1.7,3.1 c 0.399937,4.5e-5 0.73327,-0.133288 1,-0.4 0.333269,-0.333288 0.499936,-0.699954 0.5,-1.1 -6.4e-5,-0.399953 -0.166731,-0.733286 -0.5,-1 -0.26673,-0.333286 -0.633396,-0.499952 -1.1,-0.5 -0.400062,4.8e-5 -0.733395,0.166714 -1,0.5 -0.266728,0.266714 -0.400061,0.600047 -0.4,1 -6.1e-5,0.466712 0.133272,0.833379 0.4,1.1 0.333272,0.266712 0.699938,0.400045 1.1,0.4 m 0.8,-1.5 c -6.3e-5,0.533379 -0.26673,0.800045 -0.8,0.8 -0.533395,4.5e-5 -0.800062,-0.266621 -0.8,-0.8 -6.2e-5,-0.46662 0.266605,-0.699953 0.8,-0.7 0.53327,4.7e-5 0.799937,0.23338 0.8,0.7 m -13,-7.2999999 c -5e-5,3.0000505 -1.033383,5.5333809 -3.1,7.5999999 -2.066712,2.000044 -4.566709,3.000043 -7.5,3 -3.000037,4.3e-5 -5.533368,-1.033289 -7.6,-3.1 -2.00003,-2.066619 -3.000029,-4.566616 -3,-7.4999999 -2.9e-5,-2.9332769 1.033303,-5.43327443 3.1,-7.5 2.066632,-2.0666036 4.56663,-3.0999359 7.5,-3.1 2.999957,6.41e-5 5.499955,1.0333964 7.5,3.1 2.066617,2.06672557 3.09995,4.5667231 3.1,7.5 m -0.8,0 C 76.99995,3.509578 76.033285,1.2095803 74.1,-0.65714493 72.233289,-2.5904159 69.933291,-3.5570816 67.2,-3.5571449 c -2.73337,6.33e-5 -5.066701,0.966729 -7,2.89999997 -1.866697,1.86672523 -2.80003,4.16672293 -2.8,6.90000003 -3e-5,2.8000507 0.933303,5.1333819 2.8,6.9999999 1.933299,1.866711 4.26663,2.800044 7,2.8 2.799957,4.4e-5 5.133288,-0.933289 7,-2.8 1.866618,-1.933285 2.79995,-4.2666158 2.8,-6.9999999 m -9.8,-8.7 c 2.466625,6.22e-5 4.533289,0.866728 6.2,2.59999997 1.666619,1.73339123 2.499952,3.76672253 2.5,6.10000003 -4.8e-5,2.4667177 -0.866714,4.5333819 -2.6,6.1999999 -1.666711,1.666712 -3.700042,2.500045 -6.1,2.5 -2.466704,4.5e-5 -4.533369,-0.833288 -6.2,-2.5 C 59.333302,10.709571 58.499969,8.6429062 58.5,6.2428551 58.499969,3.7762444 59.333302,1.7095798 61,0.04285507 62.733298,-1.6237502 64.799963,-2.4570827 67.2,-2.4571449 M 61.6,11.942855 c 1.533298,1.466713 3.399963,2.200046 5.6,2.2 2.199958,4.6e-5 4.066623,-0.733287 5.6,-2.2 1.533286,-1.533284 2.299952,-3.433282 2.3,-5.6999999 -4.8e-5,-2.1999443 -0.766714,-4.0666091 -2.3,-5.60000003 -1.533377,-1.5332727 -3.400042,-2.29993857 -5.6,-2.29999997 -2.266704,6.14e-5 -4.166702,0.76672727 -5.7,2.29999997 -1.466699,1.53339093 -2.200032,3.40005573 -2.2,5.60000003 -3.2e-5,2.2667179 0.766634,4.1667159 2.3,5.6999999 M 72.4,4.1428551 c 0.666621,5.56e-5 1.199954,0.2000554 1.6,0.6 0.46662,0.4000546 0.699953,0.9333874 0.7,1.6 -4.7e-5,0.6000528 -0.200047,1.1000523 -0.6,1.5 -0.400046,0.4000515 -0.966712,0.6000513 -1.7,0.6 l -1.4,0 c 0.666622,1.2000501 0.999955,2.0000489 1,2.3999999 -4.5e-5,0.600048 -0.233378,1.133381 -0.7,1.6 -0.400043,0.400047 -0.900043,0.600047 -1.5,0.6 -0.200042,4.7e-5 -0.400042,4.7e-5 -0.6,0 -0.133375,-0.06662 -0.300041,-0.133286 -0.5,-0.2 -0.133374,-0.133286 -0.266708,-0.233286 -0.4,-0.3 -0.06671,-0.133286 -0.166707,-0.299952 -0.3,-0.5 -0.133374,-0.199952 -0.233374,-0.333285 -0.3,-0.4 -0.06671,-0.133285 -0.166707,-0.299952 -0.3,-0.5 -0.06671,-0.266618 -0.133373,-0.433284 -0.2,-0.5 -0.666706,1.133381 -1.166705,1.800047 -1.5,2 -0.266705,0.266714 -0.633371,0.400047 -1.1,0.4 -0.600037,4.7e-5 -1.133369,-0.199953 -1.6,-0.6 -0.466702,-0.466619 -0.700035,-0.966618 -0.7,-1.5 -3.5e-5,-0.399951 0.366632,-1.2332832 1.1,-2.4999999 l -1.4,0 c -0.6667,5.13e-5 -1.233367,-0.1999485 -1.7,-0.6 -0.400032,-0.4666143 -0.600032,-0.9999471 -0.6,-1.6 -3.2e-5,-0.6666125 0.199968,-1.166612 0.6,-1.5 0.399967,-0.3999446 0.966633,-0.5999444 1.7,-0.6 l 1.4,0 c -0.666702,-1.2666098 -1.000035,-2.0999423 -1,-2.5 -3.5e-5,-0.5999413 0.199965,-1.09994083 0.6,-1.50000003 0.466631,-0.4666066 0.999963,-0.6999397 1.6,-0.7 0.266629,6.03e-5 0.499962,0.0667269 0.7,0.2 0.199962,0.0667267 0.333295,0.1333933 0.4,0.2 0.133295,0.0667265 0.266628,0.233393 0.4,0.5 0.199961,0.2000592 0.333294,0.3333924 0.4,0.4 0.06663,0.0667256 0.166628,0.26672543 0.3,0.60000003 0.19996,0.3333914 0.333294,0.5333912 0.4,0.6 0.666626,-1.19994103 1.166626,-1.89994033 1.5,-2.10000003 0.266625,-0.1999399 0.633292,-0.2999398 1.1,-0.3 0.599957,6.02e-5 1.13329,0.20006 1.6,0.6 0.466622,0.4000592 0.699955,0.90005873 0.7,1.50000003 -4.5e-5,0.3333911 -0.366711,1.1667236 -1.1,2.5 l 1.4,0 m -2.6,8.0999999 c 0.399957,4.8e-5 0.73329,-0.133286 1,-0.4 0.266623,-0.266618 0.399956,-0.599951 0.4,-1 -4.4e-5,-0.266617 -0.06671,-0.499951 -0.2,-0.7 l -1.4,-2.4999999 2.8,0 c 0.999954,5.21e-5 1.499954,-0.4666141 1.5,-1.4 -4.6e-5,-0.9332789 -0.500046,-1.3999451 -1.5,-1.4 l -2.8,0 1.4,-2.4 c 0.199956,-0.2666091 0.299956,-0.5666088 0.3,-0.9 -4.4e-5,-0.3332748 -0.16671,-0.63327453 -0.5,-0.90000003 -0.26671,-0.2666073 -0.600043,-0.3999405 -1,-0.4 -0.466708,5.95e-5 -0.866708,0.2333926 -1.2,0.7 L 67.2,3.4428551 65.8,0.94285507 c -0.333371,-0.4666074 -0.733371,-0.6999405 -1.2,-0.7 -0.400037,5.95e-5 -0.766703,0.1333927 -1.1,0.4 -0.266702,0.2667255 -0.400036,0.60005853 -0.4,1.00000003 -3.6e-5,0.2667245 0.09996,0.5333909 0.3,0.8 l 1.4,2.4 -2.8,0 c -1.000034,5.49e-5 -1.500033,0.4667211 -1.5,1.4 -3.3e-5,0.9333859 0.499966,1.4000521 1.5,1.4 l 2.8,0 -1.4,2.4999999 c -0.200036,0.266716 -0.300036,0.533382 -0.3,0.8 -3.6e-5,0.333382 0.133298,0.633382 0.4,0.9 0.333297,0.266714 0.699963,0.400048 1.1,0.4 0.466629,4.8e-5 0.866629,-0.233286 1.2,-0.7 l 1.4,-2.4999999 1.4,2.4999999 c 0.333292,0.466714 0.733292,0.700048 1.2,0.7 M 65.5,4.6428551 c 0.466628,-0.4666111 0.999961,-0.6999442 1.6,-0.7 0.666626,5.58e-5 1.233292,0.2333889 1.7,0.7 0.466625,0.4000547 0.699958,0.9333875 0.7,1.6 -4.2e-5,0.6667195 -0.233375,1.2333856 -0.7,1.7 -0.400041,0.4000514 -0.933374,0.6000512 -1.6,0.6 -0.666706,5.12e-5 -1.233372,-0.2332819 -1.7,-0.7 -0.400038,-0.4666143 -0.600037,-0.9999471 -0.6,-1.6 -3.7e-5,-0.6666125 0.199962,-1.1999453 0.6,-1.6 m 1.7,3.1 c 0.39996,5.2e-5 0.733293,-0.1332812 1,-0.4 0.333292,-0.3332806 0.499959,-0.6999469 0.5,-1.1 -4.1e-5,-0.3999461 -0.166708,-0.7332791 -0.5,-1 -0.266707,-0.3332785 -0.633373,-0.499945 -1.1,-0.5 -0.400039,5.5e-5 -0.733372,0.1667215 -1,0.5 -0.266705,0.2667209 -0.400038,0.6000539 -0.4,1 -3.8e-5,0.4667197 0.133295,0.833386 0.4,1.1 0.333294,0.2667188 0.699961,0.400052 1.1,0.4 m 0.8,-1.5 c -4.1e-5,0.5333863 -0.266707,0.8000527 -0.8,0.8 -0.533372,5.27e-5 -0.800039,-0.2666137 -0.8,-0.8 -3.9e-5,-0.4666127 0.266628,-0.6999458 0.8,-0.7 0.533293,5.42e-5 0.799959,0.2333873 0.8,0.7 m -13,-7.3 c -2.8e-5,3.0000578 -1.03336,5.5333886 -3.1,7.6 -2.066689,2.0000512 -4.566686,3.0000502 -7.5,3 -3.000014,5.02e-5 -5.533345,-1.0332821 -7.6,-3.1 -2.000007,-2.0666113 -3.000006,-4.5666088 -3,-7.5 -6e-6,-2.9332696 1.033326,-5.4332671 3.1,-7.5 2.066655,-2.0665961 4.566653,-3.0999291 7.5,-3.1000001 2.99998,7.1e-5 5.499978,1.033404 7.5,3.1000001 2.06664,2.0667329 3.099972,4.5667304 3.1,7.5 m -0.8,0 c -2.7e-5,-2.7332698 -0.966692,-5.0332675 -2.9,-6.9 -1.866689,-1.9332637 -4.166686,-2.8999291 -6.9,-2.9000001 -2.733348,7.1e-5 -5.066679,0.9667364 -7,2.9000001 -1.866675,1.8667325 -2.800007,4.1667302 -2.8,6.9 -7e-6,2.800058 0.933325,5.133389 2.8,7 1.933321,1.8667186 4.266652,2.800051 7,2.8 2.79998,5.1e-5 5.133311,-0.9332814 7,-2.8 1.866641,-1.9332776 2.799973,-4.2666086 2.8,-7 m -9.8,-8.7 c 2.466647,6.95e-5 4.533312,0.8667353 6.2,2.6 1.666642,1.7333985 2.499974,3.7667298 2.5,6.1 -2.6e-5,2.466725 -0.866691,4.5333896 -2.6,6.2 -1.666688,1.6667196 -3.700019,2.5000521 -6.1,2.5 -2.466681,5.21e-5 -4.533346,-0.8332804 -6.2,-2.5 -1.666676,-1.733277 -2.500008,-3.7999416 -2.5,-6.2 -8e-6,-2.4666034 0.833324,-4.533268 2.5,-6.2 1.733321,-1.666598 3.799985,-2.4999305 6.2,-2.5 m -5.6,14.4 c 1.53332,1.4667203 3.399985,2.2000529 5.6,2.2 2.199981,5.29e-5 4.066646,-0.7332797 5.6,-2.2 1.533309,-1.5332767 2.299975,-3.4332748 2.3,-5.7 -2.5e-5,-2.199937 -0.766691,-4.0666018 -2.3,-5.6 -1.533354,-1.5332654 -3.400019,-2.2999313 -5.6,-2.3 -2.266681,6.87e-5 -4.166679,0.7667346 -5.7,2.3 -1.466676,1.5333982 -2.200009,3.400063 -2.2,5.6 -9e-6,2.2667252 0.766657,4.1667233 2.3,5.7 m 10.8,-7.8 c 0.666644,6.29e-5 1.199977,0.2000627 1.6,0.6 0.466642,0.4000619 0.699976,0.9333947 0.7,1.59999997 -2.4e-5,0.6000601 -0.200024,1.1000596 -0.6,1.5 -0.400023,0.4000588 -0.96669,0.60005863 -1.7,0.60000003 l -1.4,0 c 0.666645,1.2000574 0.999978,2.0000566 1,2.4 -2.2e-5,0.6000556 -0.233355,1.1333884 -0.7,1.6 -0.400021,0.4000542 -0.90002,0.600054 -1.5,0.6 -0.200019,5.4e-5 -0.400019,5.4e-5 -0.6,0 -0.133352,-0.066613 -0.300019,-0.1332792 -0.5,-0.2 -0.133352,-0.133279 -0.266685,-0.2332789 -0.4,-0.3 -0.06668,-0.1332787 -0.166685,-0.2999452 -0.3,-0.5 -0.133351,-0.1999448 -0.233351,-0.333278 -0.3,-0.4 -0.06668,-0.1332778 -0.166684,-0.2999443 -0.3,-0.5 -0.06668,-0.2666105 -0.13335,-0.433277 -0.2,-0.5 -0.666683,1.1333886 -1.166682,1.8000546 -1.5,2 -0.266682,0.2667208 -0.633348,0.400054 -1.1,0.4 -0.600014,5.4e-5 -1.133346,-0.1999458 -1.6,-0.6 -0.466679,-0.4666116 -0.700012,-0.9666111 -0.7,-1.5 -1.2e-5,-0.3999435 0.366654,-1.233276 1.1,-2.5 l -1.4,0 c -0.666678,5.86e-5 -1.233344,-0.19994123 -1.7,-0.60000003 -0.40001,-0.466607 -0.600009,-0.9999398 -0.6,-1.59999997 -9e-6,-0.6666052 0.19999,-1.1666047 0.6,-1.5 0.39999,-0.3999373 0.966656,-0.5999371 1.7,-0.6 l 1.4,0 c -0.666679,-1.2666025 -1.000012,-2.099935 -1,-2.5 -1.2e-5,-0.599934 0.199988,-1.0999335 0.6,-1.5 0.466654,-0.4665993 0.999986,-0.6999324 1.6,-0.7 0.266652,6.76e-5 0.499985,0.066734 0.7,0.2 0.199985,0.066734 0.333318,0.1334006 0.4,0.2 0.133318,0.066734 0.266651,0.2334003 0.4,0.5 0.199984,0.2000665 0.333317,0.3333997 0.4,0.4 0.06665,0.066733 0.16665,0.2667327 0.3,0.6 0.199983,0.3333987 0.333317,0.5333985 0.4,0.6 0.666649,-1.1999337 1.166649,-1.899933 1.5,-2.1 0.266648,-0.1999326 0.633314,-0.2999325 1.1,-0.3 0.59998,6.75e-5 1.133313,0.2000673 1.6,0.6 0.466645,0.4000665 0.699978,0.900066 0.7,1.5 -2.2e-5,0.3333984 -0.366688,1.1667309 -1.1,2.5 l 1.4,0 m -2.6,8.1 c 0.39998,5.48e-5 0.733313,-0.1332784 1,-0.4 0.266646,-0.2666112 0.399979,-0.5999442 0.4,-1 -2.1e-5,-0.2666102 -0.06669,-0.4999433 -0.2,-0.7 l -1.4,-2.50000003 2.8,0 c 0.999977,5.94e-5 1.499976,-0.4666068 1.5,-1.39999997 -2.4e-5,-0.9332716 -0.500023,-1.3999378 -1.5,-1.4 l -2.8,0 1.4,-2.4 c 0.199979,-0.2666018 0.299979,-0.5666015 0.3,-0.9 -2.1e-5,-0.3332675 -0.166687,-0.6332672 -0.5,-0.9 -0.266687,-0.2666 -0.60002,-0.3999332 -1,-0.4 -0.466686,6.68e-5 -0.866685,0.2333999 -1.2,0.7 l -1.4,2.5 -1.4,-2.5 c -0.333349,-0.4666001 -0.733348,-0.6999332 -1.2,-0.7 -0.400014,6.68e-5 -0.76668,0.1334 -1.1,0.4 -0.26668,0.2667328 -0.400013,0.6000658 -0.4,1 -1.3e-5,0.2667318 0.09999,0.5333982 0.3,0.8 l 1.4,2.4 -2.8,0 c -1.000011,6.22e-5 -1.50001,0.4667284 -1.5,1.4 -1e-5,0.93339317 0.499989,1.40005937 1.5,1.39999997 l 2.8,0 -1.4,2.50000003 c -0.200013,0.2667233 -0.300013,0.5333897 -0.3,0.8 -1.3e-5,0.3333891 0.13332,0.6333888 0.4,0.9 0.33332,0.2667216 0.699986,0.4000548 1.1,0.4 0.466652,5.48e-5 0.866651,-0.2332783 1.2,-0.7 l 1.4,-2.5 1.4,2.5 c 0.333315,0.4667217 0.733314,0.7000548 1.2,0.7 m -4.3,-7.6 c 0.466651,-0.4666038 0.999984,-0.6999369 1.6,-0.7 0.666649,6.31e-5 1.233315,0.2333962 1.7,0.7 0.466648,0.400062 0.699981,0.9333948 0.7,1.6 -1.9e-5,0.66672677 -0.233352,1.23339287 -0.7,1.69999997 -0.400018,0.40005873 -0.933351,0.60005853 -1.6,0.60000003 -0.666683,5.85e-5 -1.233349,-0.2332746 -1.7,-0.70000003 -0.400015,-0.466607 -0.600015,-0.9999398 -0.6,-1.59999997 -1.5e-5,-0.6666052 0.199985,-1.199938 0.6,-1.6 m 1.7,3.09999997 c 0.399983,5.93e-5 0.733316,-0.1332739 1,-0.4 0.333315,-0.3332733 0.499982,-0.6999396 0.5,-1.09999997 -1.8e-5,-0.3999388 -0.166685,-0.7332718 -0.5,-1 -0.266684,-0.3332712 -0.633351,-0.4999377 -1.1,-0.5 -0.400016,6.23e-5 -0.733349,0.1667288 -1,0.5 -0.266682,0.2667282 -0.400015,0.6000612 -0.4,1 -1.5e-5,0.46672697 0.133318,0.83339327 0.4,1.09999997 0.333317,0.2667261 0.699983,0.4000593 1.1,0.4 m 0.8,-1.49999997 c -1.8e-5,0.53339357 -0.266684,0.80005997 -0.8,0.79999997 -0.53335,6e-5 -0.800016,-0.2666064 -0.8,-0.79999997 -1.6e-5,-0.4666054 0.26665,-0.6999385 0.8,-0.7 0.533316,6.15e-5 0.799982,0.2333946 0.8,0.7"
         id="path3374"
         sodipodi:nodetypes="ccscsssccccssscscccsscscscccscssscscccssccssscccsscccscscccscccssscscscccssscccsscccscccscscccscscccscccscscccccscssscsccsscscscccssscccscsssccccssscscccsscscscccscssscscccssccssscccsscccscscccscccssscscscccssscccsscccscccscscccscscccscccscscccccscssscsccsscscscccssscccscsssccccssscscccsscscscccscssscscccssccssscccsscccscscccscccssscscscccssscccsscccscccscscccscscccscccscscccccscssscsccsscscscccsssc"
         style="fill:#10106c;fill-opacity:1" />
    </g>
    <g
       id="g3376"
       style="font-size:100px;font-style:normal;font-variant:normal;font-weight:normal;font-stretch:normal;fill:#9c0000;fill-opacity:1;stroke:none;font-family:Droid Serif;-inkscape-font-specification:Droid Serif"
       transform="translate(300.97395,385.70233)">
      <path
         id="path3378"
         d="m 310.1823,57.039555 c -4e-5,2.999994 -1.03337,5.499992 -3.1,7.5 -2.0667,2.066655 -4.5667,3.099987 -7.5,3.1 -3.00002,-1.3e-5 -5.53335,-1.033345 -7.6,-3.1 -2.00002,-2.066675 -3.00002,-4.566672 -3,-7.5 -2e-5,-2.933333 1.03332,-5.43333 3.1,-7.5 2.06665,-2.06666 4.56664,-3.099992 7.5,-3.1 2.99997,8e-6 5.49997,1.03334 7.5,3.1 2.06663,2.06667 3.09996,4.566667 3.1,7.5 m -0.8,0 c -4e-5,-2.733333 -0.9667,-5.033331 -2.9,-6.9 -1.8667,-1.933327 -4.1667,-2.899993 -6.9,-2.9 -2.73336,7e-6 -5.06669,0.966673 -7,2.9 -1.86668,1.866669 -2.80002,4.166667 -2.8,6.9 -2e-5,2.799995 0.93332,5.133326 2.8,7 1.93331,1.866655 4.26664,2.799988 7,2.8 2.79997,-1.2e-5 5.1333,-0.966678 7,-2.9 1.86663,-1.866674 2.79996,-4.166672 2.8,-6.9 m -9.8,-8.7 c 2.46664,6e-6 4.5333,0.866672 6.2,2.6 1.66663,1.733335 2.49997,3.766666 2.5,6.1 -3e-5,2.466662 -0.8667,4.533326 -2.6,6.2 -1.6667,1.666656 -3.70003,2.499989 -6.1,2.5 -2.46669,-1.1e-5 -4.53335,-0.866677 -6.2,-2.6 -1.66668,-1.666674 -2.50002,-3.700005 -2.5,-6.1 -2e-5,-2.466667 0.83332,-4.533331 2.5,-6.2 1.73331,-1.666661 3.79998,-2.499994 6.2,-2.5 m -5.6,14.3 c 1.53331,1.533324 3.39998,2.29999 5.6,2.3 2.19997,-1e-5 4.06664,-0.766676 5.6,-2.3 1.5333,-1.466673 2.29997,-3.333338 2.3,-5.6 -3e-5,-2.2 -0.7667,-4.066665 -2.3,-5.6 -1.53336,-1.533329 -3.40003,-2.299995 -5.6,-2.3 -2.26669,5e-6 -4.16669,0.766671 -5.7,2.3 -1.46669,1.533335 -2.20002,3.4 -2.2,5.6 -2e-5,2.266662 0.76665,4.133327 2.3,5.6 m 10.8,-7.7 c 0.66664,0 1.19997,0.199999 1.6,0.6 0.46663,0.399999 0.69997,0.933331 0.7,1.6 -3e-5,0.599997 -0.20003,1.099996 -0.6,1.5 -0.40003,0.399995 -0.9667,0.599995 -1.7,0.6 l -1.4,0 c 0.66664,1.199994 0.99997,1.999993 1,2.4 -3e-5,0.599992 -0.23336,1.099992 -0.7,1.5 -0.40003,0.466658 -0.90003,0.699991 -1.5,0.7 -0.20003,-9e-6 -0.40003,-0.03334 -0.6,-0.1 -0.13336,-9e-6 -0.30003,-0.06668 -0.5,-0.2 -0.13336,-0.06668 -0.26669,-0.166676 -0.4,-0.3 -0.0667,-0.06668 -0.16669,-0.200009 -0.3,-0.4 -0.13336,-0.200008 -0.23336,-0.366675 -0.3,-0.5 -0.0667,-0.06667 -0.16669,-0.233341 -0.3,-0.5 -0.0667,-0.200007 -0.13336,-0.33334 -0.2,-0.4 -0.66669,1.133325 -1.16669,1.799991 -1.5,2 -0.26669,0.266657 -0.63336,0.399991 -1.1,0.4 -0.60002,-9e-6 -1.13336,-0.233342 -1.6,-0.7 -0.46669,-0.400008 -0.70002,-0.866674 -0.7,-1.4 -2e-5,-0.400007 0.36665,-1.233339 1.1,-2.5 l -1.4,0 c -0.66669,-5e-6 -1.23335,-0.233338 -1.7,-0.7 -0.40002,-0.400004 -0.60002,-0.900003 -0.6,-1.5 -2e-5,-0.666669 0.19998,-1.200001 0.6,-1.6 0.39998,-0.333334 0.96665,-0.5 1.7,-0.5 l 1.4,0 c -0.66669,-1.266666 -1.00002,-2.099998 -1,-2.5 -2e-5,-0.599997 0.19998,-1.099997 0.6,-1.5 0.46664,-0.466663 0.99998,-0.699996 1.6,-0.7 0.26664,4e-6 0.49998,0.06667 0.7,0.2 0.19998,0.06667 0.33331,0.133337 0.4,0.2 0.13331,0.06667 0.26664,0.233337 0.4,0.5 0.19998,0.200003 0.33331,0.333336 0.4,0.4 0.0666,0.06667 0.16664,0.266669 0.3,0.6 0.19997,0.333335 0.33331,0.533335 0.4,0.6 0.66664,-1.199997 1.16664,-1.899996 1.5,-2.1 0.26664,-0.199996 0.63331,-0.299996 1.1,-0.3 0.59997,4e-6 1.1333,0.200004 1.6,0.6 0.46664,0.400003 0.69997,0.900003 0.7,1.5 -3e-5,0.333335 -0.3667,1.166668 -1.1,2.5 l 1.4,0 m -2.6,8.1 c 0.39997,-9e-6 0.7333,-0.133342 1,-0.4 0.26664,-0.266675 0.39997,-0.600008 0.4,-1 -3e-5,-0.266674 -0.0667,-0.500007 -0.2,-0.7 l -1.4,-2.5 2.8,0 c 0.99997,-4e-6 1.49997,-0.46667 1.5,-1.4 -3e-5,-0.933335 -0.50003,-1.400001 -1.5,-1.4 l -2.8,0 1.4,-2.4 c 0.19997,-0.266665 0.29997,-0.566665 0.3,-0.9 -3e-5,-0.333331 -0.1667,-0.633331 -0.5,-0.9 -0.2667,-0.266663 -0.60003,-0.399997 -1,-0.4 -0.46669,3e-6 -0.86669,0.233337 -1.2,0.7 l -1.4,2.5 -1.4,-2.5 c -0.33336,-0.466663 -0.73336,-0.699997 -1.2,-0.7 -0.40002,3e-6 -0.76669,0.133337 -1.1,0.4 -0.26669,0.266669 -0.40002,0.600002 -0.4,1 -2e-5,0.266668 0.1,0.533335 0.3,0.8 l 1.4,2.4 -2.8,0 c -1.00002,-1e-6 -1.50002,0.466665 -1.5,1.4 -2e-5,0.93333 0.49998,1.399996 1.5,1.4 l 2.8,0 -1.4,2.5 c -0.20002,0.26666 -0.30002,0.533326 -0.3,0.8 -2e-5,0.333326 0.13331,0.633325 0.4,0.9 0.33331,0.266658 0.69998,0.399991 1.1,0.4 0.46664,-9e-6 0.86664,-0.233342 1.2,-0.7 l 1.4,-2.5 1.4,2.5 c 0.33331,0.466658 0.73331,0.699991 1.2,0.7 m -4.3,-7.7 c 0.46664,-0.4 0.99998,-0.6 1.6,-0.6 0.66664,0 1.23331,0.2 1.7,0.6 0.46664,0.466665 0.69997,1.033331 0.7,1.7 -3e-5,0.666663 -0.23336,1.199996 -0.7,1.6 -0.40003,0.466662 -0.93336,0.699995 -1.6,0.7 -0.66669,-5e-6 -1.23336,-0.233338 -1.7,-0.7 -0.40002,-0.46667 -0.60002,-1.000003 -0.6,-1.6 -2e-5,-0.666669 0.19998,-1.233335 0.6,-1.7 m 1.7,3.2 c 0.39997,-4e-6 0.73331,-0.166671 1,-0.5 0.33331,-0.26667 0.49997,-0.600003 0.5,-1 -3e-5,-0.400002 -0.16669,-0.766668 -0.5,-1.1 -0.26669,-0.266668 -0.63336,-0.400001 -1.1,-0.4 -0.40003,-10e-7 -0.73336,0.133332 -1,0.4 -0.26669,0.333332 -0.40002,0.699998 -0.4,1.1 -2e-5,0.466664 0.13331,0.83333 0.4,1.1 0.33331,0.266663 0.69997,0.399996 1.1,0.4 m 0.8,-1.5 c -3e-5,0.53333 -0.26669,0.799997 -0.8,0.8 -0.53336,-3e-6 -0.80002,-0.26667 -0.8,-0.8 -2e-5,-0.466669 0.26664,-0.700002 0.8,-0.7 0.53331,-2e-6 0.79997,0.233331 0.8,0.7 m 39.1,-24.3 c -7e-5,3.000019 -1.0334,5.53335 -3.1,7.6 -2.06673,2.000012 -4.56672,3.000011 -7.5,3 -3.00005,1.1e-5 -5.53338,-1.033321 -7.6,-3.1 -2.00005,-2.06665 -3.00004,-4.566648 -3,-7.5 -4e-5,-2.933309 1.03329,-5.433306 3.1,-7.5 2.06662,-2.066635 4.56661,-3.099968 7.5,-3.1 2.99994,3.2e-5 5.49994,1.033365 7.5,3.1 2.0666,2.066694 3.09993,4.566691 3.1,7.5 m -0.8,0 c -6e-5,-2.733309 -0.96673,-5.033307 -2.9,-6.9 -1.86673,-1.933303 -4.16672,-2.899968 -6.9,-2.9 -2.73339,3.2e-5 -5.06672,0.966697 -7,2.9 -1.86671,1.866693 -2.80005,4.166691 -2.8,6.9 -5e-5,2.800019 0.93329,5.13335 2.8,7 1.93328,1.86668 4.26661,2.800012 7,2.8 2.79994,1.2e-5 5.13327,-0.93332 7,-2.8 1.8666,-1.933317 2.79994,-4.266648 2.8,-7 m -9.8,-8.7 c 2.46661,3e-5 4.53327,0.866696 6.2,2.6 1.6666,1.733359 2.49994,3.766691 2.5,6.1 -6e-5,2.466686 -0.86673,4.533351 -2.6,6.2 -1.66673,1.666681 -3.70006,2.500013 -6.1,2.5 -2.46672,1.3e-5 -4.53338,-0.833319 -6.2,-2.5 -1.66671,-1.733316 -2.50005,-3.799981 -2.5,-6.2 -5e-5,-2.466642 0.83329,-4.533307 2.5,-6.2 1.73328,-1.666637 3.79995,-2.49997 6.2,-2.5 m -5.6,14.4 c 1.53328,1.466681 3.39995,2.200014 5.6,2.2 2.19994,1.4e-5 4.06661,-0.733319 5.6,-2.2 1.53327,-1.533316 2.29994,-3.433314 2.3,-5.7 -6e-5,-2.199976 -0.76673,-4.066641 -2.3,-5.6 -1.53339,-1.533304 -3.40006,-2.29997 -5.6,-2.3 -2.26672,3e-5 -4.16672,0.766696 -5.7,2.3 -1.46671,1.533359 -2.20005,3.400024 -2.2,5.6 -5e-5,2.266686 0.76662,4.166684 2.3,5.7 m 10.8,-7.8 c 0.66661,2.4e-5 1.19994,0.200024 1.6,0.6 0.4666,0.400023 0.69994,0.933356 0.7,1.6 -6e-5,0.600021 -0.20006,1.100021 -0.6,1.5 -0.40006,0.40002 -0.96673,0.60002 -1.7,0.6 l -1.4,0 c 0.66661,1.200018 0.99994,2.000018 1,2.4 -6e-5,0.600017 -0.23339,1.133349 -0.7,1.6 -0.40006,0.400015 -0.90006,0.600015 -1.5,0.6 -0.20006,1.5e-5 -0.40006,1.5e-5 -0.6,0 -0.13339,-0.06665 -0.30006,-0.133318 -0.5,-0.2 -0.13339,-0.133318 -0.26672,-0.233318 -0.4,-0.3 -0.0667,-0.133318 -0.16672,-0.299984 -0.3,-0.5 -0.13339,-0.199984 -0.23339,-0.333317 -0.3,-0.4 -0.0667,-0.133317 -0.16672,-0.299983 -0.3,-0.5 -0.0667,-0.26665 -0.13339,-0.433316 -0.2,-0.5 -0.66672,1.13335 -1.16672,1.800016 -1.5,2 -0.26672,0.266682 -0.63339,0.400015 -1.1,0.4 -0.60005,1.5e-5 -1.13338,-0.199985 -1.6,-0.6 -0.46672,-0.466651 -0.70005,-0.96665 -0.7,-1.5 -5e-5,-0.399983 0.36662,-1.233315 1.1,-2.5 l -1.4,0 c -0.66672,2e-5 -1.23338,-0.19998 -1.7,-0.6 -0.40005,-0.466646 -0.60005,-0.999979 -0.6,-1.6 -5e-5,-0.666644 0.19995,-1.166644 0.6,-1.5 0.39995,-0.399976 0.96662,-0.599976 1.7,-0.6 l 1.4,0 c -0.66672,-1.266642 -1.00005,-2.099974 -1,-2.5 -5e-5,-0.599973 0.19995,-1.099973 0.6,-1.5 0.46662,-0.466638 0.99995,-0.699971 1.6,-0.7 0.26661,2.9e-5 0.49995,0.0667 0.7,0.2 0.19995,0.06669 0.33328,0.133362 0.4,0.2 0.13328,0.06669 0.26661,0.233361 0.4,0.5 0.19995,0.200027 0.33328,0.333361 0.4,0.4 0.0666,0.06669 0.16661,0.266694 0.3,0.6 0.19995,0.33336 0.33328,0.533359 0.4,0.6 0.66661,-1.199973 1.16661,-1.899972 1.5,-2.1 0.26661,-0.199972 0.63328,-0.299972 1.1,-0.3 0.59994,2.8e-5 1.13327,0.200028 1.6,0.6 0.46661,0.400027 0.69994,0.900027 0.7,1.5 -6e-5,0.333359 -0.36673,1.166692 -1.1,2.5 l 1.4,0 m -2.6,8.1 c 0.39994,1.6e-5 0.73328,-0.133317 1,-0.4 0.26661,-0.26665 0.39994,-0.599983 0.4,-1 -6e-5,-0.266649 -0.0667,-0.499982 -0.2,-0.7 l -1.4,-2.5 2.8,0 c 0.99994,2e-5 1.49994,-0.466646 1.5,-1.4 -6e-5,-0.933311 -0.50006,-1.399977 -1.5,-1.4 l -2.8,0 1.4,-2.4 c 0.19994,-0.266641 0.29994,-0.566641 0.3,-0.9 -6e-5,-0.333307 -0.16673,-0.633306 -0.5,-0.9 -0.26672,-0.266639 -0.60006,-0.399972 -1,-0.4 -0.46672,2.8e-5 -0.86672,0.233361 -1.2,0.7 l -1.4,2.5 -1.4,-2.5 c -0.33339,-0.466639 -0.73339,-0.699972 -1.2,-0.7 -0.40005,2.8e-5 -0.76672,0.133361 -1.1,0.4 -0.26672,0.266694 -0.40005,0.600027 -0.4,1 -5e-5,0.266693 0.1,0.533359 0.3,0.8 l 1.4,2.4 -2.8,0 c -1.00005,2.3e-5 -1.50005,0.466689 -1.5,1.4 -5e-5,0.933354 0.49995,1.40002 1.5,1.4 l 2.8,0 -1.4,2.5 c -0.20005,0.266684 -0.30005,0.533351 -0.3,0.8 -5e-5,0.33335 0.13328,0.63335 0.4,0.9 0.33328,0.266683 0.69995,0.400016 1.1,0.4 0.46661,1.6e-5 0.86661,-0.233317 1.2,-0.7 l 1.4,-2.5 1.4,2.5 c 0.33328,0.466683 0.73328,0.700016 1.2,0.7 m -4.3,-7.6 c 0.46661,-0.466643 0.99995,-0.699976 1.6,-0.7 0.66661,2.4e-5 1.23328,0.233357 1.7,0.7 0.46661,0.400023 0.69994,0.933356 0.7,1.6 -6e-5,0.666688 -0.23339,1.233354 -0.7,1.7 -0.40006,0.40002 -0.93339,0.600019 -1.6,0.6 -0.66672,1.9e-5 -1.23339,-0.233314 -1.7,-0.7 -0.40005,-0.466646 -0.60005,-0.999979 -0.6,-1.6 -5e-5,-0.666644 0.19995,-1.199977 0.6,-1.6 m 1.7,3.1 c 0.39994,2e-5 0.73328,-0.133313 1,-0.4 0.33328,-0.333312 0.49994,-0.699979 0.5,-1.1 -6e-5,-0.399978 -0.16672,-0.733311 -0.5,-1 -0.26672,-0.33331 -0.63339,-0.499977 -1.1,-0.5 -0.40005,2.3e-5 -0.73339,0.16669 -1,0.5 -0.26672,0.266689 -0.40005,0.600022 -0.4,1 -5e-5,0.466688 0.13328,0.833354 0.4,1.1 0.33328,0.266687 0.69995,0.40002 1.1,0.4 m 0.8,-1.5 c -6e-5,0.533355 -0.26672,0.800021 -0.8,0.8 -0.53339,2.1e-5 -0.80005,-0.266645 -0.8,-0.8 -5e-5,-0.466644 0.26661,-0.699978 0.8,-0.7 0.53328,2.2e-5 0.79994,0.233356 0.8,0.7 m 9.8,24.3 c -7e-5,2.999994 -1.0334,5.499992 -3.1,7.5 -2.06673,2.066655 -4.56672,3.099987 -7.5,3.1 -3.00005,-1.3e-5 -5.53338,-1.033345 -7.6,-3.1 -2.00005,-2.066675 -3.00004,-4.566672 -3,-7.5 -4e-5,-2.933333 1.03329,-5.43333 3.1,-7.5 2.06662,-2.06666 4.56661,-3.099992 7.5,-3.1 2.99994,8e-6 5.49994,1.03334 7.5,3.1 2.0666,2.06667 3.09993,4.566667 3.1,7.5 m -0.8,0 c -6e-5,-2.733333 -0.96673,-5.033331 -2.9,-6.9 -1.86673,-1.933327 -4.16672,-2.899993 -6.9,-2.9 -2.73339,7e-6 -5.06672,0.966673 -7,2.9 -1.86671,1.866669 -2.80005,4.166667 -2.8,6.9 -5e-5,2.799995 0.93329,5.133326 2.8,7 1.93328,1.866655 4.26661,2.799988 7,2.8 2.79994,-1.2e-5 5.13327,-0.966678 7,-2.9 1.8666,-1.866674 2.79994,-4.166672 2.8,-6.9 m -9.8,-8.7 c 2.46661,6e-6 4.53327,0.866672 6.2,2.6 1.6666,1.733335 2.49994,3.766666 2.5,6.1 -6e-5,2.466662 -0.86673,4.533326 -2.6,6.2 -1.66673,1.666656 -3.70006,2.499989 -6.1,2.5 -2.46672,-1.1e-5 -4.53338,-0.866677 -6.2,-2.6 -1.66671,-1.666674 -2.50005,-3.700005 -2.5,-6.1 -5e-5,-2.466667 0.83329,-4.533331 2.5,-6.2 1.73328,-1.666661 3.79995,-2.499994 6.2,-2.5 m -5.6,14.3 c 1.53328,1.533324 3.39995,2.29999 5.6,2.3 2.19994,-1e-5 4.06661,-0.766676 5.6,-2.3 1.53327,-1.466673 2.29994,-3.333338 2.3,-5.6 -6e-5,-2.2 -0.76673,-4.066665 -2.3,-5.6 -1.53339,-1.533329 -3.40006,-2.299995 -5.6,-2.3 -2.26672,5e-6 -4.16672,0.766671 -5.7,2.3 -1.46671,1.533335 -2.20005,3.4 -2.2,5.6 -5e-5,2.266662 0.76662,4.133327 2.3,5.6 m 10.8,-7.7 c 0.66661,0 1.19994,0.199999 1.6,0.6 0.4666,0.399999 0.69994,0.933331 0.7,1.6 -6e-5,0.599997 -0.20006,1.099996 -0.6,1.5 -0.40006,0.399995 -0.96673,0.599995 -1.7,0.6 l -1.4,0 c 0.66661,1.199994 0.99994,1.999993 1,2.4 -6e-5,0.599992 -0.23339,1.099992 -0.7,1.5 -0.40006,0.466658 -0.90006,0.699991 -1.5,0.7 -0.20006,-9e-6 -0.40006,-0.03334 -0.6,-0.1 -0.13339,-9e-6 -0.30006,-0.06668 -0.5,-0.2 -0.13339,-0.06668 -0.26672,-0.166676 -0.4,-0.3 -0.0667,-0.06668 -0.16672,-0.200009 -0.3,-0.4 -0.13339,-0.200008 -0.23339,-0.366675 -0.3,-0.5 -0.0667,-0.06667 -0.16672,-0.233341 -0.3,-0.5 -0.0667,-0.200007 -0.13339,-0.33334 -0.2,-0.4 -0.66672,1.133325 -1.16672,1.799991 -1.5,2 -0.26672,0.266657 -0.63339,0.399991 -1.1,0.4 -0.60005,-9e-6 -1.13338,-0.233342 -1.6,-0.7 -0.46672,-0.400008 -0.70005,-0.866674 -0.7,-1.4 -5e-5,-0.400007 0.36662,-1.233339 1.1,-2.5 l -1.4,0 c -0.66672,-5e-6 -1.23338,-0.233338 -1.7,-0.7 -0.40005,-0.400004 -0.60005,-0.900003 -0.6,-1.5 -5e-5,-0.666669 0.19995,-1.200001 0.6,-1.6 0.39995,-0.333334 0.96662,-0.5 1.7,-0.5 l 1.4,0 c -0.66672,-1.266666 -1.00005,-2.099998 -1,-2.5 -5e-5,-0.599997 0.19995,-1.099997 0.6,-1.5 0.46662,-0.466663 0.99995,-0.699996 1.6,-0.7 0.26661,4e-6 0.49995,0.06667 0.7,0.2 0.19995,0.06667 0.33328,0.133337 0.4,0.2 0.13328,0.06667 0.26661,0.233337 0.4,0.5 0.19995,0.200003 0.33328,0.333336 0.4,0.4 0.0666,0.06667 0.16661,0.266669 0.3,0.6 0.19995,0.333335 0.33328,0.533335 0.4,0.6 0.66661,-1.199997 1.16661,-1.899996 1.5,-2.1 0.26661,-0.199996 0.63328,-0.299996 1.1,-0.3 0.59994,4e-6 1.13327,0.200004 1.6,0.6 0.46661,0.400003 0.69994,0.900003 0.7,1.5 -6e-5,0.333335 -0.36673,1.166668 -1.1,2.5 l 1.4,0 m -2.6,8.1 c 0.39994,-9e-6 0.73328,-0.133342 1,-0.4 0.26661,-0.266675 0.39994,-0.600008 0.4,-1 -6e-5,-0.266674 -0.0667,-0.500007 -0.2,-0.7 l -1.4,-2.5 2.8,0 c 0.99994,-4e-6 1.49994,-0.46667 1.5,-1.4 -6e-5,-0.933335 -0.50006,-1.400001 -1.5,-1.4 l -2.8,0 1.4,-2.4 c 0.19994,-0.266665 0.29994,-0.566665 0.3,-0.9 -6e-5,-0.333331 -0.16673,-0.633331 -0.5,-0.9 -0.26672,-0.266663 -0.60006,-0.399997 -1,-0.4 -0.46672,3e-6 -0.86672,0.233337 -1.2,0.7 l -1.4,2.5 -1.4,-2.5 c -0.33339,-0.466663 -0.73339,-0.699997 -1.2,-0.7 -0.40005,3e-6 -0.76672,0.133337 -1.1,0.4 -0.26672,0.266669 -0.40005,0.600002 -0.4,1 -5e-5,0.266668 0.1,0.533335 0.3,0.8 l 1.4,2.4 -2.8,0 c -1.00005,-1e-6 -1.50005,0.466665 -1.5,1.4 -5e-5,0.93333 0.49995,1.399996 1.5,1.4 l 2.8,0 -1.4,2.5 c -0.20005,0.26666 -0.30005,0.533326 -0.3,0.8 -5e-5,0.333326 0.13328,0.633325 0.4,0.9 0.33328,0.266658 0.69995,0.399991 1.1,0.4 0.46661,-9e-6 0.86661,-0.233342 1.2,-0.7 l 1.4,-2.5 1.4,2.5 c 0.33328,0.466658 0.73328,0.699991 1.2,0.7 m -4.3,-7.7 c 0.46661,-0.4 0.99995,-0.6 1.6,-0.6 0.66661,0 1.23328,0.2 1.7,0.6 0.46661,0.466665 0.69994,1.033331 0.7,1.7 -6e-5,0.666663 -0.23339,1.199996 -0.7,1.6 -0.40006,0.466662 -0.93339,0.699995 -1.6,0.7 -0.66672,-5e-6 -1.23339,-0.233338 -1.7,-0.7 -0.40005,-0.46667 -0.60005,-1.000003 -0.6,-1.6 -5e-5,-0.666669 0.19995,-1.233335 0.6,-1.7 m 1.7,3.2 c 0.39994,-4e-6 0.73328,-0.166671 1,-0.5 0.33328,-0.26667 0.49994,-0.600003 0.5,-1 -6e-5,-0.400002 -0.16672,-0.766668 -0.5,-1.1 -0.26672,-0.266668 -0.63339,-0.400001 -1.1,-0.4 -0.40005,-10e-7 -0.73339,0.133332 -1,0.4 -0.26672,0.333332 -0.40005,0.699998 -0.4,1.1 -5e-5,0.466664 0.13328,0.83333 0.4,1.1 0.33328,0.266663 0.69995,0.399996 1.1,0.4 m 0.8,-1.5 c -6e-5,0.53333 -0.26672,0.799997 -0.8,0.8 -0.53339,-3e-6 -0.80005,-0.26667 -0.8,-0.8 -5e-5,-0.466669 0.26661,-0.700002 0.8,-0.7 0.53328,-2e-6 0.79994,0.233331 0.8,0.7 m -19.4,-24.3 c -4e-5,3.000019 -1.03337,5.53335 -3.1,7.6 -2.0667,2.000012 -4.5667,3.000011 -7.5,3 -3.00002,1.1e-5 -5.53335,-1.033321 -7.6,-3.1 -2.00002,-2.06665 -3.00002,-4.566648 -3,-7.5 -2e-5,-2.933309 1.03332,-5.433306 3.1,-7.5 2.06665,-2.066635 4.56664,-3.099968 7.5,-3.1 2.99997,3.2e-5 5.49997,1.033365 7.5,3.1 2.06663,2.066694 3.09996,4.566691 3.1,7.5 m -0.8,0 c -4e-5,-2.733309 -0.9667,-5.033307 -2.9,-6.9 -1.8667,-1.933303 -4.1667,-2.899968 -6.9,-2.9 -2.73336,3.2e-5 -5.06669,0.966697 -7,2.9 -1.86668,1.866693 -2.80002,4.166691 -2.8,6.9 -2e-5,2.800019 0.93332,5.13335 2.8,7 1.93331,1.86668 4.26664,2.800012 7,2.8 2.79997,1.2e-5 5.1333,-0.93332 7,-2.8 1.86663,-1.933317 2.79996,-4.266648 2.8,-7 m -9.8,-8.7 c 2.46664,3e-5 4.5333,0.866696 6.2,2.6 1.66663,1.733359 2.49997,3.766691 2.5,6.1 -3e-5,2.466686 -0.8667,4.533351 -2.6,6.2 -1.6667,1.666681 -3.70003,2.500013 -6.1,2.5 -2.46669,1.3e-5 -4.53335,-0.833319 -6.2,-2.5 -1.66668,-1.733316 -2.50002,-3.799981 -2.5,-6.2 -2e-5,-2.466642 0.83332,-4.533307 2.5,-6.2 1.73331,-1.666637 3.79998,-2.49997 6.2,-2.5 m -5.6,14.4 c 1.53331,1.466681 3.39998,2.200014 5.6,2.2 2.19997,1.4e-5 4.06664,-0.733319 5.6,-2.2 1.5333,-1.533316 2.29997,-3.433314 2.3,-5.7 -3e-5,-2.199976 -0.7667,-4.066641 -2.3,-5.6 -1.53336,-1.533304 -3.40003,-2.29997 -5.6,-2.3 -2.26669,3e-5 -4.16669,0.766696 -5.7,2.3 -1.46669,1.533359 -2.20002,3.400024 -2.2,5.6 -2e-5,2.266686 0.76665,4.166684 2.3,5.7 m 10.8,-7.8 c 0.66664,2.4e-5 1.19997,0.200024 1.6,0.6 0.46663,0.400023 0.69997,0.933356 0.7,1.6 -3e-5,0.600021 -0.20003,1.100021 -0.6,1.5 -0.40003,0.40002 -0.9667,0.60002 -1.7,0.6 l -1.4,0 c 0.66664,1.200018 0.99997,2.000018 1,2.4 -3e-5,0.600017 -0.23336,1.133349 -0.7,1.6 -0.40003,0.400015 -0.90003,0.600015 -1.5,0.6 -0.20003,1.5e-5 -0.40003,1.5e-5 -0.6,0 -0.13336,-0.06665 -0.30003,-0.133318 -0.5,-0.2 -0.13336,-0.133318 -0.26669,-0.233318 -0.4,-0.3 -0.0667,-0.133318 -0.16669,-0.299984 -0.3,-0.5 -0.13336,-0.199984 -0.23336,-0.333317 -0.3,-0.4 -0.0667,-0.133317 -0.16669,-0.299983 -0.3,-0.5 -0.0667,-0.26665 -0.13336,-0.433316 -0.2,-0.5 -0.66669,1.13335 -1.16669,1.800016 -1.5,2 -0.26669,0.266682 -0.63336,0.400015 -1.1,0.4 -0.60002,1.5e-5 -1.13336,-0.199985 -1.6,-0.6 -0.46669,-0.466651 -0.70002,-0.96665 -0.7,-1.5 -2e-5,-0.399983 0.36665,-1.233315 1.1,-2.5 l -1.4,0 c -0.66669,2e-5 -1.23335,-0.19998 -1.7,-0.6 -0.40002,-0.466646 -0.60002,-0.999979 -0.6,-1.6 -2e-5,-0.666644 0.19998,-1.166644 0.6,-1.5 0.39998,-0.399976 0.96665,-0.599976 1.7,-0.6 l 1.4,0 c -0.66669,-1.266642 -1.00002,-2.099974 -1,-2.5 -2e-5,-0.599973 0.19998,-1.099973 0.6,-1.5 0.46664,-0.466638 0.99998,-0.699971 1.6,-0.7 0.26664,2.9e-5 0.49998,0.0667 0.7,0.2 0.19998,0.06669 0.33331,0.133362 0.4,0.2 0.13331,0.06669 0.26664,0.233361 0.4,0.5 0.19998,0.200027 0.33331,0.333361 0.4,0.4 0.0666,0.06669 0.16664,0.266694 0.3,0.6 0.19997,0.33336 0.33331,0.533359 0.4,0.6 0.66664,-1.199973 1.16664,-1.899972 1.5,-2.1 0.26664,-0.199972 0.63331,-0.299972 1.1,-0.3 0.59997,2.8e-5 1.1333,0.200028 1.6,0.6 0.46664,0.400027 0.69997,0.900027 0.7,1.5 -3e-5,0.333359 -0.3667,1.166692 -1.1,2.5 l 1.4,0 m -2.6,8.1 c 0.39997,1.6e-5 0.7333,-0.133317 1,-0.4 0.26664,-0.26665 0.39997,-0.599983 0.4,-1 -3e-5,-0.266649 -0.0667,-0.499982 -0.2,-0.7 l -1.4,-2.5 2.8,0 c 0.99997,2e-5 1.49997,-0.466646 1.5,-1.4 -3e-5,-0.933311 -0.50003,-1.399977 -1.5,-1.4 l -2.8,0 1.4,-2.4 c 0.19997,-0.266641 0.29997,-0.566641 0.3,-0.9 -3e-5,-0.333307 -0.1667,-0.633306 -0.5,-0.9 -0.2667,-0.266639 -0.60003,-0.399972 -1,-0.4 -0.46669,2.8e-5 -0.86669,0.233361 -1.2,0.7 l -1.4,2.5 -1.4,-2.5 c -0.33336,-0.466639 -0.73336,-0.699972 -1.2,-0.7 -0.40002,2.8e-5 -0.76669,0.133361 -1.1,0.4 -0.26669,0.266694 -0.40002,0.600027 -0.4,1 -2e-5,0.266693 0.1,0.533359 0.3,0.8 l 1.4,2.4 -2.8,0 c -1.00002,2.3e-5 -1.50002,0.466689 -1.5,1.4 -2e-5,0.933354 0.49998,1.40002 1.5,1.4 l 2.8,0 -1.4,2.5 c -0.20002,0.266684 -0.30002,0.533351 -0.3,0.8 -2e-5,0.33335 0.13331,0.63335 0.4,0.9 0.33331,0.266683 0.69998,0.400016 1.1,0.4 0.46664,1.6e-5 0.86664,-0.233317 1.2,-0.7 l 1.4,-2.5 1.4,2.5 c 0.33331,0.466683 0.73331,0.700016 1.2,0.7 m -4.3,-7.6 c 0.46664,-0.466643 0.99997,-0.699976 1.6,-0.7 0.66664,2.4e-5 1.23331,0.233357 1.7,0.7 0.46664,0.400023 0.69997,0.933356 0.7,1.6 -3e-5,0.666688 -0.23336,1.233354 -0.7,1.7 -0.40003,0.40002 -0.93336,0.600019 -1.6,0.6 -0.66669,1.9e-5 -1.23336,-0.233314 -1.7,-0.7 -0.40002,-0.466646 -0.60002,-0.999979 -0.6,-1.6 -2e-5,-0.666644 0.19998,-1.199977 0.6,-1.6 m 1.7,3.1 c 0.39997,2e-5 0.73331,-0.133313 1,-0.4 0.33331,-0.333312 0.49997,-0.699979 0.5,-1.1 -3e-5,-0.399978 -0.16669,-0.733311 -0.5,-1 -0.26669,-0.33331 -0.63336,-0.499977 -1.1,-0.5 -0.40003,2.3e-5 -0.73336,0.16669 -1,0.5 -0.26669,0.266689 -0.40002,0.600022 -0.4,1 -2e-5,0.466688 0.13331,0.833354 0.4,1.1 0.33331,0.266687 0.69997,0.40002 1.1,0.4 m 0.8,-1.5 c -3e-5,0.533355 -0.26669,0.800021 -0.8,0.8 -0.53336,2.1e-5 -0.80002,-0.266645 -0.8,-0.8 -2e-5,-0.466644 0.26664,-0.699978 0.8,-0.7 0.53331,2.2e-5 0.79997,0.233356 0.8,0.7"
         sodipodi:nodetypes="ccscsssccccssscscccsscscscccscssscscccssccscsssssssccscsccsscccssscscscccssscccsscccscccscscccscscccscccscscccccscscscscccssscscccssscccscsssccccssscscccsscscscccscssscscccssccssscccsscccscscccscccssscscscccssscccsscccscccscscccscscccscccscscccccscssscsccsscscscccssscccscsssccccssscscccsscscscccscssscscccssccscsssssssccscsccsscccssscscscccssscccsscccscccscscccscscccscccscscccccscscscscccssscscccssscccscsssccccssscscccsscscscccscssscscccssccssscccsscccscscccscccssscscscccssscccsscccscccscscccscscccscccscscccccscssscsccsscscscccsssc"
         style="fill:#9c0000;fill-opacity:1" />
    </g>
    <g
       transform="translate(547.91428,380.27646)"
       style="font-size:100px;font-style:normal;font-variant:normal;font-weight:normal;font-stretch:normal;fill:#000000;fill-opacity:1;stroke:none;font-family:Droid Serif;-inkscape-font-specification:Droid Serif"
       id="g3382">
      <path
         d="m 104.6,71.642855 c -8e-5,4.799983 -2.26674,7.199981 -6.8,7.2 l -61.1,0 c -4.533338,-1.9e-5 -6.800002,-2.400017 -6.8,-7.2 l 0,-80.6999999 c -2e-6,-4.7999261 2.266662,-7.1999241 6.8,-7.2000001 l 61.1,0 c 4.53326,7.6e-5 6.79992,2.400074 6.8,7.2000001 l 0,80.6999999 m -1.7,0 0,-80.6999999 c -8e-5,-3.6665941 -1.70007,-5.4999261 -5.1,-5.5000001 l -61.1,0 c -3.400006,7.4e-5 -5.100004,1.833406 -5.1,5.5000001 l 0,80.6999999 c -4e-6,3.733318 1.699994,5.599983 5.1,5.6 l 61.1,0 c 3.39993,-1.7e-5 5.09992,-1.866682 5.1,-5.6"
         id="path3384"
         sodipodi:nodetypes="cccccccccccccccccc" />
    </g>
  </g>
</svg>
