<?xml version="1.0" encoding="UTF-8" standalone="no"?>
<!-- Created with Inkscape (http://www.inkscape.org/) -->

<svg
   xmlns:dc="http://purl.org/dc/elements/1.1/"
   xmlns:cc="http://creativecommons.org/ns#"
   xmlns:rdf="http://www.w3.org/1999/02/22-rdf-syntax-ns#"
   xmlns:svg="http://www.w3.org/2000/svg"
   xmlns="http://www.w3.org/2000/svg"
   xmlns:sodipodi="http://sodipodi.sourceforge.net/DTD/sodipodi-0.dtd"
   xmlns:inkscape="http://www.inkscape.org/namespaces/inkscape"
   width="74.699997"
   height="95.099998"
   id="svg2"
   version="1.1"
   inkscape:version="0.47 r22583"
   sodipodi:docname="绘图-1.svg">
  <defs
     id="defs4" />
  <sodipodi:namedview
     id="base"
     pagecolor="#ffffff"
     bordercolor="#666666"
     borderopacity="1.0"
     inkscape:pageopacity="0.0"
     inkscape:pageshadow="2"
     inkscape:zoom="3.0756858"
     inkscape:cx="112.42753"
     inkscape:cy="100.51259"
     inkscape:document-units="px"
     inkscape:current-layer="layer1"
     showgrid="false"
     inkscape:window-width="1440"
     inkscape:window-height="851"
     inkscape:window-x="0"
     inkscape:window-y="25"
     inkscape:window-maximized="1" />
  <metadata
     id="metadata7">
    <rdf:RDF>
      <cc:Work
         rdf:about="">
        <dc:format>image/svg+xml</dc:format>
        <dc:type
           rdf:resource="http://purl.org/dc/dcmitype/StillImage" />
        <dc:title></dc:title>
      </cc:Work>
    </rdf:RDF>
  </metadata>
  <g
     inkscape:label="Layer 1"
     inkscape:groupmode="layer"
     id="layer1"
     transform="translate(-415.68876,-472.4867)">
    <path
       style="fill:#ffffff;fill-opacity:1;fill-rule:nonzero;stroke:none"
       d="m 420.07233,565.2029 c -2.60616,-1.29005 -2.41481,2.27952 -2.41481,-45.04635 0,-46.35029 -0.11845,-43.70159 2.0125,-45.0008 1.06043,-0.64653 1.55149,-0.65617 33.42675,-0.65617 31.27964,0 32.38425,0.0206 33.36978,0.62153 2.20908,1.34702 2.09679,-1.21726 1.99688,45.60212 -0.0898,42.06196 -0.0916,42.16412 -0.76335,43.07982 -0.37035,0.50484 -1.17505,1.1737 -1.78822,1.48636 -1.0388,0.52969 -3.27724,0.56849 -32.81509,0.56872 -31.13,2.5e-4 -31.72406,-0.0115 -33.02444,-0.65523 l 0,0 z"
       id="path4161" />
    <g
       id="g4149"
       style="font-size:100px;font-style:normal;font-variant:normal;font-weight:normal;font-stretch:normal;fill:#10106c;fill-opacity:1;stroke:none;font-family:Droid Serif;-inkscape-font-specification:Droid Serif"
       transform="translate(542.53253,411.57719)">
      <path
         id="path4151"
         d="m -102.80204,69.441865 c 0.13331,0.06673 0.29998,0.100067 0.5,0.1 0.39998,6.7e-5 1.09998,-0.0666 2.1,-0.2 0.999973,-0.199932 1.599973,-0.299932 1.800004,-0.3 0.866634,6.8e-5 1.6333,0.300068 2.3,0.9 0.06663,0.266733 0.0333,0.566733 -0.1,0.9 l -7.000004,0 -2.8,3.2 c 0.19998,-0.466603 0.39998,-1.466602 0.6,-3 -1.60002,0.200066 -3.16668,0.333399 -4.7,0.4 -0.13335,0.400065 -0.30001,0.966731 -0.5,1.7 -0.66668,-0.599936 -1.13335,-1.099935 -1.4,-1.5 -0.26668,6.5e-5 -1.13335,0.166732 -2.6,0.5 -1.40001,0.333398 -2.23334,0.500064 -2.5,0.5 -0.60001,6.4e-5 -1.30001,-0.399935 -2.1,-1.2 1.53333,-0.133268 3.83332,-0.466601 6.9,-1 l -1.7,-2.9 1.6,0 c 0.66665,0.133403 1.09999,0.400069 1.3,0.8 0.26665,0.333402 0.46665,0.966734 0.6,1.9 0.39998,0.200067 0.69998,0.300066 0.9,0.3 0.26665,6.6e-5 1.79998,-0.1666 4.6,-0.5 l 0.3,-0.3 c 0.0666,-0.866599 0.19998,-2.266597 0.4,-4.2 l 1.1,0 c 0.19998,7.1e-5 0.49998,0.200071 0.9,0.6 0.46664,0.333404 0.69998,0.633404 0.7,0.9 -2e-5,0.20007 -0.40002,1.000069 -1.2,2.4 m -1.2,9.899999 c -1.00002,0.533391 -2.50002,1.266724 -4.5,2.2 1.53332,-2.333275 2.43331,-3.499941 2.7,-3.5 0.33331,5.9e-5 0.93331,0.433392 1.8,1.3 m -7.1,-2 c -0.20001,6e-5 -0.63335,-0.09994 -1.3,-0.3 -0.66668,-0.199939 -1.03335,-0.299939 -1.1,-0.3 -0.26668,6.1e-5 -1.56668,0.866727 -3.9,2.6 1.39999,-1.79994 2.66666,-3.633272 3.8,-5.499999 0.46665,0.133396 1.06665,0.366729 1.8,0.699999 -0.20001,0.466729 -0.50001,0.966729 -0.9,1.5 0.13332,0.06673 0.56665,0.100061 1.3,0.1 0.13332,6.1e-5 1.79998,-0.266605 5,-0.8 3.26664,-0.533271 4.93331,-0.799937 5,-0.8 0.59998,6.3e-5 1.36664,0.233396 2.300004,0.7 0.999968,0.400062 1.499968,0.866728 1.5,1.4 -3.2e-5,0.06673 -0.133365,0.366727 -0.4,0.9 -0.200032,0.466726 -0.300031,0.766726 -0.3,0.9 l 0,12.3 c -3.1e-5,0.466713 -0.400031,1.366712 -1.2,2.7 -0.733364,1.333376 -1.433364,2.000042 -2.100004,2 -0.33336,4.2e-5 -1.40002,-1.299957 -3.2,-3.9 0.73331,0.200046 1.46664,0.300046 2.2,0.3 1.73331,4.6e-5 2.59997,-2.966618 2.6,-8.9 -3e-5,-4.533274 -0.80002,-6.799939 -2.4,-6.8 l -8.7,1.2 m 3.5,8.4 c 0.26665,5.2e-5 0.59998,0.06672 1,0.2 0.46665,0.133385 0.96665,0.500051 1.5,1.1 0.59998,0.533383 0.89998,1.233383 0.9,2.1 -0.20002,0.266715 -0.40002,0.400048 -0.6,0.4 -0.73335,4.8e-5 -2.23335,-1.266617 -4.5,-3.8 l 1.7,0 m -5.7,-3.3 c -0.86668,5.5e-5 -1.50001,-0.166611 -1.9,-0.5 -0.40001,-0.399944 -0.86668,-1.133277 -1.4,-2.2 2.19999,5.8e-5 3.29999,0.900057 3.3,2.7 m 3.8,0.4 c 0.26665,5.5e-5 0.99998,-0.06661 2.2,-0.2 l 1.8,-0.3 c 0.86665,5.5e-5 1.66665,0.166722 2.4,0.5 -2e-5,0.333388 -0.20002,0.666721 -0.6,1 l -5.9,0.3 -0.3,7.8 c -2e-5,0.333379 -0.30002,0.766711 -0.9,1.3 -0.66668,-0.333289 -1.00001,-0.933288 -1,-1.8 -10e-6,-0.46662 0.1,-1.033286 0.3,-1.7 0.19999,-0.666618 0.29999,-1.033285 0.3,-1.1 l 0,-3.1 c -0.40001,0.333385 -1.00001,0.866718 -1.8,1.6 -0.73334,0.666716 -1.26668,1.133383 -1.6,1.4 -0.26668,0.200049 -0.70001,0.533382 -1.3,1 -0.53334,0.400048 -0.96668,0.700047 -1.3,0.9 -0.33334,0.13338 -0.73334,0.266713 -1.2,0.4 -0.40001,0.13338 -0.83334,0.200046 -1.3,0.2 4.79999,-3.666617 7.46665,-5.866614 8,-6.6 -0.60001,5.3e-5 -1.70001,0.133386 -3.3,0.4 -1.53334,0.266719 -2.53334,0.400052 -3,0.4 -0.66667,5.2e-5 -1.53334,-0.333281 -2.6,-1 3.13333,-0.13328 6.26666,-0.499946 9.4,-1.1 -1e-5,-1.333278 -0.23335,-2.933276 -0.7,-4.8 0.26665,-0.133274 0.49999,-0.199941 0.7,-0.2 0.46665,5.9e-5 1.06665,0.233392 1.8,0.7 l -0.1,4"
         sodipodi:nodetypes="cscscccccccccsccccccscccccscccsccssccccscscsccccscsscccsccsccccccccccccccssccssscscccscccscc"
         style="fill:#10106c;fill-opacity:1" />
    </g>
    <g
       transform="translate(391.83013,475.82072)"
       style="font-size:100px;font-style:normal;font-variant:normal;font-weight:normal;font-stretch:normal;fill:#000000;fill-opacity:1;stroke:none;font-family:Droid Serif;-inkscape-font-specification:Droid Serif"
       id="g4153">
      <path
         d="m 98.55863,84.565977 c -7.7e-5,4.799984 -2.266742,7.199981 -6.8,7.2 l -61.1,0 c -4.533338,-1.9e-5 -6.800003,-2.400016 -6.8,-7.2 l 0,-80.6999995 c -3e-6,-4.79992642 2.266662,-7.199924 6.8,-7.2 l 61.1,0 c 4.533258,7.6e-5 6.799923,2.40007358 6.8,7.2 l 0,80.6999995 m -1.7,0 0,-80.6999995 c -7.6e-5,-3.66659422 -1.700074,-5.4999257 -5.1,-5.5 l -61.1,0 c -3.400006,7.43e-5 -5.100004,1.83340578 -5.1,5.5 l 0,80.6999995 c -4e-6,3.733318 1.699994,5.599983 5.1,5.6 l 61.1,0 c 3.399926,-1.7e-5 5.099924,-1.866682 5.1,-5.6"
         id="path4155"
         sodipodi:nodetypes="cccccccccccccccccc" />
    </g>
    <g
       id="g4157"
       style="font-size:100px;font-style:normal;font-variant:normal;font-weight:normal;font-stretch:normal;fill:#9c0000;fill-opacity:1;stroke:none;font-family:Droid Serif;-inkscape-font-specification:Droid Serif"
       transform="translate(479.25858,490.18061)">
      <path
         id="path4159"
         d="m -10.70154,25.260224 c 1.1999426,3.4e-5 2.2999416,0.500033 3.2999996,1.5 1.066607,1.000031 1.599939,2.133363 1.6,3.4 -6.1e-5,1.133361 -0.533393,2.066693 -1.6,2.8 l -15.7999996,10.4 -0.7,-0.7 10.4,-15.8 c 0.73328,-1.066634 1.666612,-1.599966 2.8,-1.6 m -7.4,-4.7 c 1.266617,3.8e-5 2.399949,0.433371 3.4,1.3 1.066614,0.800036 1.599947,1.766702 1.6,2.9 -5.3e-5,0.6667 -0.200053,1.300033 -0.6,1.9 l -10.6,15.7 -0.9,-0.4 3.5,-18.6 c 0.466622,-1.866629 1.66662,-2.799962 3.6,-2.8 m 12.7999996,12 c 1.133271,2.6e-5 2.099937,0.533359 2.9,1.6 0.866602,1.000024 1.299935,2.133356 1.3,3.4 -6.5e-5,1.933353 -0.933398,3.133351 -2.8,3.6 l -18.5999996,3.5 -0.4,-0.9 15.6999996,-10.6 c 0.59994,-0.399974 1.233273,-0.599974 1.9,-0.6 m -16.5999996,-10.1 c -4.4e-5,0.266703 -0.03338,0.533369 -0.1,0.8 l -3.8,18.6 -0.9,0 -3.9,-18.6 0,-0.8 c -3.6e-5,-2.333295 1.433296,-3.49996 4.3,-3.5 2.93329,4e-5 4.399956,1.166705 4.4,3.5 m 22.39999964,23.3 c -6.7e-5,2.866677 -1.166732,4.300009 -3.50000004,4.3 l -0.8,0 -18.5999996,-3.9 0,-0.9 18.5999996,-3.8 c 0.266604,-0.06665 0.53327,-0.09998 0.8,-0.1 2.33326804,1.7e-5 3.49993304,1.466683 3.50000004,4.4 m -39.89999964,-21 c -2.7e-5,-1.133298 0.499973,-2.099964 1.5,-2.9 1.066637,-0.866629 2.233303,-1.299962 3.5,-1.3 1.999966,3.8e-5 3.199965,0.933371 3.6,2.8 l 3.5,18.6 -0.9,0.4 -10.6,-15.7 c -0.400027,-0.599967 -0.600027,-1.2333 -0.6,-1.9 m 38.2999996,29.1 c -6.5e-5,1.26667 -0.433398,2.433336 -1.3,3.5 -0.800063,1 -1.766729,1.5 -2.9,1.5 -0.666727,0 -1.30006,-0.2 -1.9,-0.6 l -15.6999996,-10.6 0.4,-0.9 18.5999996,3.5 c 1.866602,0.400008 2.799935,1.600007 2.8,3.6 m -21.8999996,-8.1 c -4.3e-5,2.133344 -1.100042,3.20001 -3.3,3.2 -2.133371,1e-5 -3.200037,-1.066656 -3.2,-3.2 -3.7e-5,-2.199985 1.066629,-3.299984 3.2,-3.3 2.199958,1.6e-5 3.299957,1.100015 3.3,3.3 m -23.7,-15.6 c -2e-5,-1.19997 0.49998,-2.299969 1.5,-3.3 0.999978,-1.066634 2.13331,-1.599966 3.4,-1.6 1.133308,3.4e-5 2.06664,0.533366 2.8,1.6 l 10.4,15.8 -0.7,0.7 -15.9,-10.4 c -1.00002,-0.733307 -1.50002,-1.666639 -1.5,-2.8 m 40.8999996,31.1 c -6.1e-5,1.199996 -0.50006,2.299995 -1.5,3.3 -1.000058,1.06666 -2.13339,1.599993 -3.3999996,1.6 -1.133388,-7e-6 -2.06672,-0.53334 -2.8,-1.6 l -10.4,-15.8 0.7,-0.7 15.7999996,10.4 c 1.066607,0.733333 1.599939,1.666665 1.6,2.8 m -7.2999996,5.4 c -5.3e-5,1.133324 -0.533386,2.09999 -1.6,2.9 -1.000051,0.866655 -2.133383,1.299988 -3.4,1.3 -2.000046,-1.2e-5 -3.200045,-0.933344 -3.6,-2.8 l -3.5,-18.6 0.9,-0.4 10.6,15.7 c 0.399947,0.599993 0.599947,1.233326 0.6,1.9 m -38.3,-29.1 c -1.5e-5,-1.266644 0.399985,-2.399976 1.2,-3.4 0.86665,-1.066641 1.866649,-1.599974 3,-1.6 0.666647,2.6e-5 1.29998,0.200026 1.9,0.6 l 15.7,10.6 -0.4,0.9 -18.6,-3.5 c -1.866683,-0.399982 -2.800015,-1.599981 -2.8,-3.6 m 21.3,8.6 -18.6,3.9 -0.8,0 c -2.333348,9e-6 -3.500013,-1.433323 -3.5,-4.3 -1.3e-5,-2.933317 1.166652,-4.399983 3.5,-4.4 0.199983,1.7e-5 0.466649,0.03335 0.8,0.1 l 18.6,3.8 0,0.9 m 8.2,22.8 c -4.4e-5,2.333321 -1.46671,3.499986 -4.4,3.5 -2.866704,-1.4e-5 -4.300036,-1.166679 -4.3,-3.5 l 0,-0.8 3.9,-18.6 0.9,0 3.8,18.6 c 0.06662,0.333324 0.09996,0.59999 0.1,0.8 m -12.5,1.9 c -1.266697,-1.2e-5 -2.433363,-0.433345 -3.5,-1.3 -1.000027,-0.80001 -1.500027,-1.766676 -1.5,-2.9 -2.7e-5,-0.666674 0.199973,-1.300007 0.6,-1.9 l 10.6,-15.7 0.9,0.4 -3.5,18.6 c -0.400035,1.866656 -1.600034,2.799988 -3.6,2.8 m -12.8,-12 c -1.133351,0 -2.13335,-0.5 -3,-1.5 -0.800015,-1.066664 -1.200015,-2.23333 -1.2,-3.5 -1.5e-5,-1.999993 0.933317,-3.199992 2.8,-3.6 l 18.6,-3.5 0.4,0.9 -15.7,10.6 c -0.60002,0.4 -1.233353,0.6 -1.9,0.6 m 5.4,7.3 c -1.200023,-7e-6 -2.333356,-0.500007 -3.4,-1.5 -1.00002,-1.000005 -1.50002,-2.133337 -1.5,-3.4 -2e-5,-1.133335 0.49998,-2.066667 1.5,-2.8 l 15.9,-10.4 0.7,0.7 -10.4,15.8 c -0.73336,1.06666 -1.666692,1.599993 -2.8,1.6 m 35.4999996,-36 c -6e-5,-1.066637 -0.466726,-2.066636 -1.4,-3 -0.933391,-0.933301 -1.93339,-1.399967 -2.9999996,-1.4 -0.933388,3.3e-5 -1.700054,0.466699 -2.3,1.4 l -10.5,15.8 15.7999996,-10.5 c 0.933274,-0.599973 1.39994,-1.366639 1.4,-2.3 m 4.7,7.4 c -6.5e-5,-1.133311 -0.366731,-2.166643 -1.1,-3.1 -0.733396,-0.933308 -1.600062,-1.399974 -2.6,-1.4 -0.466727,2.6e-5 -1.00006,0.166692 -1.6,0.5 l -15.6999996,10.6 18.5999996,-3.5 c 1.599936,-0.333315 2.399935,-1.366647 2.4,-3.1 m -11.9999996,-12.8 c -5.3e-5,-1.066632 -0.466719,-1.933297 -1.4,-2.6 -0.933384,-0.733296 -1.966716,-1.099962 -3.1,-1.1 -1.73338,3.8e-5 -2.766712,0.800037 -3.1,2.4 l -3.5,18.6 10.6,-15.7 c 0.333281,-0.599967 0.499947,-1.1333 0.5,-1.6 m -8.7,-2.3 c -4.4e-5,-1.999962 -1.333376,-2.999961 -4,-3 -2.600037,3.9e-5 -3.900036,1.000038 -3.9,3 -3.6e-5,0.200036 0.0333,0.433369 0.1,0.7 l 3.8,18.6 3.9,-18.6 c 0.06662,-0.266631 0.09996,-0.499964 0.1,-0.7 m 22.29999964,23.3 c -6.6e-5,-2.666651 -1.00006504,-3.999983 -3.00000004,-4 -0.200063,1.7e-5 -0.433396,0.03335 -0.7,0.1 l -18.5999996,3.9 18.5999996,3.8 c 0.266604,0.06668 0.499937,0.100009 0.7,0.1 1.999935,9e-6 2.99993404,-1.29999 3.00000004,-3.9 m -34.39999964,-24.7 c -1.133364,3.8e-5 -2.166696,0.366704 -3.1,1.1 -0.933361,0.733369 -1.400027,1.600035 -1.4,2.6 -2.7e-5,0.4667 0.166639,1.000033 0.5,1.6 l 10.6,15.7 -3.5,-18.6 c -0.333368,-1.599963 -1.3667,-2.399962 -3.1,-2.4 m 29.0999996,37.3 c 1.066605,0 1.93327,-0.466666 2.6,-1.4 0.733269,-0.933331 1.099935,-1.966663 1.1,-3.1 -6.5e-5,-1.733327 -0.800064,-2.766659 -2.4,-3.1 l -18.5999996,-3.5 15.6999996,10.6 c 0.59994,0.333334 1.133273,0.5 1.6,0.5 m -36.4999996,-32.6 c -1.06669,3.3e-5 -2.066689,0.466699 -3,1.4 -0.933354,0.933364 -1.40002,1.933363 -1.4,3 -2e-5,0.933361 0.433313,1.700027 1.3,2.3 l 15.9,10.5 -10.5,-15.8 c -0.600026,-0.933301 -1.366692,-1.399967 -2.3,-1.4 m 18.3,20 c -4.3e-5,-1.866652 -0.933375,-2.799984 -2.8,-2.8 -1.800038,1.6e-5 -2.700037,0.933348 -2.7,2.8 -3.7e-5,1.800011 0.899962,2.70001 2.7,2.7 1.866625,1e-5 2.799957,-0.899989 2.8,-2.7 m 12.8,19.9 c 1.0666096,-7e-6 2.0666086,-0.466673 2.9999996,-1.4 0.933274,-0.933338 1.39994,-1.933337 1.4,-3 -6e-5,-0.933335 -0.466726,-1.700001 -1.4,-2.3 l -15.7999996,-10.5 10.5,15.9 c 0.599946,0.86666 1.366612,1.299993 2.3,1.3 m -7.4,4.7 c 1.133284,-1.2e-5 2.166616,-0.366678 3.1,-1.1 0.933281,-0.733343 1.399947,-1.600009 1.4,-2.6 -5.3e-5,-0.466674 -0.166719,-1.000007 -0.5,-1.6 l -10.6,-15.7 3.5,18.6 c 0.333288,1.599989 1.36662,2.399988 3.1,2.4 m -29.1,-37.3 c -1.066685,2.6e-5 -1.966684,0.466692 -2.7,1.4 -0.666682,0.933357 -1.000015,1.966689 -1,3.1 -1.5e-5,1.733353 0.799984,2.766685 2.4,3.1 l 18.6,3.5 -15.7,-10.6 c -0.60002,-0.333308 -1.133353,-0.499974 -1.6,-0.5 m 17,12.7 -18.6,-3.9 c -0.333351,-0.06665 -0.566684,-0.09998 -0.7,-0.1 -2.000015,1.7e-5 -3.000014,1.333349 -3,4 -1.4e-5,2.60001 0.999985,3.900009 3,3.9 0.133316,9e-6 0.366649,-0.03332 0.7,-0.1 l 18.6,-3.8 m 7.9,23.2 c -4.4e-5,-0.133343 -0.03338,-0.366676 -0.1,-0.7 l -3.9,-18.6 -3.8,18.6 c -0.0667,0.333324 -0.100036,0.566657 -0.1,0.7 -3.6e-5,1.999988 1.299963,2.999987 3.9,3 2.666624,-1.3e-5 3.999956,-1.000012 4,-3 m -16.6,-2.3 c -2.7e-5,1.066658 0.466639,1.933324 1.4,2.6 0.933304,0.733322 1.966636,1.099988 3.1,1.1 1.7333,-1.2e-5 2.766632,-0.800011 3.1,-2.4 l 3.5,-18.6 -10.6,15.7 c -0.333361,0.599993 -0.500027,1.133326 -0.5,1.6 m -12,-12.8 c -1.5e-5,1.133337 0.366651,2.166669 1.1,3.1 0.733316,0.933334 1.599982,1.4 2.6,1.4 0.466647,0 0.99998,-0.166666 1.6,-0.5 l 15.7,-10.6 -18.6,3.5 c -1.600016,0.333341 -2.400015,1.366673 -2.4,3.1 m 4.7,7.4 c -2e-5,1.066663 0.466646,2.066662 1.4,3 0.933311,0.933327 1.93331,1.399993 3,1.4 0.933308,-7e-6 1.699974,-0.43334 2.3,-1.3 l 10.5,-15.9 -15.9,10.5 c -0.866687,0.599999 -1.30002,1.366665 -1.3,2.3"
         sodipodi:nodetypes="ccscccccccscccccccscccccccccccscccccccscccscccccccsccccccssscccscccccccscccccccscccccccsccccccccssccccsccccccccscccccccscccccccsccccccsscccccssccccccscccccsscccccscccsccssccccccscccccsscccccsssccsscccccssccccccsccccccsssccccccsscccscccccsscccccsscccc"
         style="fill:#9c0000;fill-opacity:1" />
    </g>
  </g>
</svg>
