<?xml version="1.0" encoding="UTF-8" standalone="no"?>
<!-- Created with Inkscape (http://www.inkscape.org/) -->

<svg
   xmlns:dc="http://purl.org/dc/elements/1.1/"
   xmlns:cc="http://creativecommons.org/ns#"
   xmlns:rdf="http://www.w3.org/1999/02/22-rdf-syntax-ns#"
   xmlns:svg="http://www.w3.org/2000/svg"
   xmlns="http://www.w3.org/2000/svg"
   xmlns:sodipodi="http://sodipodi.sourceforge.net/DTD/sodipodi-0.dtd"
   xmlns:inkscape="http://www.inkscape.org/namespaces/inkscape"
   width="74.700012"
   height="95.099998"
   id="svg2"
   version="1.1"
   inkscape:version="0.47 r22583"
   sodipodi:docname="MJ7tiao.svg">
  <defs
     id="defs4" />
  <sodipodi:namedview
     id="base"
     pagecolor="#ffffff"
     bordercolor="#666666"
     borderopacity="1.0"
     inkscape:pageopacity="0.0"
     inkscape:pageshadow="2"
     inkscape:zoom="3.959798"
     inkscape:cx="12.586895"
     inkscape:cy="22.877167"
     inkscape:document-units="px"
     inkscape:current-layer="g3205"
     showgrid="false"
     inkscape:window-width="1440"
     inkscape:window-height="851"
     inkscape:window-x="0"
     inkscape:window-y="25"
     inkscape:window-maximized="1" />
  <metadata
     id="metadata7">
    <rdf:RDF>
      <cc:Work
         rdf:about="">
        <dc:format>image/svg+xml</dc:format>
        <dc:type
           rdf:resource="http://purl.org/dc/dcmitype/StillImage" />
        <dc:title />
      </cc:Work>
    </rdf:RDF>
  </metadata>
  <g
     transform="translate(-699.2002,-459.11001)"
     id="g3205"
     inkscape:groupmode="layer"
     inkscape:label="Layer 1">
    <path
       style="font-size:100px;font-style:normal;font-variant:normal;font-weight:normal;font-stretch:normal;fill:#000000;fill-opacity:1;stroke:none;font-family:Droid Serif;-inkscape-font-specification:Droid Serif"
       d="m 773.90021,547.01001 c -8e-5,4.79998 -2.26675,7.19998 -6.8,7.2 l -61.10001,0 c -4.53333,-2e-5 -6.8,-2.40002 -6.8,-7.2 l 0,-80.7 c 0,-4.79993 2.26667,-7.19993 6.8,-7.2 l 61.10001,0 c 4.53325,7e-5 6.79992,2.40007 6.8,7.2 l 0,80.7 m -1.7,0 0,-80.7 c -8e-5,-3.6666 -1.70008,-5.49993 -5.1,-5.5 l -61.10001,0 c -3.4,7e-5 -5.1,1.8334 -5.09999,5.5 l 0,80.7 c -10e-6,3.73331 1.69999,5.59998 5.09999,5.6 l 61.10001,0 c 3.39992,-2e-5 5.09992,-1.86669 5.1,-5.6"
       id="path3478"
       sodipodi:nodetypes="cccccccccccccccccc" />
    <path
       style="fill:#ffffff;fill-opacity:1;fill-rule:nonzero;stroke:none"
       d="m 704.43789,552.22839 c -1.25445,-0.38351 -2.18411,-1.09733 -2.77751,-2.13265 l -0.59201,-1.0329 0,-42.4264 0,-42.42641 0.59798,-1.04352 c 0.34537,-0.6027 1.03879,-1.29612 1.64149,-1.64149 l 1.04352,-0.59798 32.19861,0 c 35.28135,0 32.88033,-0.10014 34.24118,1.42809 1.30212,1.46229 1.24043,-0.73363 1.24043,44.15504 0,44.77782 0.0494,42.99622 -1.23066,44.40757 -1.3845,1.52653 0.9766,1.42393 -33.87214,1.47196 -17.50089,0.0241 -32.12179,-0.0485 -32.49089,-0.16131 l 0,0 z"
       id="path3989" />
    <path
       style="font-size:100px;font-style:normal;font-variant:normal;font-weight:normal;font-stretch:normal;fill:#9c0000;fill-opacity:1;stroke:none;font-family:Droid Serif;-inkscape-font-specification:Droid Serif"
       sodipodi:nodetypes="cscscscscccccccccccccccccc"
       id="path3480"
       d="m 741.5002,490.01001 c -1.66671,-0.13329 -3.33338,-0.19995 -5,-0.2 -1.66671,5e-5 -3.33337,0.0667 -5,0.2 0.1333,-4.19995 0.19996,-8.39995 0.2,-12.6 -4e-5,-4.19994 -0.0667,-8.39993 -0.2,-12.6 1.66663,0.1334 3.33329,0.20007 5,0.2 1.66662,7e-5 3.33329,-0.0666 5,-0.2 -0.13338,4.20007 -0.20005,8.40006 -0.2,12.6 -5e-5,4.20005 0.0666,8.40005 0.2,12.6 m -2,-23.1 c -1.00004,7e-5 -2.00004,7e-5 -3,0 l -3,0 c 0.0666,1.66673 0.1333,4.2334 0.2,7.7 l 5.6,0 c -4e-5,-0.46661 0.0666,-3.03327 0.2,-7.7 m -0.2,11.5 0,-2 -5.6,0 0,2 5.6,0 m 0.2,9.5 c -0.13338,-4.46661 -0.20004,-7.03328 -0.2,-7.7 l -5.6,0 c -4e-5,0.40005 -0.0667,2.96672 -0.2,7.7 0.99996,-0.0666 1.99996,-0.0999 3,-0.1 l 3,0.1" />
    <path
       d="m 760.84766,548.25747 c -1.66673,-0.13335 -3.3334,-0.20001 -5,-0.2 -1.66673,-10e-6 -3.33339,0.0666 -5,0.2 0.13328,-4.20001 0.19994,-8.4 0.2,-12.6 -6e-5,-4.2 -0.0667,-8.39999 -0.2,-12.6 1.66661,0.13335 3.33327,0.20001 5,0.2 1.6666,10e-6 3.33327,-0.0666 5,-0.2 -0.1334,4.20001 -0.20006,8.4 -0.2,12.6 -6e-5,4.2 0.0666,8.39999 0.2,12.6 m -2,-23.1 c -1.00006,10e-6 -2.00006,10e-6 -3,0 l -3,0 c 0.0666,1.66667 0.13328,4.23334 0.2,7.7 l 5.6,0 c -6e-5,-0.46666 0.0666,-3.03333 0.2,-7.7 m -0.2,11.5 0,-2 -5.6,0 0,2 5.6,0 m 0.2,9.5 c -0.1334,-4.46667 -0.20006,-7.03334 -0.2,-7.7 l -5.6,0 c -6e-5,0.4 -0.0667,2.96666 -0.2,7.7 0.99994,-0.0667 1.99994,-0.10001 3,-0.1 l 3,0.1 m 2,-27.1 c -1.66673,-0.13332 -3.3334,-0.19998 -5,-0.2 -1.66673,2e-5 -3.33339,0.0667 -5,0.2 0.13328,-4.19998 0.19994,-8.39998 0.2,-12.6 -6e-5,-4.19997 -0.0667,-8.39996 -0.2,-12.6 1.66661,0.13337 3.33327,0.20004 5,0.2 1.6666,4e-5 3.33327,-0.0666 5,-0.2 -0.1334,4.20004 -0.20006,8.40003 -0.2,12.6 -6e-5,4.20002 0.0666,8.40002 0.2,12.6 m -2,-23.1 c -1.00006,4e-5 -2.00006,4e-5 -3,0 l -3,0 c 0.0666,1.6667 0.13328,4.23337 0.2,7.7 l 5.6,0 c -6e-5,-0.46663 0.0666,-3.0333 0.2,-7.7 m -0.2,11.5 0,-2 -5.6,0 0,2 5.6,0 m 0.2,9.5 c -0.1334,-4.46664 -0.20006,-7.03331 -0.2,-7.7 l -5.6,0 c -6e-5,0.40003 -0.0667,2.96669 -0.2,7.7 0.99994,-0.0666 1.99994,-0.1 3,-0.1 l 3,0.1 m -37.1,31.3 c -1.66669,-0.13335 -3.33336,-0.20001 -5,-0.2 -1.66669,-10e-6 -3.33335,0.0666 -5,0.2 0.13332,-4.20001 0.19998,-8.4 0.2,-12.6 -2e-5,-4.2 -0.0667,-8.39999 -0.2,-12.6 1.66665,0.13335 3.33331,0.20001 5,0.2 1.66664,10e-6 3.33331,-0.0666 5,-0.2 -0.13336,4.20001 -0.20003,8.4 -0.2,12.6 -3e-5,4.2 0.0666,8.39999 0.2,12.6 m -2,-23.1 c -1.00002,10e-6 -2.00002,10e-6 -3,0 l -3,0 c 0.0667,1.66667 0.13332,4.23334 0.2,7.7 l 5.6,0 c -2e-5,-0.46666 0.0666,-3.03333 0.2,-7.7 m -0.2,11.5 0,-2 -5.6,0 0,2 5.6,0 m 0.2,9.5 c -0.13336,-4.46667 -0.20002,-7.03334 -0.2,-7.7 l -5.6,0 c -2e-5,0.4 -0.0667,2.96666 -0.2,7.7 0.99998,-0.0667 1.99998,-0.10001 3,-0.1 l 3,0.1 m 2,-27.1 c -1.66669,-0.13332 -3.33336,-0.19998 -5,-0.2 -1.66669,2e-5 -3.33335,0.0667 -5,0.2 0.13332,-4.19998 0.19998,-8.39998 0.2,-12.6 -2e-5,-4.19997 -0.0667,-8.39996 -0.2,-12.6 1.66665,0.13337 3.33331,0.20004 5,0.2 1.66664,4e-5 3.33331,-0.0666 5,-0.2 -0.13336,4.20004 -0.20003,8.40003 -0.2,12.6 -3e-5,4.20002 0.0666,8.40002 0.2,12.6 m -2,-23.1 c -1.00002,4e-5 -2.00002,4e-5 -3,0 l -3,0 c 0.0667,1.6667 0.13332,4.23337 0.2,7.7 l 5.6,0 c -2e-5,-0.46663 0.0666,-3.0333 0.2,-7.7 m -0.2,11.5 0,-2 -5.6,0 0,2 5.6,0 m 0.2,9.5 c -0.13336,-4.46664 -0.20002,-7.03331 -0.2,-7.7 l -5.6,0 c -2e-5,0.40003 -0.0667,2.96669 -0.2,7.7 0.99998,-0.0666 1.99998,-0.1 3,-0.1 l 3,0.1 m 21.5,31.3 c -1.66671,-0.13335 -3.33338,-0.20001 -5,-0.2 -1.66671,-10e-6 -3.33337,0.0666 -5,0.2 0.1333,-4.20001 0.19996,-8.4 0.2,-12.6 -4e-5,-4.2 -0.0667,-8.39999 -0.2,-12.6 1.66663,0.13335 3.33329,0.20001 5,0.2 1.66662,10e-6 3.33329,-0.0666 5,-0.2 -0.13338,4.20001 -0.20005,8.4 -0.2,12.6 -5e-5,4.2 0.0666,8.39999 0.2,12.6 m -2,-23.1 c -1.00004,10e-6 -2.00004,10e-6 -3,0 l -3,0 c 0.0666,1.66667 0.1333,4.23334 0.2,7.7 l 5.6,0 c -4e-5,-0.46666 0.0666,-3.03333 0.2,-7.7 m -0.2,11.5 0,-2 -5.6,0 0,2 5.6,0 m 0.2,9.5 c -0.13338,-4.46667 -0.20004,-7.03334 -0.2,-7.7 l -5.6,0 c -4e-5,0.4 -0.0667,2.96666 -0.2,7.7 0.99996,-0.0667 1.99996,-0.10001 3,-0.1 l 3,0.1 m 2,-27.1 c -1.66671,-0.13332 -3.33338,-0.19998 -5,-0.2 -1.66671,2e-5 -3.33337,0.0667 -5,0.2 0.1333,-4.19998 0.19996,-8.39998 0.2,-12.6 -4e-5,-4.19997 -0.0667,-8.39996 -0.2,-12.6 1.66663,0.13337 3.33329,0.20004 5,0.2 1.66662,4e-5 3.33329,-0.0666 5,-0.2 -0.13338,4.20004 -0.20005,8.40003 -0.2,12.6 -5e-5,4.20002 0.0666,8.40002 0.2,12.6 m -2,-23.1 c -1.00004,4e-5 -2.00004,4e-5 -3,0 l -3,0 c 0.0666,1.6667 0.1333,4.23337 0.2,7.7 l 5.6,0 c -4e-5,-0.46663 0.0666,-3.0333 0.2,-7.7 m -0.2,11.5 0,-2 -5.6,0 0,2 5.6,0 m 0.2,9.5 c -0.13338,-4.46664 -0.20004,-7.03331 -0.2,-7.7 l -5.6,0 c -4e-5,0.40003 -0.0667,2.96669 -0.2,7.7 0.99996,-0.0666 1.99996,-0.1 3,-0.1 l 3,0.1"
       id="path3485"
       sodipodi:nodetypes="cscscscscccccccccccccccccccscscscscccccccccccccccccccscscscscccccccccccccccccccscscscscccccccccccccccccccscscscscccccccccccccccccccscscscscccccccccccccccccc"
       style="font-size:100px;font-style:normal;font-variant:normal;font-weight:normal;font-stretch:normal;fill:#006c00;fill-opacity:1;stroke:none;font-family:Droid Serif;-inkscape-font-specification:Droid Serif" />
  </g>
</svg>
