<?xml version="1.0" encoding="UTF-8" standalone="no"?>
<!-- Created with Inkscape (http://www.inkscape.org/) -->

<svg
   xmlns:dc="http://purl.org/dc/elements/1.1/"
   xmlns:cc="http://creativecommons.org/ns#"
   xmlns:rdf="http://www.w3.org/1999/02/22-rdf-syntax-ns#"
   xmlns:svg="http://www.w3.org/2000/svg"
   xmlns="http://www.w3.org/2000/svg"
   xmlns:sodipodi="http://sodipodi.sourceforge.net/DTD/sodipodi-0.dtd"
   xmlns:inkscape="http://www.inkscape.org/namespaces/inkscape"
   width="74.699997"
   height="95.099998"
   id="svg2"
   version="1.1"
   inkscape:version="0.47 r22583"
   sodipodi:docname="MJmei.svg">
  <defs
     id="defs4" />
  <sodipodi:namedview
     id="base"
     pagecolor="#ffffff"
     bordercolor="#666666"
     borderopacity="1.0"
     inkscape:pageopacity="0.0"
     inkscape:pageshadow="2"
     inkscape:zoom="3.959798"
     inkscape:cx="-96.600376"
     inkscape:cy="52.15921"
     inkscape:document-units="px"
     inkscape:current-layer="svg2"
     showgrid="false"
     inkscape:window-width="1440"
     inkscape:window-height="851"
     inkscape:window-x="0"
     inkscape:window-y="25"
     inkscape:window-maximized="1" />
  <metadata
     id="metadata7">
    <rdf:RDF>
      <cc:Work
         rdf:about="">
        <dc:format>image/svg+xml</dc:format>
        <dc:type
           rdf:resource="http://purl.org/dc/dcmitype/StillImage" />
        <dc:title />
      </cc:Work>
    </rdf:RDF>
  </metadata>
  <path
     style="fill:#ffffff;fill-opacity:1;fill-rule:nonzero;stroke:none"
     d="m 4.2578761,92.691189 c -0.78974,-0.39824 -1.31565,-0.90814 -1.75814,-1.70463 l -0.63135,-1.13642 0,-42.30014 0,-42.300139 0.63135,-1.136422 c 0.44249,-0.796488 0.9684,-1.306388 1.75814,-1.704632 l 1.1268,-0.568211 31.9653209,0 31.96532,0 1.1268,0.568211 c 0.78974,0.398244 1.31565,0.908144 1.75814,1.704632 l 0.63135,1.136422 0,42.173869 0,42.17387 -0.63135,1.26269 c -0.48327,0.96654 -0.89562,1.39596 -1.75814,1.8309 l -1.1268,0.56821 -31.96532,0 -31.9653209,0 -1.1268,-0.56821 z"
     id="path3873" />
  <g
     transform="translate(-21.845434,-83.749761)"
     id="g3861"
     style="font-size:100px;font-style:normal;font-variant:normal;font-weight:normal;font-stretch:normal;fill:#10106c;fill-opacity:1;stroke:none;font-family:Droid Serif;-inkscape-font-specification:Droid Serif">
    <path
       id="path3863"
       d="m 46.497975,95.84976 c 0.199973,6.4e-5 1.566639,-0.366603 4.1,-1.1 2.5333,-0.733268 3.899966,-1.099934 4.1,-1.1 0.266632,6.6e-5 0.799965,0.133399 1.6,0.4 l 0,0.8 -9.3,1.9 c -0.13336,6.3e-5 -0.33336,-0.03327 -0.6,-0.1 -0.266693,-0.0666 -0.500026,-0.09994 -0.7,-0.1 -0.466692,6.3e-5 -1.000025,0.300063 -1.6,0.9 l -2.3,2.2 2.7,-5 c 1.066641,-1.999933 1.599974,-3.599932 1.6,-4.8 -2.6e-5,-0.39993 -0.03336,-0.733263 -0.1,-1 l 1.1,0 c 0.533306,7.1e-5 1.133305,0.566737 1.8,1.7 l -3.1,5.2 c 0.06664,0.06673 0.299974,0.100064 0.7,0.1 m 9,7.6 c 0.199964,6e-5 0.633297,-0.0999 1.3,-0.3 0.666629,-0.26661 1.099962,-0.39994 1.3,-0.4 0.733295,6e-5 1.59996,0.56672 2.6,1.7 l -6.1,0 c -0.600034,2.80005 -0.900034,4.40005 -0.9,4.8 l 0,0.6 c 0.333299,0.13338 0.766632,0.30005 1.3,0.5 0.599964,0.13338 1.033297,0.26672 1.3,0.4 0.333297,0.0667 0.66663,0.20005 1,0.4 0.333296,0.13338 0.566629,0.30005 0.7,0.5 0.199962,0.20005 0.333295,0.43338 0.4,0.7 -0.133372,0.20005 -0.400038,0.30005 -0.8,0.3 -0.0667,5e-5 -0.233371,-0.0333 -0.5,-0.1 -0.200037,-0.0666 -0.63337,-0.19995 -1.3,-0.4 -0.600035,-0.19995 -1.300034,-0.39995 -2.1,-0.6 l -1.2,3.5 c -0.533365,1.46671 -1.433364,2.50004 -2.7,3.1 l -1.7,-3.4 c 0.533305,0.20004 1.099971,0.30004 1.7,0.3 0.466636,4e-5 0.899969,-0.39995 1.3,-1.2 0.399969,-0.79995 0.599968,-1.43329 0.6,-1.9 l 0,-1.1 -7.7,0 -3.2,1.1 c -0.133354,-0.13329 -0.200021,-0.39995 -0.2,-0.8 -2.1e-5,-0.13328 0.566646,-0.96662 1.7,-2.5 l 1.3,-2 0,-0.6 -1.9,0.4 c -0.400021,5e-5 -0.866687,-0.29995 -1.4,-0.9 1.666645,-0.19995 2.899977,-0.43328 3.7,-0.7 0.399976,-1.39994 0.599975,-2.59994 0.6,-3.6 -2.5e-5,-0.66661 -0.100024,-1.23327 -0.3,-1.7 1.466641,6e-5 3.099973,-0.266607 4.9,-0.8 1.799969,-0.533272 2.766635,-0.799939 2.9,-0.8 0.9333,6.1e-5 1.933299,0.600061 3,1.8 -0.466701,1.00006 -0.700034,2.03339 -0.7,3.1 0.466632,0.40006 0.833298,0.60006 1.1,0.6 m -17.4,-1.1 c 0.199982,6e-5 0.499981,-0.0333 0.9,-0.1 0.466647,-0.13328 0.733314,-0.19994 0.8,-0.2 0.466646,6e-5 0.833313,0.33339 1.1,1 l 0,0.9 -1.6,0 c -0.06669,6e-5 -0.466685,-0.53328 -1.2,-1.6 m -1.9,-2.6 c -0.733349,6e-5 -1.700014,0.133393 -2.9,0.4 -1.200012,0.26673 -1.833345,0.40006 -1.9,0.4 -0.333344,6e-5 -0.933344,-0.23327 -1.8,-0.7 1.666655,-0.39994 3.999986,-1.266606 7,-2.6 l 0,-5.6 c -0.200016,-0.599932 -0.566683,-1.533264 -1.1,-2.8 l 1.2,0 c 0.199983,7.1e-5 0.866649,0.40007 2,1.2 -0.200018,1.533401 -0.533351,3.800066 -1,6.8 0.266649,0.200062 0.733315,0.333396 1.4,0.4 l 1.8,0 c -2.1e-5,0.200062 -0.100021,0.400062 -0.3,0.6 -0.133354,0.133395 -0.30002,0.266728 -0.5,0.4 -0.20002,0.06673 -0.533353,0.233394 -1,0.5 -0.466685,0.20006 -0.866685,0.40006 -1.2,0.6 -0.133351,0.66673 -0.200018,1.10006 -0.2,1.3 l 0,14.2 c -1.8e-5,0.13338 -0.333351,0.83338 -1,2.1 -0.866682,-0.66662 -1.300015,-1.49996 -1.3,-2.5 -1.5e-5,-0.93329 0.199984,-2.39995 0.6,-4.4 0.399984,-1.99995 0.599983,-3.46661 0.6,-4.4 -1.7e-5,-0.73328 -0.06668,-1.86661 -0.2,-3.4 -2.466681,4.60005 -5.100011,7.53338 -7.9,8.8 4.133321,-4.99995 6.699985,-8.76661 7.7,-11.3 m 16.3,4 0,-3.7 c -0.533365,-0.466607 -1.033365,-0.69994 -1.5,-0.7 -0.400031,6e-5 -1.266696,0.166727 -2.6,0.5 -1.33336,0.26673 -2.13336,0.40006 -2.4,0.4 -0.200026,1.93339 -0.433359,3.40006 -0.7,4.4 l 7.2,-0.9 m -0.2,6.1 0,-5.1 c -1.666697,0.20005 -4.066695,0.53339 -7.2,1 -0.400025,1.00005 -0.900024,2.36672 -1.5,4.1 l 8.7,0 m -3.3,-8.9 c 0.199971,6e-5 0.466637,0.16672 0.8,0.5 0.333303,0.26672 0.49997,0.50006 0.5,0.7 -3e-5,0.60006 -0.133363,1.03339 -0.4,1.3 -1.000029,-0.26661 -1.500028,-0.76661 -1.5,-1.5 l 0,-1 0.6,0 m 0.2,6.9 c -2.9e-5,0.33338 -0.100029,0.76672 -0.3,1.3 -0.400028,5e-5 -0.766695,-0.13328 -1.1,-0.4 -0.266694,-0.33328 -0.400027,-0.63328 -0.4,-0.9 l 0,-1.6 c 1.199971,0.20005 1.799971,0.73339 1.8,1.6"
       sodipodi:nodetypes="csscccsscccscccccccscccccccccsscccccssccccsccccccscsscccccscccccsscccccccccsccccccssscccccscccccccccccscccccccccc"
       style="fill:#10106c;fill-opacity:1" />
  </g>
  <g
     style="font-size:100px;font-style:normal;font-variant:normal;font-weight:normal;font-stretch:normal;fill:#9c0000;fill-opacity:1;stroke:none;font-family:Droid Serif;-inkscape-font-specification:Droid Serif"
     id="g3865"
     transform="translate(-94.323884,8.679197)">
    <path
       d="m 147.92388,44.320801 c 2.99994,2.3e-5 5.53327,1.066689 7.6,3.2 2.13327,2.066685 3.19994,4.600016 3.2,7.6 -6e-5,3.066676 -1.06673,5.666674 -3.2,7.8 -2.13339,2.066669 -4.66672,3.100002 -7.6,3.1 -1.20005,2e-6 -2.33339,-0.166665 -3.4,-0.5 1.39995,1.933334 2.09995,4.066665 2.1,6.4 -5e-5,3.066659 -1.06672,5.633324 -3.2,7.7 -2.13338,2.133319 -4.70004,3.199985 -7.7,3.2 -3.06671,-1.5e-5 -5.6667,-1.066681 -7.8,-3.2 -2.0667,-2.133343 -3.10003,-4.700007 -3.1,-7.7 -2.20003,2.999993 -5.13336,4.499991 -8.8,4.5 -3.06669,-9e-6 -5.66668,-1.066674 -7.8,-3.2 -2.06668,-2.133337 -3.10001,-4.700001 -3.1,-7.7 -1e-5,-2.466662 0.69999,-4.633326 2.1,-6.5 1.39999,-1.866656 3.19998,-3.166655 5.4,-3.9 -2.20002,-0.666653 -4.00001,-1.933319 -5.4,-3.8 -1.40001,-1.866648 -2.10001,-4.033313 -2.1,-6.5 -1e-5,-3.066641 1.06665,-5.633305 3.2,-7.7 2.13332,-2.133301 4.69998,-3.199966 7.7,-3.2 3.66664,3.4e-5 6.59997,1.500032 8.8,4.5 -3e-5,-3.066634 1.06663,-5.633298 3.2,-7.7 2.1333,-2.133294 4.69996,-3.19996 7.7,-3.2 3.06662,4e-5 5.63329,1.066706 7.7,3.2 2.13328,2.133368 3.19995,4.700032 3.2,7.7 -5e-5,2.33336 -0.70005,4.466692 -2.1,6.4 1.06661,-0.33331 2.19995,-0.499977 3.4,-0.5 m 0,20.3 c 2.59994,3e-6 4.79994,-0.899996 6.6,-2.7 1.8666,-1.866659 2.79994,-4.133323 2.8,-6.8 -6e-5,-2.666651 -0.9334,-4.899982 -2.8,-6.7 -1.80006,-1.799979 -4.00006,-2.699978 -6.6,-2.7 -2.06672,2.2e-5 -3.93338,0.600021 -5.6,1.8 -0.26671,-0.466646 -0.63338,-0.966645 -1.1,-1.5 2.59995,-1.866643 3.89995,-4.399974 3.9,-7.6 -5e-5,-2.666635 -0.93338,-4.899966 -2.8,-6.7 -1.80005,-1.799962 -4.00004,-2.699961 -6.6,-2.7 -2.66671,3.9e-5 -4.90004,0.933371 -6.7,2.8 -1.80003,1.800034 -2.70003,4.000032 -2.7,6.6 -3e-5,1.000028 0.1333,1.966694 0.4,2.9 -0.53337,0.13336 -1.10003,0.333359 -1.7,0.6 -0.60003,-1.799972 -1.73336,-3.333304 -3.4,-4.6 -1.66669,-1.266635 -3.53336,-1.899968 -5.6,-1.9 -2.66669,3.2e-5 -4.93335,0.933365 -6.8,2.8 -1.80001,1.800028 -2.70001,4.000026 -2.7,6.6 -1e-5,2.60002 0.89999,4.833351 2.7,6.7 1.86665,1.800014 4.13331,2.700014 6.8,2.7 -0.0667,0.46668 -0.10002,0.766679 -0.1,0.9 -2e-5,0.133346 0.0333,0.466679 0.1,1 -2.66669,1.2e-5 -4.93335,0.933344 -6.8,2.8 -1.80001,1.800007 -2.70001,4.000005 -2.7,6.6 -1e-5,2.6 0.89999,4.799997 2.7,6.6 1.86665,1.86666 4.13331,2.799993 6.8,2.8 2.06664,-7e-6 3.89997,-0.63334 5.5,-1.9 1.66664,-1.200004 2.8333,-2.733336 3.5,-4.6 0.59997,0.266666 1.16663,0.466666 1.7,0.6 -0.2667,0.933331 -0.40003,1.899997 -0.4,2.9 -3e-5,2.66666 0.89997,4.899991 2.7,6.7 1.86663,1.866654 4.09996,2.799986 6.7,2.8 2.59996,-1.4e-5 4.79995,-0.933346 6.6,-2.8 1.86662,-1.800009 2.79995,-4.03334 2.8,-6.7 -5e-5,-3.133334 -1.30005,-5.666665 -3.9,-7.6 0.46662,-0.533329 0.83329,-1.033329 1.1,-1.5 1.66662,1.200004 3.53328,1.800003 5.6,1.8 m -17.7,-20.3 c 3.06663,2.3e-5 5.63329,1.066689 7.7,3.2 2.13329,2.066685 3.19995,4.600016 3.2,7.6 -5e-5,3.066676 -1.06671,5.666674 -3.2,7.8 -2.13338,2.066669 -4.70004,3.100002 -7.7,3.1 -3.0667,2e-6 -5.6667,-1.066664 -7.8,-3.2 -2.06669,-2.133326 -3.10003,-4.69999 -3.1,-7.7 -3e-5,-3.066651 1.06664,-5.633315 3.2,-7.7 2.1333,-2.066644 4.69997,-3.099977 7.7,-3.1 m 0,20.3 c 2.66663,3e-6 4.89996,-0.933329 6.7,-2.8 1.86662,-1.866659 2.79995,-4.09999 2.8,-6.7 -5e-5,-2.599985 -0.93338,-4.799983 -2.8,-6.6 -1.80004,-1.866646 -4.03337,-2.799978 -6.7,-2.8 -2.6667,2.2e-5 -4.90003,0.933354 -6.7,2.8 -1.80003,1.800017 -2.70003,4.000015 -2.7,6.6 -3e-5,2.666677 0.89997,4.933341 2.7,6.8 1.86664,1.800004 4.09997,2.700003 6.7,2.7"
       id="path3867"
       sodipodi:nodetypes="ccscscscsccscsscsscsccscscccsscsccscscsccssssccscsssscccssscscccccscscsscccscscscc"
       style="fill:#9c0000;fill-opacity:1" />
  </g>
  <g
     transform="translate(-62.25154,12.972341)"
     style="font-size:100px;font-style:normal;font-variant:normal;font-weight:normal;font-stretch:normal;fill:#000000;fill-opacity:1;stroke:none;font-family:Droid Serif;-inkscape-font-specification:Droid Serif"
     id="text3689">
    <path
       d="m 136.95154,74.927657 c -8e-5,4.799983 -2.26674,7.19998 -6.8,7.2 l -61.1,0 c -4.533338,-2e-5 -6.800003,-2.400017 -6.8,-7.2 l 0,-80.7000004 c -3e-6,-4.7999266 2.266662,-7.1999236 6.8,-7.1999996 l 61.1,0 c 4.53326,7.6e-5 6.79992,2.400073 6.8,7.1999996 l 0,80.7000004 m -1.7,0 0,-80.7000004 c -8e-5,-3.6665942 -1.70007,-5.4999256 -5.1,-5.4999996 l -61.1,0 c -3.400006,7.4e-5 -5.100004,1.8334054 -5.1,5.4999996 l 0,80.7000004 c -4e-6,3.733317 1.699994,5.599982 5.1,5.6 l 61.1,0 c 3.39993,-1.8e-5 5.09992,-1.866683 5.1,-5.6"
       id="path3694"
       sodipodi:nodetypes="cccccccccccccccccc" />
  </g>
</svg>
