<?xml version="1.0" encoding="UTF-8" standalone="no"?>
<!-- Created with Inkscape (http://www.inkscape.org/) -->

<svg
   xmlns:dc="http://purl.org/dc/elements/1.1/"
   xmlns:cc="http://creativecommons.org/ns#"
   xmlns:rdf="http://www.w3.org/1999/02/22-rdf-syntax-ns#"
   xmlns:svg="http://www.w3.org/2000/svg"
   xmlns="http://www.w3.org/2000/svg"
   xmlns:sodipodi="http://sodipodi.sourceforge.net/DTD/sodipodi-0.dtd"
   xmlns:inkscape="http://www.inkscape.org/namespaces/inkscape"
   width="74.699997"
   height="95.099998"
   id="svg2"
   version="1.1"
   inkscape:version="0.47 r22583"
   sodipodi:docname="绘图-2.svg">
  <defs
     id="defs4" />
  <sodipodi:namedview
     id="base"
     pagecolor="#ffffff"
     bordercolor="#666666"
     borderopacity="1.0"
     inkscape:pageopacity="0.0"
     inkscape:pageshadow="2"
     inkscape:zoom="2.8"
     inkscape:cx="-24.177443"
     inkscape:cy="19.049588"
     inkscape:document-units="px"
     inkscape:current-layer="g2850"
     showgrid="false"
     inkscape:window-width="1440"
     inkscape:window-height="851"
     inkscape:window-x="0"
     inkscape:window-y="25"
     inkscape:window-maximized="1" />
  <metadata
     id="metadata7">
    <rdf:RDF>
      <cc:Work
         rdf:about="">
        <dc:format>image/svg+xml</dc:format>
        <dc:type
           rdf:resource="http://purl.org/dc/dcmitype/StillImage" />
        <dc:title></dc:title>
      </cc:Work>
    </rdf:RDF>
  </metadata>
  <g
     transform="translate(-497.65714,-416.17647)"
     id="g2850"
     inkscape:groupmode="layer"
     inkscape:label="Layer 1">
    <path
       style="font-size:100px;font-style:normal;font-variant:normal;font-weight:normal;font-stretch:normal;fill:#000000;fill-opacity:1;stroke:none;font-family:Droid Serif;-inkscape-font-specification:Droid Serif"
       id="path3073"
       d="m 572.35714,504.07647 c -8e-5,4.79998 -2.26674,7.19998 -6.8,7.2 l -61.1,0 c -4.53334,-2e-5 -6.8,-2.40002 -6.8,-7.2 l 0,-80.7 c 0,-4.79993 2.26666,-7.19993 6.8,-7.2 l 61.1,0 c 4.53326,7e-5 6.79992,2.40007 6.8,7.2 l 0,80.7 m -1.7,0 0,-80.7 c -8e-5,-3.6666 -1.70007,-5.49993 -5.1,-5.5 l -61.1,0 c -3.40001,7e-5 -5.1,1.8334 -5.1,5.5 l 0,80.7 c 0,3.73331 1.69999,5.59998 5.1,5.59999 l 61.1,0 c 3.39993,-1e-5 5.09992,-1.86668 5.1,-5.59999"
       sodipodi:nodetypes="cccccccccccccccccc" />
    <path
       style="fill:#ffffff;fill-opacity:1;fill-rule:nonzero;stroke:none"
       d="M 4.0659407,92.65645 C 1.8537753,91.454272 1.9654139,93.860165 1.9654139,47.388536 l 0,-42.303923 0.8166274,-1.2135296 C 4.2560543,1.6806614 3.2181932,1.7402201 38.0617,1.846526 c 31.5613,0.096292 31.713464,0.1002242 32.716957,0.8454558 0.554503,0.4117927 1.206711,1.135007 1.44935,1.6071429 0.342739,0.6669158 0.442339,10.3241013 0.446428,43.2868793 0.0058,46.598543 0.133211,43.897271 -2.125903,45.065503 -1.527414,0.789858 -65.0295621,0.794579 -66.4825913,0.0049 l 0,1.4e-5 z"
       id="path3082"
       transform="translate(497.65714,416.17647)" />
    <path
       style="font-size:100px;font-style:normal;font-variant:normal;font-weight:normal;font-stretch:normal;fill:#9c0000;fill-opacity:1;stroke:none;font-family:Droid Serif;-inkscape-font-specification:Droid Serif"
       d="m 548.45714,463.67647 c -5e-5,3.86669 -1.33338,7.10002 -4,9.7 -2.60005,2.53335 -5.73338,3.80001 -9.4,3.8 -3.80004,1e-5 -7.00003,-1.29999 -9.6,-3.9 -2.60003,-2.66665 -3.90003,-5.86665 -3.9,-9.6 -3e-5,-3.7333 1.29997,-6.89997 3.9,-9.5 2.66663,-2.59996 5.86663,-3.89996 9.6,-3.9 3.79996,4e-5 6.96662,1.33337 9.5,4 2.59995,2.60003 3.89995,5.73336 3.9,9.4 m -1,0 c -5e-5,-3.46664 -1.23338,-6.39997 -3.7,-8.8 -2.40005,-2.39996 -5.33338,-3.59996 -8.8,-3.6 -3.40004,4e-5 -6.33337,1.20004 -8.8,3.6 -2.40003,2.40003 -3.60003,5.33336 -3.6,8.8 -3e-5,3.53335 1.19997,6.50002 3.6,8.9 2.46663,2.40001 5.4333,3.60001 8.9,3.6 3.46662,1e-5 6.39995,-1.19999 8.8,-3.6 2.39995,-2.46665 3.59995,-5.43331 3.6,-8.9 m -12.4,-10.9 c 3.13329,4e-5 5.73329,1.0667 7.8,3.2 2.13328,2.13336 3.19995,4.70003 3.2,7.7 -5e-5,3.13335 -1.06672,5.76669 -3.2,7.9 -2.13338,2.13335 -4.73338,3.20001 -7.8,3.2 -3.13337,10e-6 -5.7667,-1.06665 -7.9,-3.2 -2.0667,-2.19998 -3.10003,-4.83331 -3.1,-7.9 -3e-5,-3.13331 1.06664,-5.7333 3.2,-7.8 2.1333,-2.06663 4.7333,-3.09996 7.8,-3.1 m -7.2,18.1 c 1.99997,1.93335 4.36663,2.90001 7.1,2.9 2.79996,10e-6 5.16662,-0.96665 7.1,-2.9 1.99995,-1.93331 2.99995,-4.33331 3,-7.2 -5e-5,-2.73331 -0.96672,-5.06664 -2.9,-7 -1.93338,-1.99997 -4.30004,-2.99997 -7.1,-3 -2.8667,3e-5 -5.2667,1.00003 -7.2,3 -1.93336,1.93336 -2.90003,4.26669 -2.9,7 -3e-5,2.86669 0.96664,5.26669 2.9,7.2 m 13.8,-9.9 c 0.86662,3e-5 1.56662,0.26669 2.1,0.8 0.53328,0.53336 0.79995,1.20003 0.8,2 -5e-5,0.80002 -0.26672,1.46669 -0.8,2 -0.53338,0.46669 -1.23338,0.70002 -2.1,0.7 l -1.8,0 c 0.86662,1.53335 1.29995,2.56669 1.3,3.1 -5e-5,0.73335 -0.26671,1.40002 -0.8,2 -0.53338,0.53335 -1.23338,0.80002 -2.1,0.8 -0.20004,2e-5 -0.43338,2e-5 -0.7,0 -0.20004,-0.0666 -0.40004,-0.16665 -0.6,-0.3 -0.13337,-0.19998 -0.26671,-0.33332 -0.4,-0.4 -0.13337,-0.13332 -0.30004,-0.33332 -0.5,-0.6 -0.13337,-0.26665 -0.26671,-0.46665 -0.4,-0.6 -0.0667,-0.13332 -0.16671,-0.33332 -0.3,-0.6 -0.13337,-0.33331 -0.23337,-0.53331 -0.3,-0.6 -0.80004,1.46668 -1.43337,2.33335 -1.9,2.6 -0.40004,0.33335 -0.8667,0.50002 -1.4,0.5 -0.80004,2e-5 -1.50003,-0.26665 -2.1,-0.8 -0.53337,-0.53332 -0.80003,-1.16665 -0.8,-1.9 -3e-5,-0.53331 0.46663,-1.59998 1.4,-3.2 l -1.9,0 c -0.80003,2e-5 -1.4667,-0.26664 -2,-0.8 -0.53336,-0.53331 -0.80003,-1.19998 -0.8,-2 -3e-5,-0.79997 0.2333,-1.43331 0.7,-1.9 0.5333,-0.53331 1.2333,-0.79997 2.1,-0.8 l 1.9,0 c -0.8667,-1.5333 -1.30003,-2.56664 -1.3,-3.1 -3e-5,-0.7333 0.26663,-1.36663 0.8,-1.9 0.5333,-0.59997 1.19996,-0.89997 2,-0.9 0.3333,3e-5 0.59996,0.0667 0.8,0.2 0.26663,0.0667 0.46663,0.1667 0.6,0.3 0.19996,0.0667 0.39996,0.2667 0.6,0.6 0.19996,0.2667 0.33329,0.4667 0.4,0.6 0.0666,0.0667 0.19996,0.30003 0.4,0.7 0.26663,0.40003 0.43329,0.63336 0.5,0.7 0.79996,-1.46663 1.39996,-2.3333 1.8,-2.6 0.39996,-0.26663 0.89996,-0.39997 1.5,-0.4 0.79996,3e-5 1.46662,0.2667 2,0.8 0.53329,0.53337 0.79995,1.1667 0.8,1.9 -5e-5,0.4667 -0.43338,1.50003 -1.3,3.1 l 1.8,0 m -3.4,10.4 c 0.53329,2e-5 0.96662,-0.16665 1.3,-0.5 0.39996,-0.33332 0.59996,-0.76665 0.6,-1.3 -4e-5,-0.33331 -0.0667,-0.66665 -0.2,-1 l -1.8,-3.1 3.5,0 c 1.26662,2e-5 1.89995,-0.56664 1.9,-1.7 -5e-5,-1.19997 -0.63338,-1.79997 -1.9,-1.8 l -3.5,0 1.8,-3.1 c 0.13329,-0.39997 0.19996,-0.76664 0.2,-1.1 -4e-5,-0.46664 -0.16671,-0.86664 -0.5,-1.2 -0.33338,-0.3333 -0.76671,-0.49997 -1.3,-0.5 -0.66671,3e-5 -1.16671,0.33337 -1.5,1 l -1.8,3.1 -1.8,-3.1 c -0.40004,-0.66663 -0.90004,-0.99997 -1.5,-1 -0.53337,3e-5 -1.00004,0.20003 -1.4,0.6 -0.33337,0.33336 -0.50003,0.73336 -0.5,1.2 -3e-5,0.33336 0.1,0.6667 0.3,1 l 1.8,3.1 -3.6,0 c -1.20003,3e-5 -1.80003,0.60003 -1.8,1.8 -3e-5,1.13336 0.59997,1.70002 1.8,1.7 l 3.6,0 -1.8,3.1 c -0.20003,0.40002 -0.30003,0.76669 -0.3,1.1 -3e-5,0.46668 0.16663,0.86668 0.5,1.2 0.39996,0.33335 0.8333,0.50002 1.3,0.5 0.66663,2e-5 1.19996,-0.33332 1.6,-1 l 1.8,-3 1.8,3 c 0.33329,0.66668 0.79996,1.00002 1.4,1 m -5.3,-9.7 c 0.59996,-0.53331 1.26663,-0.79997 2,-0.8 0.79996,3e-5 1.49996,0.26669 2.1,0.8 0.59996,0.53336 0.89996,1.20003 0.9,2 -4e-5,0.86669 -0.30004,1.60002 -0.9,2.2 -0.53337,0.53336 -1.23337,0.80002 -2.1,0.8 -0.80004,2e-5 -1.4667,-0.29998 -2,-0.9 -0.53337,-0.59998 -0.80004,-1.29998 -0.8,-2.1 -4e-5,-0.79997 0.26663,-1.46664 0.8,-2 m 2.1,4 c 0.53329,2e-5 0.96663,-0.19998 1.3,-0.6 0.39996,-0.39998 0.59996,-0.86664 0.6,-1.4 -4e-5,-0.53331 -0.20004,-0.96664 -0.6,-1.3 -0.33337,-0.39997 -0.80004,-0.59997 -1.4,-0.6 -0.53337,3e-5 -1.00004,0.20003 -1.4,0.6 -0.33337,0.33336 -0.50004,0.76669 -0.5,1.3 -4e-5,0.60002 0.19996,1.10002 0.6,1.5 0.39996,0.33336 0.86663,0.50002 1.4,0.5 m 0.9,-2 c -4e-5,0.66669 -0.30004,1.00002 -0.9,1 -0.66671,2e-5 -1.00004,-0.33331 -1,-1 -4e-5,-0.59997 0.33329,-0.89997 1,-0.9 0.59996,3e-5 0.89996,0.30003 0.9,0.9"
       id="path3075"
       sodipodi:nodetypes="csscscsccccscscsccccssscssccscscscsccsscccscsccscssccscsccsssccscscccsccssssccccscccscccssscccssscccscccscscccccssssssscccscssscccsssc" />
    <path
       style="font-size:100px;font-style:normal;font-variant:normal;font-weight:normal;font-stretch:normal;fill:#10106c;fill-opacity:1;stroke:none;font-family:Droid Serif;-inkscape-font-specification:Droid Serif"
       id="path3077"
       d="m 533.30714,492.97647 c -4e-5,3.86666 -1.33337,7.06666 -4,9.6 -2.60003,2.59998 -5.73336,3.89998 -9.4,3.9 -3.80002,-2e-5 -7.00002,-1.33335 -9.6,-4 -2.60001,-2.60001 -3.90001,-5.76667 -3.9,-9.5 -1e-5,-3.73333 1.29999,-6.9 3.9,-9.5 2.66665,-2.59999 5.86664,-3.89999 9.6,-3.9 3.79997,1e-5 6.96663,1.33334 9.5,4 2.59996,2.6 3.89996,5.73333 3.9,9.4 m -1,0 c -4e-5,-3.46667 -1.23337,-6.4 -3.7,-8.8 -2.40003,-2.39999 -5.33336,-3.59999 -8.8,-3.6 -3.40002,1e-5 -6.33335,1.20001 -8.8,3.6 -2.40001,2.4 -3.60001,5.33333 -3.6,8.8 -1e-5,3.53333 1.19999,6.49999 3.6,8.9 2.46665,2.39998 5.43331,3.59998 8.9,3.6 3.46664,-2e-5 6.39997,-1.23335 8.8,-3.7 2.39996,-2.40001 3.59996,-5.33334 3.6,-8.8 m -12.4,-10.9 c 3.1333,1e-5 5.7333,1.06667 7.8,3.2 2.1333,2.13333 3.19996,4.7 3.2,7.7 -4e-5,3.13333 -1.0667,5.76666 -3.2,7.9 -2.13336,2.13332 -4.73336,3.19999 -7.8,3.2 -3.13336,-10e-6 -5.76669,-1.10001 -7.9,-3.3 -2.06668,-2.13334 -3.10001,-4.73334 -3.1,-7.8 -1e-5,-3.13333 1.06665,-5.73333 3.2,-7.8 2.13331,-2.06666 4.73331,-3.09999 7.8,-3.1 m -7.2,18.1 c 1.99998,1.93332 4.36664,2.89999 7.1,2.9 2.79997,-10e-6 5.16664,-0.96668 7.1,-2.9 1.99997,-1.93334 2.99996,-4.33334 3,-7.2 -4e-5,-2.73334 -0.9667,-5.06667 -2.9,-7 -1.93336,-1.99999 -4.30003,-2.99999 -7.1,-3 -2.86669,10e-6 -5.26669,1.00001 -7.2,3 -1.93335,1.93333 -2.90002,4.26666 -2.9,7 -2e-5,2.86666 0.96665,5.26666 2.9,7.2 m 13.8,-9.9 c 0.86663,0 1.56663,0.26666 2.1,0.8 0.5333,0.53333 0.79996,1.2 0.8,2 -4e-5,0.79999 -0.2667,1.43333 -0.8,1.9 -0.53337,0.53333 -1.23337,0.79999 -2.1,0.8 l -1.8,0 c 0.86664,1.53332 1.29997,2.56666 1.3,3.1 -3e-5,0.73332 -0.2667,1.36665 -0.8,1.9 -0.53336,0.59999 -1.23336,0.89999 -2.1,0.9 -0.20003,-10e-6 -0.43336,-0.0333 -0.7,-0.1 -0.20003,-10e-6 -0.40003,-0.10001 -0.6,-0.3 -0.13336,-0.13335 -0.26669,-0.26668 -0.4,-0.4 -0.13336,-0.0667 -0.30003,-0.23334 -0.5,-0.5 -0.13336,-0.26668 -0.26669,-0.46668 -0.4,-0.6 -0.0667,-0.13334 -0.16669,-0.36668 -0.3,-0.7 -0.13336,-0.26668 -0.23336,-0.43334 -0.3,-0.5 -0.80003,1.46666 -1.43336,2.33332 -1.9,2.6 -0.40002,0.33332 -0.86669,0.49999 -1.4,0.5 -0.80002,-10e-6 -1.50002,-0.26668 -2.1,-0.8 -0.53335,-0.53334 -0.80002,-1.16668 -0.8,-1.9 -2e-5,-0.53334 0.46665,-1.60001 1.4,-3.2 l -1.9,0 c -0.80002,-1e-5 -1.46668,-0.26667 -2,-0.8 -0.53335,-0.53334 -0.80002,-1.20001 -0.8,-2 -2e-5,-0.8 0.23332,-1.43334 0.7,-1.9 0.53332,-0.53334 1.23332,-0.8 2.1,-0.8 l 1.9,0 c -0.86669,-1.53333 -1.30002,-2.56667 -1.3,-3.1 -2e-5,-0.73333 0.26665,-1.36666 0.8,-1.9 0.53331,-0.6 1.19998,-0.9 2,-0.9 0.33331,0 0.59998,0.0667 0.8,0.2 0.26664,0.0667 0.46664,0.16667 0.6,0.3 0.19998,0.0667 0.39998,0.26667 0.6,0.6 0.19998,0.26667 0.33331,0.46667 0.4,0.6 0.0666,0.0667 0.19997,0.3 0.4,0.7 0.26664,0.4 0.43331,0.63334 0.5,0.7 0.79997,-1.46666 1.39997,-2.33333 1.8,-2.6 0.39997,-0.26666 0.89997,-0.4 1.5,-0.4 0.79997,0 1.46664,0.26667 2,0.8 0.5333,0.53334 0.79997,1.16667 0.8,1.9 -3e-5,0.46667 -0.43336,1.5 -1.3,3.1 l 1.8,0 m -3.4,10.4 c 0.5333,-10e-6 0.96664,-0.16668 1.3,-0.5 0.39997,-0.33334 0.59997,-0.76668 0.6,-1.3 -3e-5,-0.33334 -0.0667,-0.66668 -0.2,-1 l -1.8,-3.1 3.5,0 c 1.26663,-1e-5 1.89997,-0.6 1.9,-1.8 -3e-5,-1.13334 -0.63337,-1.7 -1.9,-1.7 l -3.5,0 1.8,-3.1 c 0.1333,-0.4 0.19997,-0.76666 0.2,-1.1 -3e-5,-0.46666 -0.1667,-0.86666 -0.5,-1.2 -0.33336,-0.33333 -0.7667,-0.5 -1.3,-0.5 -0.6667,0 -1.16669,0.33334 -1.5,1 l -1.8,3.1 -1.8,-3.1 c -0.40002,-0.66666 -0.90002,-1 -1.5,-1 -0.53336,0 -1.00002,0.2 -1.4,0.6 -0.33335,0.33334 -0.50002,0.73334 -0.5,1.2 -2e-5,0.33333 0.1,0.66667 0.3,1 l 1.8,3.1 -3.6,0 c -1.20002,0 -1.80002,0.56666 -1.8,1.7 -2e-5,1.19999 0.59998,1.79999 1.8,1.8 l 3.6,0 -1.8,3.1 c -0.20002,0.39999 -0.30002,0.76666 -0.3,1.1 -2e-5,0.46666 0.16665,0.86666 0.5,1.2 0.39998,0.33332 0.83331,0.49999 1.3,0.5 0.66664,-10e-6 1.19998,-0.33334 1.6,-1 l 1.8,-3 1.8,3 c 0.33331,0.66666 0.79997,0.99999 1.4,1 m -5.3,-9.7 c 0.59998,-0.53334 1.26664,-0.8 2,-0.8 0.79997,0 1.49997,0.26666 2.1,0.8 0.59997,0.53333 0.89997,1.2 0.9,2 -3e-5,0.86666 -0.30003,1.56666 -0.9,2.1 -0.53336,0.59999 -1.23336,0.89999 -2.1,0.9 -0.80002,-1e-5 -1.46669,-0.30001 -2,-0.9 -0.53336,-0.60001 -0.80002,-1.30001 -0.8,-2.1 -2e-5,-0.8 0.26664,-1.46667 0.8,-2 m 2.1,4 c 0.53331,-1e-5 0.96664,-0.20001 1.3,-0.6 0.39997,-0.40001 0.59997,-0.86667 0.6,-1.4 -3e-5,-0.53334 -0.20003,-0.96667 -0.6,-1.3 -0.33336,-0.4 -0.80003,-0.6 -1.4,-0.6 -0.53336,0 -1.00002,0.2 -1.4,0.6 -0.33336,0.33333 -0.50002,0.76666 -0.5,1.3 -2e-5,0.59999 0.19998,1.06666 0.6,1.4 0.39998,0.39999 0.86664,0.59999 1.4,0.6 m 0.9,-2 c -3e-5,0.66666 -0.30003,0.99999 -0.9,1 -0.66669,-1e-5 -1.00002,-0.33334 -1,-1 -2e-5,-0.6 0.33331,-0.9 1,-0.9 0.59997,0 0.89997,0.3 0.9,0.9 m 12.5,-58.6 c -4e-5,3.86672 -1.33337,7.10005 -4,9.7 -2.60003,2.53338 -5.73336,3.80004 -9.4,3.8 -3.80002,4e-5 -7.00002,-1.29996 -9.6,-3.9 -2.60001,-2.66662 -3.90001,-5.86662 -3.9,-9.6 -1e-5,-3.73327 1.29999,-6.89994 3.9,-9.5 2.66665,-2.59993 5.86664,-3.89993 9.6,-3.9 3.79997,7e-5 6.96663,1.3334 9.5,4 2.59996,2.60006 3.89996,5.73339 3.9,9.4 m -1,0 c -4e-5,-3.46661 -1.23337,-6.39994 -3.7,-8.8 -2.40003,-2.39993 -5.33336,-3.59993 -8.8,-3.6 -3.40002,7e-5 -6.33335,1.20007 -8.8,3.6 -2.40001,2.40006 -3.60001,5.33339 -3.6,8.8 -1e-5,3.53338 1.19999,6.50005 3.6,8.9 2.46665,2.40004 5.43331,3.60004 8.9,3.6 3.46664,4e-5 6.39997,-1.19996 8.8,-3.6 2.39996,-2.46662 3.59996,-5.43328 3.6,-8.9 m -12.4,-10.9 c 3.1333,7e-5 5.7333,1.06673 7.8,3.2 2.1333,2.13339 3.19996,4.70006 3.2,7.7 -4e-5,3.13339 -1.0667,5.76672 -3.2,7.9 -2.13336,2.13338 -4.73336,3.20004 -7.8,3.2 -3.13336,4e-5 -5.76669,-1.06662 -7.9,-3.2 -2.06668,-2.19995 -3.10001,-4.83328 -3.1,-7.9 -1e-5,-3.13327 1.06665,-5.73327 3.2,-7.8 2.13331,-2.0666 4.73331,-3.09993 7.8,-3.1 m -7.2,18.1 c 1.99998,1.93338 4.36664,2.90004 7.1,2.9 2.79997,4e-5 5.16664,-0.96662 7.1,-2.9 1.99997,-1.93328 2.99996,-4.33328 3,-7.2 -4e-5,-2.73328 -0.9667,-5.06661 -2.9,-7 -1.93336,-1.99994 -4.30003,-2.99993 -7.1,-3 -2.86669,7e-5 -5.26669,1.00006 -7.2,3 -1.93335,1.93339 -2.90002,4.26672 -2.9,7 -2e-5,2.86672 0.96665,5.26672 2.9,7.2 m 13.8,-9.9 c 0.86663,6e-5 1.56663,0.26672 2.1,0.8 0.5333,0.53339 0.79996,1.20006 0.8,2 -4e-5,0.80005 -0.2667,1.46672 -0.8,2 -0.53337,0.46672 -1.23337,0.70005 -2.1,0.7 l -1.8,0 c 0.86664,1.53338 1.29997,2.56672 1.3,3.1 -3e-5,0.73338 -0.2667,1.40005 -0.8,2 -0.53336,0.53338 -1.23336,0.80005 -2.1,0.8 -0.20003,5e-5 -0.43336,5e-5 -0.7,0 -0.20003,-0.0666 -0.40003,-0.16662 -0.6,-0.3 -0.13336,-0.19995 -0.26669,-0.33329 -0.4,-0.4 -0.13336,-0.13329 -0.30003,-0.33329 -0.5,-0.6 -0.13336,-0.26662 -0.26669,-0.46662 -0.4,-0.6 -0.0667,-0.13329 -0.16669,-0.33329 -0.3,-0.6 -0.13336,-0.33328 -0.23336,-0.53328 -0.3,-0.6 -0.80003,1.46671 -1.43336,2.33338 -1.9,2.6 -0.40002,0.33338 -0.86669,0.50005 -1.4,0.5 -0.80002,5e-5 -1.50002,-0.26662 -2.1,-0.8 -0.53335,-0.53329 -0.80002,-1.16662 -0.8,-1.9 -2e-5,-0.53328 0.46665,-1.59995 1.4,-3.2 l -1.9,0 c -0.80002,5e-5 -1.46668,-0.26661 -2,-0.8 -0.53335,-0.53328 -0.80002,-1.19995 -0.8,-2 -2e-5,-0.79994 0.23332,-1.43328 0.7,-1.9 0.53332,-0.53328 1.23332,-0.79994 2.1,-0.8 l 1.9,0 c -0.86669,-1.53327 -1.30002,-2.56661 -1.3,-3.1 -2e-5,-0.73327 0.26665,-1.3666 0.8,-1.9 0.53331,-0.59994 1.19998,-0.89994 2,-0.9 0.33331,6e-5 0.59998,0.0667 0.8,0.2 0.26664,0.0667 0.46664,0.16673 0.6,0.3 0.19998,0.0667 0.39998,0.26673 0.6,0.6 0.19998,0.26673 0.33331,0.46673 0.4,0.6 0.0666,0.0667 0.19997,0.30006 0.4,0.7 0.26664,0.40006 0.43331,0.63339 0.5,0.7 0.79997,-1.4666 1.39997,-2.33327 1.8,-2.6 0.39997,-0.2666 0.89997,-0.39994 1.5,-0.4 0.79997,6e-5 1.46664,0.26673 2,0.8 0.5333,0.5334 0.79997,1.16673 0.8,1.9 -3e-5,0.46673 -0.43336,1.50006 -1.3,3.1 l 1.8,0 m -3.4,10.4 c 0.5333,5e-5 0.96664,-0.16662 1.3,-0.5 0.39997,-0.33329 0.59997,-0.76662 0.6,-1.3 -3e-5,-0.33328 -0.0667,-0.66662 -0.2,-1 l -1.8,-3.1 3.5,0 c 1.26663,5e-5 1.89997,-0.56661 1.9,-1.7 -3e-5,-1.19994 -0.63337,-1.79994 -1.9,-1.8 l -3.5,0 1.8,-3.1 c 0.1333,-0.39994 0.19997,-0.76661 0.2,-1.1 -3e-5,-0.4666 -0.1667,-0.8666 -0.5,-1.2 -0.33336,-0.33327 -0.7667,-0.49994 -1.3,-0.5 -0.6667,6e-5 -1.16669,0.3334 -1.5,1 l -1.8,3.1 -1.8,-3.1 c -0.40002,-0.6666 -0.90002,-0.99994 -1.5,-1 -0.53336,6e-5 -1.00002,0.20006 -1.4,0.6 -0.33335,0.3334 -0.50002,0.7334 -0.5,1.2 -2e-5,0.33339 0.1,0.66673 0.3,1 l 1.8,3.1 -3.6,0 c -1.20002,6e-5 -1.80002,0.60006 -1.8,1.8 -2e-5,1.13339 0.59998,1.70005 1.8,1.7 l 3.6,0 -1.8,3.1 c -0.20002,0.40005 -0.30002,0.76672 -0.3,1.1 -2e-5,0.46671 0.16665,0.86671 0.5,1.2 0.39998,0.33338 0.83331,0.50005 1.3,0.5 0.66664,5e-5 1.19998,-0.33329 1.6,-1 l 1.8,-3 1.8,3 c 0.33331,0.66671 0.79997,1.00005 1.4,1 m -5.3,-9.7 c 0.59998,-0.53328 1.26664,-0.79994 2,-0.8 0.79997,6e-5 1.49997,0.26672 2.1,0.8 0.59997,0.53339 0.89997,1.20006 0.9,2 -3e-5,0.86672 -0.30003,1.60005 -0.9,2.2 -0.53336,0.53339 -1.23336,0.80005 -2.1,0.8 -0.80002,5e-5 -1.46669,-0.29995 -2,-0.9 -0.53336,-0.59995 -0.80002,-1.29995 -0.8,-2.1 -2e-5,-0.79994 0.26664,-1.46661 0.8,-2 m 2.1,4 c 0.53331,5e-5 0.96664,-0.19995 1.3,-0.6 0.39997,-0.39995 0.59997,-0.86661 0.6,-1.4 -3e-5,-0.53328 -0.20003,-0.96661 -0.6,-1.3 -0.33336,-0.39994 -0.80003,-0.59994 -1.4,-0.6 -0.53336,6e-5 -1.00002,0.20006 -1.4,0.6 -0.33336,0.33339 -0.50002,0.76672 -0.5,1.3 -2e-5,0.60005 0.19998,1.10005 0.6,1.5 0.39998,0.33339 0.86664,0.50005 1.4,0.5 m 0.9,-2 c -3e-5,0.66672 -0.30003,1.00005 -0.9,1 -0.66669,5e-5 -1.00002,-0.33328 -1,-1 -2e-5,-0.59994 0.33331,-0.89994 1,-0.9 0.59997,6e-5 0.89997,0.30006 0.9,0.9 m 42.8,58.6 c -7e-5,3.86666 -1.3334,7.06666 -4,9.6 -2.60006,2.59998 -5.73339,3.89998 -9.4,3.9 -3.80005,-2e-5 -7.00005,-1.33335 -9.6,-4 -2.60004,-2.60001 -3.90004,-5.76667 -3.9,-9.5 -4e-5,-3.73333 1.29996,-6.9 3.9,-9.5 2.66662,-2.59999 5.86661,-3.89999 9.6,-3.9 3.79994,1e-5 6.9666,1.33334 9.5,4 2.59993,2.6 3.89993,5.73333 3.9,9.4 m -1,0 c -7e-5,-3.46667 -1.2334,-6.4 -3.7,-8.8 -2.40006,-2.39999 -5.33339,-3.59999 -8.8,-3.6 -3.40005,1e-5 -6.33338,1.20001 -8.8,3.6 -2.40004,2.4 -3.60004,5.33333 -3.6,8.8 -4e-5,3.53333 1.19996,6.49999 3.6,8.9 2.46662,2.39998 5.43328,3.59998 8.9,3.6 3.46661,-2e-5 6.39994,-1.23335 8.8,-3.7 2.39993,-2.40001 3.59993,-5.33334 3.6,-8.8 m -12.4,-10.9 c 3.13327,1e-5 5.73327,1.06667 7.8,3.2 2.13327,2.13333 3.19993,4.7 3.2,7.7 -7e-5,3.13333 -1.06673,5.76666 -3.2,7.9 -2.1334,2.13332 -4.73339,3.19999 -7.8,3.2 -3.13339,-10e-6 -5.76672,-1.10001 -7.9,-3.3 -2.06671,-2.13334 -3.10005,-4.73334 -3.1,-7.8 -5e-5,-3.13333 1.06662,-5.73333 3.2,-7.8 2.13328,-2.06666 4.73328,-3.09999 7.8,-3.1 m -7.2,18.1 c 1.99995,1.93332 4.36661,2.89999 7.1,2.9 2.79994,-10e-6 5.16661,-0.96668 7.1,-2.9 1.99994,-1.93334 2.99993,-4.33334 3,-7.2 -7e-5,-2.73334 -0.96673,-5.06667 -2.9,-7 -1.93339,-1.99999 -4.30006,-2.99999 -7.1,-3 -2.86672,10e-6 -5.26672,1.00001 -7.2,3 -1.93338,1.93333 -2.90005,4.26666 -2.9,7 -5e-5,2.86666 0.96662,5.26666 2.9,7.2 m 13.8,-9.9 c 0.8666,0 1.5666,0.26666 2.1,0.8 0.53327,0.53333 0.79993,1.2 0.8,2 -7e-5,0.79999 -0.26673,1.43333 -0.8,1.9 -0.5334,0.53333 -1.2334,0.79999 -2.1,0.8 l -1.8,0 c 0.8666,1.53332 1.29994,2.56666 1.3,3.1 -6e-5,0.73332 -0.26673,1.36665 -0.8,1.9 -0.53339,0.59999 -1.23339,0.89999 -2.1,0.9 -0.20006,-10e-6 -0.43339,-0.0333 -0.7,-0.1 -0.20006,-10e-6 -0.40006,-0.10001 -0.6,-0.3 -0.13339,-0.13335 -0.26672,-0.26668 -0.4,-0.4 -0.13339,-0.0667 -0.30006,-0.23334 -0.5,-0.5 -0.13339,-0.26668 -0.26672,-0.46668 -0.4,-0.6 -0.0667,-0.13334 -0.16672,-0.36668 -0.3,-0.7 -0.13339,-0.26668 -0.23339,-0.43334 -0.3,-0.5 -0.80006,1.46666 -1.43339,2.33332 -1.9,2.6 -0.40005,0.33332 -0.86672,0.49999 -1.4,0.5 -0.80005,-10e-6 -1.50005,-0.26668 -2.1,-0.8 -0.53338,-0.53334 -0.80005,-1.16668 -0.8,-1.9 -5e-5,-0.53334 0.46662,-1.60001 1.4,-3.2 l -1.9,0 c -0.80005,-1e-5 -1.46671,-0.26667 -2,-0.8 -0.53338,-0.53334 -0.80005,-1.20001 -0.8,-2 -5e-5,-0.8 0.23329,-1.43334 0.7,-1.9 0.53329,-0.53334 1.23328,-0.8 2.1,-0.8 l 1.9,0 c -0.86672,-1.53333 -1.30005,-2.56667 -1.3,-3.1 -5e-5,-0.73333 0.26662,-1.36666 0.8,-1.9 0.53328,-0.6 1.19995,-0.9 2,-0.9 0.33328,0 0.59995,0.0667 0.8,0.2 0.26661,0.0667 0.46661,0.16667 0.6,0.3 0.19995,0.0667 0.39995,0.26667 0.6,0.6 0.19994,0.26667 0.33328,0.46667 0.4,0.6 0.0666,0.0667 0.19994,0.3 0.4,0.7 0.26661,0.4 0.43328,0.63334 0.5,0.7 0.79994,-1.46666 1.39994,-2.33333 1.8,-2.6 0.39994,-0.26666 0.89994,-0.4 1.5,-0.4 0.79994,0 1.46661,0.26667 2,0.8 0.53327,0.53334 0.79994,1.16667 0.8,1.9 -6e-5,0.46667 -0.4334,1.5 -1.3,3.1 l 1.8,0 m -3.4,10.4 c 0.53327,-10e-6 0.96661,-0.16668 1.3,-0.5 0.39994,-0.33334 0.59994,-0.76668 0.6,-1.3 -6e-5,-0.33334 -0.0667,-0.66668 -0.2,-1 l -1.8,-3.1 3.5,0 c 1.2666,-1e-5 1.89994,-0.6 1.9,-1.8 -6e-5,-1.13334 -0.6334,-1.7 -1.9,-1.7 l -3.5,0 1.8,-3.1 c 0.13327,-0.4 0.19994,-0.76666 0.2,-1.1 -6e-5,-0.46666 -0.16673,-0.86666 -0.5,-1.2 -0.33339,-0.33333 -0.76673,-0.5 -1.3,-0.5 -0.66673,0 -1.16672,0.33334 -1.5,1 l -1.8,3.1 -1.8,-3.1 c -0.40005,-0.66666 -0.90005,-1 -1.5,-1 -0.53339,0 -1.00005,0.2 -1.4,0.6 -0.33338,0.33334 -0.50005,0.73334 -0.5,1.2 -5e-5,0.33333 0.1,0.66667 0.3,1 l 1.8,3.1 -3.6,0 c -1.20005,0 -1.80005,0.56666 -1.8,1.7 -5e-5,1.19999 0.59995,1.79999 1.8,1.8 l 3.6,0 -1.8,3.1 c -0.20005,0.39999 -0.30005,0.76666 -0.3,1.1 -5e-5,0.46666 0.16662,0.86666 0.5,1.2 0.39995,0.33332 0.83328,0.49999 1.3,0.5 0.66661,-10e-6 1.19995,-0.33334 1.6,-1 l 1.8,-3 1.8,3 c 0.33328,0.66666 0.79994,0.99999 1.4,1 m -5.3,-9.7 c 0.59995,-0.53334 1.26661,-0.8 2,-0.8 0.79994,0 1.49994,0.26666 2.1,0.8 0.59994,0.53333 0.89994,1.2 0.9,2 -6e-5,0.86666 -0.30006,1.56666 -0.9,2.1 -0.53339,0.59999 -1.23339,0.89999 -2.1,0.9 -0.80006,-1e-5 -1.46672,-0.30001 -2,-0.9 -0.53339,-0.60001 -0.80005,-1.30001 -0.8,-2.1 -5e-5,-0.8 0.26661,-1.46667 0.8,-2 m 2.1,4 c 0.53328,-1e-5 0.96661,-0.20001 1.3,-0.6 0.39994,-0.40001 0.59994,-0.86667 0.6,-1.4 -6e-5,-0.53334 -0.20006,-0.96667 -0.6,-1.3 -0.33339,-0.4 -0.80006,-0.6 -1.4,-0.6 -0.53339,0 -1.00006,0.2 -1.4,0.6 -0.33339,0.33333 -0.50005,0.76666 -0.5,1.3 -5e-5,0.59999 0.19995,1.06666 0.6,1.4 0.39994,0.39999 0.86661,0.59999 1.4,0.6 m 0.9,-2 c -6e-5,0.66666 -0.30006,0.99999 -0.9,1 -0.66672,-1e-5 -1.00006,-0.33334 -1,-1 -6e-5,-0.6 0.33328,-0.9 1,-0.9 0.59994,0 0.89994,0.3 0.9,0.9 m 12.5,-58.6 c -7e-5,3.86672 -1.3334,7.10005 -4,9.7 -2.60006,2.53338 -5.73339,3.80004 -9.4,3.8 -3.80005,4e-5 -7.00005,-1.29996 -9.6,-3.9 -2.60004,-2.66662 -3.90004,-5.86662 -3.9,-9.6 -4e-5,-3.73327 1.29996,-6.89994 3.9,-9.5 2.66662,-2.59993 5.86661,-3.89993 9.6,-3.9 3.79994,7e-5 6.9666,1.3334 9.5,4 2.59993,2.60006 3.89993,5.73339 3.9,9.4 m -1,0 c -7e-5,-3.46661 -1.2334,-6.39994 -3.7,-8.8 -2.40006,-2.39993 -5.33339,-3.59993 -8.8,-3.6 -3.40005,7e-5 -6.33338,1.20007 -8.8,3.6 -2.40004,2.40006 -3.60004,5.33339 -3.6,8.8 -4e-5,3.53339 1.19996,6.50005 3.6,8.9 2.46662,2.40004 5.43328,3.60004 8.9,3.6 3.46661,4e-5 6.39994,-1.19996 8.8,-3.6 2.39993,-2.46662 3.59993,-5.43328 3.6,-8.9 m -12.4,-10.9 c 3.13327,7e-5 5.73327,1.06673 7.8,3.2 2.13327,2.13339 3.19993,4.70006 3.2,7.7 -7e-5,3.13339 -1.06673,5.76672 -3.2,7.9 -2.1334,2.13338 -4.73339,3.20004 -7.8,3.2 -3.13339,4e-5 -5.76672,-1.06662 -7.9,-3.2 -2.06671,-2.19995 -3.10005,-4.83328 -3.1,-7.9 -5e-5,-3.13327 1.06662,-5.73327 3.2,-7.8 2.13328,-2.0666 4.73328,-3.09993 7.8,-3.1 m -7.2,18.1 c 1.99995,1.93338 4.36661,2.90004 7.1,2.9 2.79994,4e-5 5.16661,-0.96662 7.1,-2.9 1.99994,-1.93328 2.99993,-4.33328 3,-7.2 -7e-5,-2.73328 -0.96673,-5.06661 -2.9,-7 -1.93339,-1.99994 -4.30006,-2.99993 -7.1,-3 -2.86672,7e-5 -5.26672,1.00006 -7.2,3 -1.93338,1.93339 -2.90005,4.26672 -2.9,7 -5e-5,2.86672 0.96662,5.26672 2.9,7.2 m 13.8,-9.9 c 0.8666,6e-5 1.5666,0.26672 2.1,0.8 0.53327,0.53339 0.79993,1.20006 0.8,2 -7e-5,0.80006 -0.26673,1.46672 -0.8,2 -0.5334,0.46672 -1.2334,0.70005 -2.1,0.7 l -1.8,0 c 0.8666,1.53338 1.29994,2.56672 1.3,3.1 -6e-5,0.73338 -0.26673,1.40005 -0.8,2 -0.53339,0.53338 -1.23339,0.80005 -2.1,0.8 -0.20006,5e-5 -0.43339,5e-5 -0.7,0 -0.20006,-0.0666 -0.40006,-0.16662 -0.6,-0.3 -0.13339,-0.19995 -0.26672,-0.33329 -0.4,-0.4 -0.13339,-0.13329 -0.30006,-0.33329 -0.5,-0.6 -0.13339,-0.26662 -0.26672,-0.46662 -0.4,-0.6 -0.0667,-0.13328 -0.16672,-0.33328 -0.3,-0.6 -0.13339,-0.33328 -0.23339,-0.53328 -0.3,-0.6 -0.80006,1.46671 -1.43339,2.33338 -1.9,2.6 -0.40005,0.33338 -0.86672,0.50005 -1.4,0.5 -0.80005,5e-5 -1.50005,-0.26662 -2.1,-0.8 -0.53338,-0.53329 -0.80005,-1.16662 -0.8,-1.9 -5e-5,-0.53328 0.46662,-1.59995 1.4,-3.2 l -1.9,0 c -0.80005,5e-5 -1.46671,-0.26661 -2,-0.8 -0.53338,-0.53328 -0.80005,-1.19995 -0.8,-2 -5e-5,-0.79994 0.23329,-1.43328 0.7,-1.9 0.53329,-0.53328 1.23328,-0.79994 2.1,-0.8 l 1.9,0 c -0.86672,-1.53327 -1.30005,-2.56661 -1.3,-3.1 -5e-5,-0.73327 0.26662,-1.3666 0.8,-1.9 0.53328,-0.59994 1.19995,-0.89994 2,-0.9 0.33328,6e-5 0.59995,0.0667 0.8,0.2 0.26661,0.0667 0.46661,0.16673 0.6,0.3 0.19995,0.0667 0.39995,0.26673 0.6,0.6 0.19994,0.26673 0.33328,0.46673 0.4,0.6 0.0666,0.0667 0.19994,0.30006 0.4,0.7 0.26661,0.40006 0.43328,0.63339 0.5,0.7 0.79994,-1.4666 1.39994,-2.33327 1.8,-2.6 0.39994,-0.2666 0.89994,-0.39994 1.5,-0.4 0.79994,6e-5 1.46661,0.26673 2,0.8 0.53327,0.5334 0.79994,1.16673 0.8,1.9 -6e-5,0.46673 -0.4334,1.50006 -1.3,3.1 l 1.8,0 m -3.4,10.4 c 0.53327,5e-5 0.96661,-0.16662 1.3,-0.5 0.39994,-0.33329 0.59994,-0.76662 0.6,-1.3 -6e-5,-0.33328 -0.0667,-0.66662 -0.2,-1 l -1.8,-3.1 3.5,0 c 1.2666,5e-5 1.89994,-0.56661 1.9,-1.7 -6e-5,-1.19994 -0.6334,-1.79994 -1.9,-1.8 l -3.5,0 1.8,-3.1 c 0.13327,-0.39994 0.19994,-0.76661 0.2,-1.1 -6e-5,-0.4666 -0.16673,-0.8666 -0.5,-1.2 -0.33339,-0.33327 -0.76673,-0.49994 -1.3,-0.5 -0.66673,6e-5 -1.16672,0.3334 -1.5,1 l -1.8,3.1 -1.8,-3.1 c -0.40005,-0.6666 -0.90005,-0.99994 -1.5,-1 -0.53339,6e-5 -1.00005,0.20006 -1.4,0.6 -0.33338,0.3334 -0.50005,0.7334 -0.5,1.2 -5e-5,0.33339 0.1,0.66673 0.3,1 l 1.8,3.1 -3.6,0 c -1.20005,6e-5 -1.80005,0.60006 -1.8,1.8 -5e-5,1.13339 0.59995,1.70005 1.8,1.7 l 3.6,0 -1.8,3.1 c -0.20005,0.40005 -0.30005,0.76672 -0.3,1.1 -5e-5,0.46672 0.16662,0.86671 0.5,1.2 0.39995,0.33338 0.83328,0.50005 1.3,0.5 0.66661,5e-5 1.19995,-0.33329 1.6,-1 l 1.8,-3 1.8,3 c 0.33328,0.66671 0.79994,1.00005 1.4,1 m -5.3,-9.7 c 0.59995,-0.53328 1.26661,-0.79994 2,-0.8 0.79994,6e-5 1.49994,0.26672 2.1,0.8 0.59994,0.53339 0.89994,1.20006 0.9,2 -6e-5,0.86672 -0.30006,1.60005 -0.9,2.2 -0.53339,0.53339 -1.23339,0.80005 -2.1,0.8 -0.80006,5e-5 -1.46672,-0.29995 -2,-0.9 -0.53339,-0.59995 -0.80005,-1.29995 -0.8,-2.1 -5e-5,-0.79994 0.26661,-1.46661 0.8,-2 m 2.1,4 c 0.53328,5e-5 0.96661,-0.19995 1.3,-0.6 0.39994,-0.39995 0.59994,-0.86661 0.6,-1.4 -6e-5,-0.53328 -0.20006,-0.96661 -0.6,-1.3 -0.33339,-0.39994 -0.80006,-0.59994 -1.4,-0.6 -0.53339,6e-5 -1.00006,0.20006 -1.4,0.6 -0.33339,0.33339 -0.50005,0.76672 -0.5,1.3 -5e-5,0.60005 0.19995,1.10005 0.6,1.5 0.39994,0.33339 0.86661,0.50005 1.4,0.5 m 0.9,-2 c -6e-5,0.66672 -0.30006,1.00005 -0.9,1 -0.66672,5e-5 -1.00006,-0.33328 -1,-1 -6e-5,-0.59994 0.33328,-0.89994 1,-0.9 0.59994,6e-5 0.89994,0.30006 0.9,0.9"
       sodipodi:nodetypes="ccscscsccccscscsccccssssssccscscscsccsscccscscsscssccscsccsssccscscccsccssssccccscccscccssscccssscccscccscscccccssscssscccscssscccsssccsscscsccccscscsccccssscssccscscscsccsscccscsccscssccscsccsssccscscccsccssssccccscccscccssscccssscccscccscscccccssssssscccscssscccssscccscscsccccscscsccccssssssccscscscsccsscccscscsscssccscsccsssccscscccsccssssccccscccscccssscccssscccscccscscccccssscssscccscssscccsssccsscscsccccscscsccccssscssccscscscsccsscccscsccscssccscsccsssccscscccsccssssccccscccscccssscccssscccscccscscccccssssssscccscssscccsssc" />
  </g>
</svg>
