<?xml version="1.0" encoding="UTF-8" standalone="no"?>
<!-- Created with Inkscape (http://www.inkscape.org/) -->

<svg
   xmlns:dc="http://purl.org/dc/elements/1.1/"
   xmlns:cc="http://creativecommons.org/ns#"
   xmlns:rdf="http://www.w3.org/1999/02/22-rdf-syntax-ns#"
   xmlns:svg="http://www.w3.org/2000/svg"
   xmlns="http://www.w3.org/2000/svg"
   xmlns:sodipodi="http://sodipodi.sourceforge.net/DTD/sodipodi-0.dtd"
   xmlns:inkscape="http://www.inkscape.org/namespaces/inkscape"
   width="74.699997"
   height="95.099998"
   id="svg2"
   version="1.1"
   inkscape:version="0.47 r22583"
   sodipodi:docname="MJ4tiao.svg">
  <defs
     id="defs4">
    <inkscape:perspective
       sodipodi:type="inkscape:persp3d"
       inkscape:vp_x="0 : 47.549999 : 1"
       inkscape:vp_y="0 : 1000 : 0"
       inkscape:vp_z="74.699997 : 47.549999 : 1"
       inkscape:persp3d-origin="37.349998 : 31.699999 : 1"
       id="perspective3339" />
  </defs>
  <sodipodi:namedview
     id="base"
     pagecolor="#ffffff"
     bordercolor="#666666"
     borderopacity="1.0"
     inkscape:pageopacity="0.0"
     inkscape:pageshadow="2"
     inkscape:zoom="3.959798"
     inkscape:cx="-37.486878"
     inkscape:cy="28.287796"
     inkscape:document-units="px"
     inkscape:current-layer="layer1"
     showgrid="false"
     inkscape:window-width="1440"
     inkscape:window-height="851"
     inkscape:window-x="0"
     inkscape:window-y="25"
     inkscape:window-maximized="1" />
  <metadata
     id="metadata7">
    <rdf:RDF>
      <cc:Work
         rdf:about="">
        <dc:format>image/svg+xml</dc:format>
        <dc:type
           rdf:resource="http://purl.org/dc/dcmitype/StillImage" />
        <dc:title />
      </cc:Work>
    </rdf:RDF>
  </metadata>
  <g
     inkscape:label="Layer 1"
     inkscape:groupmode="layer"
     id="layer1"
     transform="translate(-415.72348,-514.94711)">
    <g
       id="g3341"
       style="font-size:100px;font-style:normal;font-variant:normal;font-weight:normal;font-stretch:normal;fill:#000000;fill-opacity:1;stroke:none;font-family:Droid Serif;-inkscape-font-specification:Droid Serif"
       transform="translate(386.80698,546.35474)">
      <path
         sodipodi:nodetypes="cccccccccccccccccc"
         id="path3343"
         d="m 103.6165,56.492373 c -7e-5,4.799983 -2.26674,7.199981 -6.799996,7.2 l -61.1,0 c -4.533338,-1.9e-5 -6.800002,-2.400017 -6.8,-7.2 l 0,-80.7 c -2e-6,-4.799927 2.266662,-7.199924 6.8,-7.2 l 61.1,0 c 4.533256,7.6e-5 6.799926,2.400073 6.799996,7.2 l 0,80.7 m -1.7,0 0,-80.7 c -7e-5,-3.666594 -1.70007,-5.499926 -5.099996,-5.5 l -61.1,0 c -3.400006,7.4e-5 -5.100004,1.833406 -5.1,5.5 l 0,80.7 c -4e-6,3.733318 1.699994,5.599982 5.1,5.6 l 61.1,0 c 3.399926,-1.8e-5 5.099926,-1.866682 5.099996,-5.6" />
    </g>
  </g>
  <g
     transform="translate(-541.74001,-515.70472)"
     id="g3078"
     inkscape:groupmode="layer"
     inkscape:label="Layer 1">
    <path
       style="fill:#ffffff;fill-opacity:1;fill-rule:nonzero;stroke:none"
       d="m 545.95521,608.44814 c -0.80947,-0.42806 -1.27808,-0.91811 -1.74435,-1.82415 l -0.63754,-1.23885 0,-42.05436 0,-42.05435 0.63134,-1.26269 c 0.48328,-0.96655 0.89563,-1.39596 1.75815,-1.8309 l 1.1268,-0.56821 32.02693,0 c 26.47815,0 32.16978,0.0597 32.85138,0.34446 1.18873,0.49669 2.10973,1.72483 2.43818,3.25128 0.20813,0.96727 0.26476,12.63013 0.20817,42.87127 l -0.0777,41.54253 -0.63135,1.13642 c -0.44249,0.79648 -0.9684,1.30638 -1.75814,1.70463 l -1.1268,0.56821 -31.97911,0 -31.97912,0 -1.10681,-0.58529 0,0 z"
       id="path3375" />
    <g
       id="g3080"
       style="font-size:100px;font-style:normal;font-variant:normal;font-weight:normal;font-stretch:normal;fill:#006c00;fill-opacity:1;stroke:none;font-family:Droid Serif;-inkscape-font-specification:Droid Serif"
       transform="translate(386.80698,546.35474)">
      <path
         id="path3082"
         d="m 216.83303,53.999979 c -1.66673,-0.133342 -3.33339,-0.200009 -5,-0.2 -1.66672,-9e-6 -3.30005,0.06666 -4.9,0.2 0.13328,-5.600003 0.19995,-11.166664 0.2,-16.7 -5e-5,-5.53332 -0.0667,-11.066648 -0.2,-16.6 1.66661,0.133358 3.29995,0.200024 4.9,0.2 1.66661,2.4e-5 3.33327,-0.06664 5,-0.2 -0.13339,5.533352 -0.20006,11.06668 -0.2,16.6 -6e-5,5.600002 0.0666,11.166663 0.2,16.7 m -2,-31.2 c -1.00006,2.2e-5 -2.00006,2.2e-5 -3,0 -0.93339,2.2e-5 -1.90005,2.2e-5 -2.9,0 0.0666,4.000018 0.0999,7.900014 0.1,11.7 l 5.7,0 c -6e-5,-3.799986 0.0333,-7.699982 0.1,-11.7 m -0.1,15.5 0,-2 -5.7,0 0,2 5.7,0 m 0.1,13.6 c -0.0667,-4.266669 -0.10006,-8.166665 -0.1,-11.7 l -5.7,0 c -5e-5,3.666668 -0.0334,7.566664 -0.1,11.7 0.99995,-0.06667 1.96661,-0.100007 2.9,-0.1 0.99994,-7e-6 1.99994,0.03333 3,0.1 m 2,-38.8 c -1.66673,-0.133301 -3.33339,-0.199968 -5,-0.2 -1.66672,3.2e-5 -3.30005,0.0667 -4.9,0.2 0.13328,-5.5999621 0.19995,-11.1666232 0.2,-16.6999999 -5e-5,-5.5332789 -0.0667,-11.0666071 -0.2,-16.6000001 1.66661,0.133399 3.29995,0.200065 4.9,0.2 1.66661,6.5e-5 3.33327,-0.0666 5,-0.2 -0.13339,5.533393 -0.20006,11.0667212 -0.2,16.6000001 -6e-5,5.6000433 0.0666,11.1667044 0.2,16.6999999 m -2,-31.2 c -1.00006,6.3e-5 -2.00006,6.3e-5 -3,0 -0.93339,6.3e-5 -1.90005,6.3e-5 -2.9,0 0.0666,4.000059 0.0999,7.900055 0.1,11.7000001 l 5.7,0 c -6e-5,-3.7999451 0.0333,-7.6999411 0.1,-11.7000001 m -0.1,15.5000001 0,-2 -5.7,0 0,2 5.7,0 m 0.1,13.5999999 c -0.0667,-4.266628 -0.10006,-8.1666241 -0.1,-11.69999986 l -5.7,0 c -5e-5,3.66670896 -0.0334,7.56670506 -0.1,11.69999986 0.99995,-0.06663 1.96661,-0.09997 2.9,-0.1 0.99994,3.4e-5 1.99994,0.03337 3,0.1 m -37.2,43 c -1.66669,-0.133342 -3.33335,-0.200009 -5,-0.2 -1.66668,-9e-6 -3.30001,0.06666 -4.9,0.2 0.13332,-5.600003 0.19999,-11.166664 0.2,-16.7 -1e-5,-5.53332 -0.0667,-11.066648 -0.2,-16.6 1.66665,0.133358 3.29999,0.200024 4.9,0.2 1.66665,2.4e-5 3.33331,-0.06664 5,-0.2 -0.13335,5.533352 -0.20002,11.06668 -0.2,16.6 -2e-5,5.600002 0.0666,11.166663 0.2,16.7 m -2,-31.2 c -1.00002,2.2e-5 -2.00002,2.2e-5 -3,0 -0.93335,2.2e-5 -1.90001,2.2e-5 -2.9,0 0.0667,4.000018 0.1,7.900014 0.1,11.7 l 5.7,0 c -2e-5,-3.799986 0.0333,-7.699982 0.1,-11.7 m -0.1,15.5 0,-2 -5.7,0 0,2 5.7,0 m 0.1,13.6 c -0.0667,-4.266669 -0.10002,-8.166665 -0.1,-11.7 l -5.7,0 c -1e-5,3.666668 -0.0333,7.566664 -0.1,11.7 0.99999,-0.06667 1.96665,-0.100007 2.9,-0.1 0.99998,-7e-6 1.99998,0.03333 3,0.1 m 2,-38.8 c -1.66669,-0.133301 -3.33335,-0.199968 -5,-0.2 -1.66668,3.2e-5 -3.30001,0.0667 -4.9,0.2 0.13332,-5.5999621 0.19999,-11.1666232 0.2,-16.6999999 -1e-5,-5.5332789 -0.0667,-11.0666071 -0.2,-16.6000001 1.66665,0.133399 3.29999,0.200065 4.9,0.2 1.66665,6.5e-5 3.33331,-0.0666 5,-0.2 -0.13335,5.533393 -0.20002,11.0667212 -0.2,16.6000001 -2e-5,5.6000433 0.0666,11.1667044 0.2,16.6999999 m -2,-31.2 c -1.00002,6.3e-5 -2.00002,6.3e-5 -3,0 -0.93335,6.3e-5 -1.90001,6.3e-5 -2.9,0 0.0667,4.000059 0.1,7.900055 0.1,11.7000001 l 5.7,0 c -2e-5,-3.7999451 0.0333,-7.6999411 0.1,-11.7000001 m -0.1,15.5000001 0,-2 -5.7,0 0,2 5.7,0 m 0.1,13.5999999 c -0.0667,-4.266628 -0.10002,-8.1666241 -0.1,-11.69999986 l -5.7,0 c -1e-5,3.66670896 -0.0333,7.56670506 -0.1,11.69999986 0.99999,-0.06663 1.96665,-0.09997 2.9,-0.1 0.99998,3.4e-5 1.99998,0.03337 3,0.1"
         sodipodi:nodetypes="cscscscsccscccccccccccccsccscscscsccscccccccccccccsccscscscsccscccccccccccccsccscscscsccscccccccccccccsc"
         style="fill:#006c00;fill-opacity:1" />
    </g>
  </g>
</svg>
