<?xml version="1.0" encoding="UTF-8" standalone="no"?>
<!-- Created with Inkscape (http://www.inkscape.org/) -->

<svg
   xmlns:dc="http://purl.org/dc/elements/1.1/"
   xmlns:cc="http://creativecommons.org/ns#"
   xmlns:rdf="http://www.w3.org/1999/02/22-rdf-syntax-ns#"
   xmlns:svg="http://www.w3.org/2000/svg"
   xmlns="http://www.w3.org/2000/svg"
   xmlns:sodipodi="http://sodipodi.sourceforge.net/DTD/sodipodi-0.dtd"
   xmlns:inkscape="http://www.inkscape.org/namespaces/inkscape"
   width="74.699997"
   height="95.099998"
   id="svg2"
   version="1.1"
   inkscape:version="0.47 r22583"
   sodipodi:docname="绘图-1.svg">
  <defs
     id="defs4" />
  <sodipodi:namedview
     id="base"
     pagecolor="#ffffff"
     bordercolor="#666666"
     borderopacity="1.0"
     inkscape:pageopacity="0.0"
     inkscape:pageshadow="2"
     inkscape:zoom="3.0756858"
     inkscape:cx="2.6669821"
     inkscape:cy="53.2353"
     inkscape:document-units="px"
     inkscape:current-layer="layer1"
     showgrid="false"
     inkscape:window-width="1440"
     inkscape:window-height="851"
     inkscape:window-x="0"
     inkscape:window-y="25"
     inkscape:window-maximized="1" />
  <metadata
     id="metadata7">
    <rdf:RDF>
      <cc:Work
         rdf:about="">
        <dc:format>image/svg+xml</dc:format>
        <dc:type
           rdf:resource="http://purl.org/dc/dcmitype/StillImage" />
        <dc:title></dc:title>
      </cc:Work>
    </rdf:RDF>
  </metadata>
  <g
     inkscape:label="Layer 1"
     inkscape:groupmode="layer"
     id="layer1"
     transform="translate(-539.09975,-439.21318)">
    <path
       style="fill:#ffffff;fill-opacity:1;fill-rule:nonzero;stroke:none"
       d="m 543.67504,532.16621 c -1.14026,-0.46128 -2.36038,-2.20367 -2.56953,-3.66939 -0.10833,-0.75915 -0.15376,-20.04111 -0.10097,-42.84882 0.091,-39.3302 0.12623,-41.51471 0.68262,-42.3638 0.32265,-0.49238 1.0542,-1.18033 1.62565,-1.52877 1.01128,-0.61661 1.89395,-0.63354 33.06439,-0.63423 35.80474,-8e-4 33.66352,-0.14045 34.86977,2.27419 0.53246,1.06587 0.56847,3.81563 0.56847,43.40495 0,39.58933 -0.036,42.33909 -0.56847,43.40496 -1.20698,2.41611 0.93998,2.27728 -34.86977,2.2548 -17.61396,-0.0111 -32.32993,-0.14331 -32.70216,-0.29389 l 0,0 z"
       id="path4400" />
    <g
       id="g4388"
       style="font-size:100px;font-style:normal;font-variant:normal;font-weight:normal;font-stretch:normal;fill:#9c0000;fill-opacity:1;stroke:none;font-family:Droid Serif;-inkscape-font-specification:Droid Serif"
       transform="translate(339.44371,453.21909)">
      <path
         id="path4390"
         d="m 236.64512,0.36340555 c -3.33337,2.00005995 -5.16671,3.00005895 -5.5,2.99999995 l -0.7,0 c 2.33329,-3.06660495 3.49996,-4.933269 3.5,-5.6 1.79996,1.133397 2.69996,2.00006305 2.7,2.60000005 m -18.6,17.50000045 c 6.19997,-3.799952 9.29997,-10.8666115 9.3,-21.2000005 -3e-5,-3.133265 -0.33337,-5.099929 -1,-5.9 l 1.6,0 c 0.46663,7.2e-5 0.96663,0.166738 1.5,0.5 0.5333,0.333404 0.79996,0.766737 0.8,1.3 -4e-5,0.06674 -4e-5,0.133403 0,0.2 l -2,12.9 c 0.7333,2.266721 2.29996,4.6333865 4.7,7.1000005 2.39996,2.466714 4.63329,4.000046 6.7,4.6 0.26662,0.200045 0.66662,0.433378 1.2,0.7 -1.00005,0.400044 -2.00005,0.600043 -3,0.599999 -2.13338,4.4e-5 -3.60004,-0.366621 -4.4,-1.099999 -0.80004,-0.799954 -1.60004,-2.233286 -2.4,-4.3 -0.73337,-2.066615 -1.70004,-3.8666145 -2.9,-5.4000005 -0.73337,2.2000525 -2.13337,4.4333845 -4.2,6.7000005 -2.00003,2.266712 -3.90003,3.500044 -5.7,3.7 -0.13336,-0.133289 -0.20003,-0.266622 -0.2,-0.4 m 6.2,-12.0000005 c -0.60003,-0.06661 -1.23336,-0.533276 -1.9,-1.4 -0.60003,-0.933274 -0.90003,-1.633274 -0.9,-2.1 -3e-5,-0.266606 0.16664,-0.39994 0.5,-0.4 0.5333,6e-5 1.1333,0.266727 1.8,0.8 0.66664,0.533393 0.99997,1.066725 1,1.6 -0.13336,0.266725 -0.30003,0.766724 -0.5,1.5 m -10.5,-2.7 c -0.20002,5.9e-5 -1.13335,0.266726 -2.8,0.8 -1.60002,0.466725 -2.50002,0.700058 -2.7,0.7 -0.66668,5.8e-5 -1.50001,-0.466608 -2.5,-1.4 l 9.4,-1.6 0,-5.1 c -0.0667,-0.0666 -0.26669,-0.09993 -0.6,-0.1 l -3.9,1.1 4.1,-2.8 c 1.59998,-1.133265 2.59998,-2.29993 3,-3.5 0.86664,0.333404 1.99997,0.933403 3.4,1.8 l -5.2,2.8 c 0.26664,0.266733 0.79998,0.633399 1.6,1.1 -0.40002,2.33339605 -0.63336,3.50006205 -0.7,3.50000005 -2e-5,0.133395 0.1,0.300062 0.3,0.5 l 0.4,0 c 0.13331,6.1e-5 0.43331,-0.133272 0.9,-0.4 0.53331,-0.333271 0.89997,-0.499938 1.1,-0.5 0.19997,0.133395 0.53331,0.333395 1,0.6 -0.20003,0.40006095 -0.93336,0.80006095 -2.2,1.19999995 -1.20002,0.333393 -1.80002,1.166726 -1.8,2.5 l 0.1,2.1 c 0.0667,0.06672 0.46664,0.200056 1.2,0.4 0.79997,0.133389 1.49997,0.366722 2.1,0.7 0.66664,0.266721 0.99997,0.700054 1,1.3 -3e-5,0.400053 -0.20003,0.800053 -0.6,1.2000005 -1.20003,-0.7999475 -2.33336,-1.6666135 -3.4,-2.6000005 -0.33336,0.600054 -0.50002,1.333387 -0.5,2.2 l 0,7.4000005 c -2e-5,0.600045 -0.40002,2.166709 -1.2,4.699999 -0.86669,-0.333292 -1.30002,-1.266625 -1.3,-2.8 -2e-5,-0.06662 0.19998,-1.433287 0.6,-4.099999 0.46664,-2.666616 0.69998,-4.766614 0.7,-6.3000005 -2e-5,-1.333278 -0.10002,-2.399944 -0.3,-3.2 -0.33335,0.800056 -1.00002,2.000055 -2,3.6 -0.86669,1.000053 -2.13335,2.1667185 -3.8,3.5000005 -1.66668,1.333382 -2.66668,2.000048 -3,2 l -0.9,0 c 5.39998,-4.266614 8.43331,-7.9999445 9.1,-11.2000005 -2e-5,-0.06661 -0.20002,-0.09994 -0.6,-0.1"
         sodipodi:nodetypes="ccccccsccssccsccsccccccccsssccccsccccccccccsccccccccccscccccscsccscccc"
         style="fill:#9c0000;fill-opacity:1" />
    </g>
    <g
       transform="translate(400.7541,440.48321)"
       style="font-size:100px;font-style:normal;font-variant:normal;font-weight:normal;font-stretch:normal;fill:#006c00;fill-opacity:1;stroke:none;font-family:Droid Serif;-inkscape-font-specification:Droid Serif"
       id="g4392">
      <path
         d="m 189.02053,42.043504 c 1.79995,1.800031 2.69995,3.60003 2.7,5.4 -5e-5,0.466694 -0.50005,2.300025 -1.5,5.5 0.13328,0.200022 0.23328,0.300022 0.3,0.3 0.99995,2.2e-5 5.79994,-2.566642 14.4,-7.7 l 0,2.3 c -1.06673,0.466694 -2.16673,1.03336 -3.3,1.7 -1.13339,0.666692 -2.50006,1.533357 -4.1,2.6 -1.60006,1.000022 -2.90005,1.800021 -3.9,2.4 l 2.2,1 c 0.39994,0.133353 0.66661,0.266686 0.8,0.4 0.13328,0.06669 0.33328,0.233352 0.6,0.5 0.26661,0.266685 0.49994,0.633351 0.7,1.1 0.19994,0.466684 0.39994,1.13335 0.6,2 0.26661,0.800015 0.56661,1.833347 0.9,3.1 -0.46673,1.3e-5 -0.76672,0.06668 -0.9,0.2 0.46661,0.866678 0.69994,1.966677 0.7,3.3 -6e-5,0.133342 -6e-5,0.366675 0,0.7 -6e-5,0.266675 -6e-5,0.466675 0,0.6 -6e-5,0.666674 0.0666,1.166673 0.2,1.5 l -1,0 c -0.0667,0.333339 -0.10006,0.666672 -0.1,1 -6e-5,0.266672 0.0333,0.733338 0.1,1.4 -0.26672,0.133337 -0.50006,0.36667 -0.7,0.7 -0.20006,0.333336 -0.33339,0.633336 -0.4,0.9 -0.0667,0.266669 -0.13339,0.600002 -0.2,1 -0.0667,0.400001 -0.10006,0.666667 -0.1,0.8 -0.80006,-0.599999 -2.06672,-1.366665 -3.8,-2.3 -5e-5,0.600002 -0.26672,1.433335 -0.8,2.5 -0.46672,1.066666 -0.70005,1.999998 -0.7,2.8 l -0.9,-0.9 c -0.60005,0.733331 -1.23338,1.599997 -1.9,2.6 -0.66671,0.999995 -1.13338,1.633327 -1.39999,1.9 -0.20005,-6e-6 -0.66672,-0.233339 -1.4,-0.7 -0.20005,0.333328 -0.53339,0.799994 -1,1.4 -0.0667,-7e-6 -0.46672,0.06666 -1.2,0.2 l -2,2.2 -0.4,-0.5 -7,5 c 1.13329,-2.866678 1.69996,-4.700009 1.7,-5.5 -4e-5,-0.06667 -0.16671,-0.166675 -0.5,-0.3 -4e-5,-0.800007 0.1,-1.43334 0.3,-1.9 -4e-5,-0.06667 -0.10004,-0.166673 -0.3,-0.3 -0.13338,-0.133339 -0.20004,-0.233339 -0.2,-0.3 -4e-5,-0.133339 0.1,-0.466672 0.3,-1 0.26662,-0.466671 0.39996,-0.76667 0.4,-0.9 -4e-5,-0.600003 -0.33338,-0.900003 -1,-0.9 -0.46671,-0.466669 -1.00004,-1.600001 -1.6,-3.4 l -2.9,2.3 c 0.0666,-0.600001 0.0666,-1.033334 0,-1.3 -0.8667,0.533333 -1.40004,0.799999 -1.6,0.8 -0.13337,-10e-7 -0.2667,-0.06667 -0.4,-0.2 -0.13337,-0.133334 -0.2667,-0.200001 -0.4,-0.2 -0.13337,-10e-7 -0.43337,0.133333 -0.9,0.4 -0.4667,0.333332 -0.7667,0.499998 -0.9,0.5 -0.13337,-2e-6 -0.30003,-0.06667 -0.5,-0.2 -0.13337,-0.133335 -0.2667,-0.200001 -0.4,-0.2 -3e-5,0.06667 -1.3667,0.399998 -4.1,1 0.39997,-1.133334 0.63331,-1.7 0.7,-1.7 -3e-5,-0.266667 -0.20003,-0.6 -0.6,-1 -0.66669,0.333334 -1.36669,0.5 -2.1,0.5 -0.0667,0 -0.30003,-0.06667 -0.7,-0.2 -0.40002,-0.133333 -0.63336,-0.2 -0.7,-0.2 -0.20002,0.133334 -0.93336,0.366667 -2.2,0.7 -2e-5,-0.666666 -0.0667,-0.999999 -0.2,-1 -0.0667,10e-7 -0.53335,0.06667 -1.4,0.2 -0.80002,0.133334 -1.33335,0.2 -1.6,0.2 -0.0667,0 -0.23335,0.06667 -0.5,0.2 -0.26668,0.2 -0.46668,0.3 -0.6,0.3 -0.13335,0 -0.30002,-0.03333 -0.5,-0.1 -0.20002,-0.06667 -0.36668,-0.1 -0.5,-0.1 -0.0667,0 -1.30002,0.333333 -3.7,1 0.86665,-0.8 1.73332,-1.733333 2.6,-2.8 0.93332,-1.13333 2.33332,-2.633329 4.2,-4.5 -2e-5,-0.66666 0.26665,-1.533325 0.8,-2.6 0.59998,-1.066657 1.16664,-1.733323 1.7,-2 -0.33336,-0.466655 -1.13335,-0.699988 -2.4,-0.7 0.59998,-1.33332 1.39998,-2.466653 2.4,-3.4 -2e-5,-0.333318 0.29998,-0.699984 0.9,-1.1 0.59998,-0.399983 0.93331,-0.699983 1,-0.9 -2e-5,-0.06665 -0.0667,-0.166649 -0.2,-0.3 1.86664,-2.066647 3.36664,-3.433313 4.5,-4.1 -0.93336,-1.133311 -2.50003,-2.699976 -4.7,-4.7 0.26664,-0.133307 0.63331,-0.36664 1.1,-0.7 -0.26669,-0.26664 -1.33336,-0.999972 -3.2,-2.2 l 0.2,-0.2 c -2.06669,-1.066636 -3.90002,-1.866636 -5.5,-2.4 l 4,0 c 0.19998,3.2e-5 0.79998,-0.133302 1.8,-0.4 0.99998,-0.266634 2.23331,-0.399968 3.7,-0.4 0.26664,-0.333301 0.39997,-0.666634 0.4,-1 0.86664,3.3e-5 1.56664,0.03337 2.1,0.1 -3e-5,-0.1333 -0.0667,-0.266633 -0.2,-0.4 l 3.2,0 c -0.13336,-0.399966 -0.30003,-1.133298 -0.5,-2.2 1.3333,0.266702 2.2333,0.400036 2.7,0.4 0.1333,3.6e-5 0.29997,-0.0333 0.5,-0.1 0.26663,-0.133298 0.46663,-0.199964 0.6,-0.2 0.19997,3.6e-5 0.7333,0.133369 1.6,0.4 0.19996,-0.06663 0.4333,-0.399964 0.7,-1 l 1.3,0.7 c 0.0666,3.6e-5 0.19996,3.6e-5 0.4,0 0.19996,-0.06663 0.36663,-0.09996 0.5,-0.1 l 1.6,0.5 c -4e-5,-0.666631 -0.13337,-2.066629 -0.4,-4.2 l 2.1,0 c 0.19996,4e-5 0.63329,0.200039 1.3,0.6 0.66662,0.333372 1.09996,0.500038 1.3,0.5 0.0666,3.8e-5 0.13329,-0.03329 0.2,-0.1 0.13329,-0.06663 0.23329,-0.09996 0.3,-0.1 l 0.8,0.5 c 0.46662,0.333371 0.76662,0.500038 0.9,0.5 0.13329,3.8e-5 0.23329,-0.0333 0.3,-0.1 0.0666,-0.06663 0.16662,-0.09996 0.3,-0.1 0.0666,3.8e-5 0.39995,0.366704 1,1.1 l 0,-1.2 c 0.73328,0.533371 1.73328,1.33337 3,2.4 0.0666,0.133369 0.16661,0.400035 0.3,0.8 0.0666,0.0667 0.36661,0.100035 0.9,0.1 l 1.2,2.7 c 0.26661,-0.266634 0.53328,-0.666634 0.79999,-1.2 m 2,31.7 c 0.73328,-0.933331 1.09995,-1.799997 1.1,-2.6 0.13328,-0.199996 0.43328,-0.299996 0.9,-0.3 0.79995,4e-6 1.79995,0.466671 3,1.4 0.19994,-0.399997 0.46661,-0.999996 0.8,-1.8 -6e-5,-0.733328 0.0666,-1.799993 0.2,-3.2 l 0.9,0 c -6e-5,-1.199991 -0.23339,-2.29999 -0.7,-3.3 -0.46672,-0.999988 -0.70006,-1.599987 -0.7,-1.8 -6e-5,-0.399987 0.36661,-0.799986 1.1,-1.2 -0.46672,-1.199985 -0.76672,-1.933317 -0.9,-2.2 -0.0667,-0.333317 -0.36672,-0.766649 -0.9,-1.3 -0.53339,-0.533315 -1.16672,-0.899981 -1.9,-1.1 -0.66672,-0.199981 -1.76672,-0.499981 -3.3,-0.9 -0.0667,-0.19998 -0.16672,-0.433313 -0.3,-0.7 -1.13338,-0.333313 -1.70004,-0.899979 -1.69999,-1.7 -5e-5,-0.06664 0.26661,-0.83331 0.79999,-2.3 0.53328,-1.466641 0.79995,-2.533306 0.8,-3.2 -5e-5,-0.466639 -0.16672,-1.033305 -0.5,-1.7 -0.26672,-0.733303 -0.50005,-1.133303 -0.7,-1.2 -0.53338,0.40003 -0.96671,0.70003 -1.29999,0.9 -0.26672,-0.733303 -0.80005,-1.766635 -1.6,-3.1 -0.33339,-0.1333 -0.76672,-0.4333 -1.3,-0.9 -0.0667,-0.333299 -0.26672,-0.733299 -0.6,-1.2 -0.33338,0.333368 -0.63338,0.500034 -0.9,0.5 -0.26672,3.4e-5 -0.86672,-0.533298 -1.8,-1.6 -0.40005,3.6e-5 -0.76671,-0.06663 -1.1,-0.2 -0.26671,-0.199964 -0.50005,-0.36663 -0.7,-0.5 -0.13338,-0.199963 -0.23338,-0.299963 -0.3,-0.3 -0.0667,3.7e-5 -0.13338,0.03337 -0.2,0.1 -0.0667,0.0667 -0.13338,0.100037 -0.2,0.1 -0.46671,3.7e-5 -1.40004,-0.299963 -2.8,-0.9 0.19996,1.400036 0.29996,2.400035 0.3,3 -4e-5,0.600034 -0.10004,1.033367 -0.3,1.3 l -1.1,0 c -0.0667,3.3e-5 -0.40004,-0.166633 -1,-0.5 -0.60004,-0.333299 -0.96671,-0.499966 -1.1,-0.5 -0.20004,3.4e-5 -0.63337,0.0667 -1.3,0.2 -0.6667,0.133367 -1.0667,0.200034 -1.2,0.2 -0.0667,3.4e-5 -0.13337,3.4e-5 -0.2,0 -0.0667,3.4e-5 -0.1667,3.4e-5 -0.3,0 -0.0667,-0.06663 -0.20004,-0.09997 -0.4,-0.1 -0.13337,-0.06663 -0.43337,-0.09997 -0.9,-0.1 -0.40003,3.4e-5 -0.93337,3.4e-5 -1.6,0 0.1333,0.400034 0.16663,0.700033 0.1,0.9 -0.2667,0.333366 -2.10003,0.866699 -5.5,1.6 -0.0667,0.133365 -0.23336,0.433365 -0.5,0.9 -0.66669,-0.199969 -1.23336,-0.299969 -1.7,-0.3 -1.53336,3.1e-5 -2.30002,0.266697 -2.3,0.8 0.66664,0.20003 1.16664,0.533363 1.5,1 -2e-5,0.200029 0.1,0.400029 0.3,0.6 0.26664,0.200028 0.59997,0.466695 1,0.8 0.39997,0.333361 0.73331,0.666694 1,1 -0.46669,0.466693 -0.70003,0.766693 -0.7,0.9 0.99997,1.066692 2.39997,2.66669 4.2,4.8 -2.80003,2.200019 -4.20003,3.766684 -4.2,4.7 -2.00002,1.133349 -3.30002,2.333347 -3.9,3.6 0.53331,0.266679 1.26664,0.666679 2.2,1.2 -0.66669,0.600011 -1.26669,1.266677 -1.8,2 -0.53336,0.733342 -0.90002,1.300008 -1.1,1.7 -0.20002,0.333341 -0.30002,0.533341 -0.3,0.6 -2e-5,0.33334 0.13331,0.73334 0.4,1.2 l -2.8,2.5 c -0.20002,0.533336 -0.56669,1.133336 -1.1,1.8 0.39998,-0.199998 0.73331,-0.299998 1,-0.3 0.13331,2e-6 0.26665,0.06667 0.4,0.2 0.13331,0.133335 0.26665,0.200002 0.4,0.2 0.19998,2e-6 0.66665,-0.133331 1.4,-0.4 0.79998,-0.333331 1.29998,-0.499997 1.5,-0.5 0.13331,3e-6 0.29998,0.300002 0.5,0.9 l 1.4,-0.4 c 0.0666,2e-6 0.26664,0.100002 0.6,0.3 0.33331,0.200002 0.53331,0.300002 0.6,0.3 0.46664,2e-6 0.89997,-0.199998 1.3,-0.6 0.39997,-0.466664 0.66664,-0.73333 0.8,-0.8 l 2.4,3.4 c 0.66664,-0.466667 1.19997,-0.7 1.6,-0.7 0.1333,0 0.2333,0.03333 0.3,0.1 0.1333,0.06667 0.26663,0.1 0.4,0.1 0.19997,0 0.9333,-0.633333 2.2,-1.9 0.19996,0.200002 0.4333,0.600001 0.7,1.2 0.39996,-0.266666 1.09996,-0.666665 2.1,-1.2 0.26663,0.333335 0.49996,0.500001 0.7,0.5 0.93329,-0.866664 1.66663,-1.499997 2.2,-1.9 0.33329,1.066669 0.86663,2.633334 1.6,4.7 l 1.3,0 c 0.13329,0.466665 0.19996,0.999998 0.2,1.6 -4e-5,0.266663 -0.0667,0.966663 -0.2,2.1 0.13329,1.533327 0.19996,2.733326 0.2,3.6 -4e-5,0.599991 -0.0334,1.033324 -0.1,1.3 1.39996,-1.200009 2.69995,-2.166674 3.9,-2.9 0.19995,-7e-6 0.43329,-0.03334 0.7,-0.1 l 1.7,-2.2 0.5,0.6 c 0.53328,-0.733338 1.16662,-1.366671 1.9,-1.9 0.19995,0.199996 0.56661,0.466663 1.1,0.8 0.59995,-0.86667 1.16661,-1.666669 1.69999,-2.4 0.53328,-0.666668 0.89995,-1.133334 1.1,-1.4 0.26662,-0.266667 0.46662,-0.533333 0.6,-0.8 0.19995,-0.266666 0.29995,-0.433333 0.3,-0.5 0.0666,-0.133332 0.0999,-0.333332 0.1,-0.6 m -5.49999,-16.8 c -1.66672,2.333349 -3.53338,4.033348 -5.6,5.1 -2.00004,1.000012 -4.26671,1.800011 -6.8,2.4 -2.53337,0.533344 -4.53337,1.166676 -6,1.9 -0.2667,-0.266658 -0.40003,-0.533324 -0.4,-0.8 0.99997,-0.333323 2.3333,-0.79999 4,-1.4 1.73329,-0.599988 2.89996,-0.999988 3.5,-1.2 0.66663,-0.199988 1.56662,-0.533321 2.7,-1 1.13329,-0.466653 1.93329,-0.833319 2.4,-1.1 0.53329,-0.266652 1.16662,-0.633318 1.9,-1.1 0.79995,-0.466651 1.46662,-0.933317 2,-1.4 0.53328,-0.533316 1.09995,-1.133315 1.7,-1.8 0.26662,0.266685 0.46662,0.400018 0.6,0.4"
         id="path4394"
         sodipodi:nodetypes="cscsccscccssscccsssccscssscccccscccccccsccsscsccccssscssscccssscssscssscccccccssccccccccsccccccssscccccccccssccssscccccccccsccccssccscccsssccccccscccssscsccsssssscsccccscccsccccccscscccssscsccsscccssscccccccscsccccccccccsccccccccsccccc"
         style="fill:#006c00;fill-opacity:1" />
    </g>
    <g
       id="g4396"
       style="font-size:100px;font-style:normal;font-variant:normal;font-weight:normal;font-stretch:normal;fill:#000000;fill-opacity:1;stroke:none;font-family:Droid Serif;-inkscape-font-specification:Droid Serif"
       transform="translate(489.33991,446.32203)">
      <path
         id="path4398"
         d="m 124.45984,80.791151 c -7e-5,4.799984 -2.26674,7.199981 -6.8,7.2 l -61.099996,0 c -4.533338,-1.9e-5 -6.800002,-2.400016 -6.8,-7.2 l 0,-80.69999957 c -2e-6,-4.79992643 2.266662,-7.19992403 6.8,-7.20000003 l 61.099996,0 c 4.53326,7.6e-5 6.79993,2.4000736 6.8,7.20000003 l 0,80.69999957 m -1.7,0 0,-80.69999957 c -7e-5,-3.66659423 -1.70007,-5.49992573 -5.1,-5.50000003 l -61.099996,0 c -3.400006,7.43e-5 -5.100004,1.8334058 -5.1,5.50000003 l 0,80.69999957 c -4e-6,3.733318 1.699994,5.599983 5.1,5.6 l 61.099996,0 c 3.39993,-1.7e-5 5.09993,-1.866682 5.1,-5.6"
         sodipodi:nodetypes="cccccccccccccccccc" />
    </g>
  </g>
</svg>
