<?xml version="1.0" encoding="UTF-8" standalone="no"?>
<!-- Created with Inkscape (http://www.inkscape.org/) -->

<svg
   xmlns:dc="http://purl.org/dc/elements/1.1/"
   xmlns:cc="http://creativecommons.org/ns#"
   xmlns:rdf="http://www.w3.org/1999/02/22-rdf-syntax-ns#"
   xmlns:svg="http://www.w3.org/2000/svg"
   xmlns="http://www.w3.org/2000/svg"
   xmlns:sodipodi="http://sodipodi.sourceforge.net/DTD/sodipodi-0.dtd"
   xmlns:inkscape="http://www.inkscape.org/namespaces/inkscape"
   width="74.699997"
   height="95.099998"
   id="svg2"
   version="1.1"
   inkscape:version="0.47 r22583"
   sodipodi:docname="MJ2tiao.svg">
  <defs
     id="defs4" />
  <sodipodi:namedview
     id="base"
     pagecolor="#ffffff"
     bordercolor="#666666"
     borderopacity="1.0"
     inkscape:pageopacity="0.0"
     inkscape:pageshadow="2"
     inkscape:zoom="4.3041282"
     inkscape:cx="-3.6893334"
     inkscape:cy="34.752773"
     inkscape:document-units="px"
     inkscape:current-layer="g4079"
     showgrid="false"
     inkscape:window-width="1440"
     inkscape:window-height="851"
     inkscape:window-x="0"
     inkscape:window-y="25"
     inkscape:window-maximized="1" />
  <metadata
     id="metadata7">
    <rdf:RDF>
      <cc:Work
         rdf:about="">
        <dc:format>image/svg+xml</dc:format>
        <dc:type
           rdf:resource="http://purl.org/dc/dcmitype/StillImage" />
      </cc:Work>
    </rdf:RDF>
  </metadata>
  <g
     inkscape:label="Layer 1"
     inkscape:groupmode="layer"
     id="g4079"
     transform="translate(-327.13958,-280.3834)">
    <g
       transform="translate(299.64739,302.17438)"
       style="font-size:100px;font-style:normal;font-variant:normal;font-weight:normal;font-stretch:normal;fill:#000000;fill-opacity:1;stroke:none;font-family:Droid Serif;-inkscape-font-specification:Droid Serif"
       id="text4632">
      <path
         d="m 102.19219,66.109023 c -8e-5,4.799983 -2.266742,7.19998 -6.8,7.2 l -61.1,0 c -4.533338,-2e-5 -6.800003,-2.400017 -6.8,-7.2 l 0,-80.7 c -3e-6,-4.799927 2.266662,-7.199924 6.8,-7.2 l 61.1,0 c 4.533258,7.6e-5 6.79992,2.400073 6.8,7.2 l 0,80.7 m -1.7,0 0,-80.7 c -8e-5,-3.666595 -1.700074,-5.499926 -5.1,-5.5 l -61.1,0 c -3.400006,7.4e-5 -5.100004,1.833405 -5.1,5.5 l 0,80.7 c -4e-6,3.733317 1.699994,5.599982 5.1,5.6 l 61.1,0 c 3.399926,-1.8e-5 5.09992,-1.866683 5.1,-5.6"
         id="path4637"
         sodipodi:nodetypes="cccccccccccccccccc" />
    </g>
    <path
       style="fill:#ffffff;fill-opacity:1;fill-rule:nonzero;stroke:none"
       d="M 4.7807675,93.080904 C 3.6772446,92.759803 2.5288184,91.493194 2.1463514,90.17538 1.6686311,88.529367 1.6513127,6.6666871 2.1283378,5.0265494 2.475888,3.8315799 3.2034493,2.935144 4.3220455,2.323659 5.0236812,1.9401071 7.0265642,1.911176 36.862714,1.8536182 58.337892,1.8121897 68.947021,1.8707229 69.553313,2.03398 c 1.1826,0.3184413 2.278032,1.2661516 2.805353,2.4270453 0.40871,0.8997732 0.426719,2.6990126 0.431609,43.1202377 l 0.0051,42.181283 -0.576872,1.149211 c -0.334832,0.667029 -0.936931,1.392913 -1.435023,1.730046 l -0.85815,0.580837 -32.195482,0.03877 C 18.107344,93.285043 5.240073,93.21455 4.7807675,93.080904 z"
       id="path4841"
       transform="translate(327.13958,280.3834)" />
    <g
       transform="translate(173.72177,303.80073)"
       style="font-size:100px;font-style:normal;font-variant:normal;font-weight:normal;font-stretch:normal;fill:#006c00;fill-opacity:1;stroke:none;font-family:Droid Serif;-inkscape-font-specification:Droid Serif"
       id="g4823">
      <path
         style="fill:#006c00;fill-opacity:1"
         sodipodi:nodetypes="cscscscsccscccccccccccccsccscscscsccscccccccccccccsc"
         d="m 195.71781,61.232669 c -1.66671,-0.133342 -3.33337,-0.200009 -5,-0.2 -1.6667,-9e-6 -3.30003,0.06666 -4.9,0.2 0.1333,-5.600004 0.19997,-11.166665 0.2,-16.7 -3e-5,-5.53332 -0.0667,-11.066648 -0.2,-16.6 1.66663,0.133357 3.29996,0.200024 4.9,0.2 1.66663,2.4e-5 3.33329,-0.06664 5,-0.2 -0.13338,5.533352 -0.20004,11.06668 -0.2,16.6 -4e-5,5.600002 0.0666,11.166663 0.2,16.7 m -2,-31.2 c -1.00004,2.2e-5 -2.00004,2.2e-5 -3,0 -0.93337,2.2e-5 -1.90004,2.2e-5 -2.9,0 0.0666,4.000018 0.1,7.900014 0.1,11.7 l 5.7,0 c -4e-5,-3.799986 0.0333,-7.699982 0.1,-11.7 m -0.1,15.5 0,-2 -5.7,0 0,2 5.7,0 m 0.1,13.6 c -0.0667,-4.266669 -0.10004,-8.166666 -0.1,-11.7 l -5.7,0 c -3e-5,3.666668 -0.0334,7.566664 -0.1,11.7 0.99996,-0.06667 1.96663,-0.100007 2.9,-0.1 0.99996,-7e-6 1.99996,0.03333 3,0.1 m 2,-38.8 c -1.66671,-0.133301 -3.33337,-0.199968 -5,-0.2 -1.6667,3.2e-5 -3.30003,0.0667 -4.9,0.2 0.1333,-5.599963 0.19997,-11.1666238 0.2,-16.7000005 -3e-5,-5.5332788 -0.0667,-11.0666067 -0.2,-16.5999995 1.66663,0.133398 3.29996,0.200065 4.9,0.2 1.66663,6.5e-5 3.33329,-0.0666 5,-0.2 -0.13338,5.5333928 -0.20004,11.0667207 -0.2,16.5999995 -4e-5,5.6000437 0.0666,11.1667045 0.2,16.7000005 m -2,-31.2 c -1.00004,6.3e-5 -2.00004,6.3e-5 -3,0 -0.93337,6.3e-5 -1.90004,6.3e-5 -2.9,0 0.0666,4.0000589 0.1,7.900055 0.1,11.69999954 l 5.7,0 c -4e-5,-3.79994454 0.0333,-7.69994064 0.1,-11.69999954 m -0.1,15.4999995 0,-2 -5.7,0 0,2 5.7,0 m 0.1,13.6000005 c -0.0667,-4.266629 -0.10004,-8.166625 -0.1,-11.7000005 l -5.7,0 c -3e-5,3.6667095 -0.0334,7.5667055 -0.1,11.7000005 0.99996,-0.06663 1.96663,-0.09997 2.9,-0.1 0.99996,3.4e-5 1.99996,0.03337 3,0.1"
         id="path4825" />
    </g>
  </g>
</svg>
