<?xml version="1.0" encoding="UTF-8" standalone="no"?>
<!-- Created with Inkscape (http://www.inkscape.org/) -->

<svg
   xmlns:dc="http://purl.org/dc/elements/1.1/"
   xmlns:cc="http://creativecommons.org/ns#"
   xmlns:rdf="http://www.w3.org/1999/02/22-rdf-syntax-ns#"
   xmlns:svg="http://www.w3.org/2000/svg"
   xmlns="http://www.w3.org/2000/svg"
   xmlns:sodipodi="http://sodipodi.sourceforge.net/DTD/sodipodi-0.dtd"
   xmlns:inkscape="http://www.inkscape.org/namespaces/inkscape"
   width="74.700005"
   height="95.099998"
   id="svg2"
   version="1.1"
   inkscape:version="0.47 r22583"
   sodipodi:docname="绘图-1.svg">
  <defs
     id="defs4" />
  <sodipodi:namedview
     id="base"
     pagecolor="#ffffff"
     bordercolor="#666666"
     borderopacity="1.0"
     inkscape:pageopacity="0.0"
     inkscape:pageshadow="2"
     inkscape:zoom="2.1748383"
     inkscape:cx="88.741647"
     inkscape:cy="39.242939"
     inkscape:document-units="px"
     inkscape:current-layer="layer1"
     showgrid="false"
     inkscape:window-width="1440"
     inkscape:window-height="851"
     inkscape:window-x="0"
     inkscape:window-y="25"
     inkscape:window-maximized="1" />
  <metadata
     id="metadata7">
    <rdf:RDF>
      <cc:Work
         rdf:about="">
        <dc:format>image/svg+xml</dc:format>
        <dc:type
           rdf:resource="http://purl.org/dc/dcmitype/StillImage" />
        <dc:title></dc:title>
      </cc:Work>
    </rdf:RDF>
  </metadata>
  <g
     inkscape:label="Layer 1"
     inkscape:groupmode="layer"
     id="layer1"
     transform="translate(-442.7987,-464.92598)">
    <path
       style="fill:#ffffff;fill-opacity:1;fill-rule:nonzero;stroke:none"
       d="m 446.78358,557.51321 c -2.13114,-1.29932 -2.0125,1.35923 -2.0125,-45.09818 0,-40.30634 0.0268,-42.2521 0.59655,-43.33412 1.2706,-2.41294 -0.91587,-2.26983 34.68014,-2.26983 29.69291,0 31.93873,0.0387 32.97766,0.56847 0.61316,0.31266 1.41786,0.98155 1.78822,1.48643 0.67298,0.91743 0.67337,0.94224 0.67337,43.56752 0,41.75513 -0.0133,42.67162 -0.63598,43.70099 -1.29963,2.1486 0.60313,2.03745 -34.85241,2.0361 -31.66183,-10e-4 -32.15478,-0.011 -33.21505,-0.65738 l 0,0 z"
       id="path4186" />
    <g
       id="g4170"
       style="font-size:100px;font-style:normal;font-variant:normal;font-weight:normal;font-stretch:normal;fill:#9c0000;fill-opacity:1;stroke:none;font-family:Droid Serif;-inkscape-font-specification:Droid Serif"
       transform="translate(453.0788,360.54649)">
      <path
         id="path4172"
         d="m 18.3199,116.18425 c -0.466697,0.60007 -1.433363,1.1334 -2.9,1.6 -1.466693,0.40007 -2.833358,0.76673 -4.1,1.1 -1.200023,0.3334 -1.8000217,0.76673 -1.7999997,1.3 l 0,1.4 11.5999997,-2.3 c 1.399965,0.46673 2.233297,1.10006 2.5,1.9 l -9.6,1.3 c 6.266634,5.60006 11.866628,8.70005 16.8,9.3 -4.3e-5,0.13339 0.13329,0.33339 0.4,0.6 -1.800042,0.60005 -3.633373,0.90005 -5.5,0.9 -0.533371,5e-5 -0.933371,5e-5 -1.2,0 -0.200037,5e-5 -0.466703,-0.0333 -0.8,-0.1 -0.333369,-0.0666 -0.566702,-0.13328 -0.7,-0.2 -0.0667,-0.0666 -0.300035,-0.19995 -0.7,-0.4 -0.333368,-0.26661 -0.600034,-0.49995 -0.8,-0.7 -0.200034,-0.19995 -0.600033,-0.53328 -1.2,-1 -0.533366,-0.53328 -1.033365,-0.99995 -1.5,-1.4 l -3.5,-3.9 c -1.866693,-1.99994 -3.233358,-2.99994 -4.1,-3 -1.4000217,6e-5 -2.4333547,0.50006 -3.0999997,1.5 l -2.1,3.8 c -1.9e-5,0.33339 0.399981,0.50006 1.2,0.5 l 6.8999997,-1.3 3.6,2.1 c -0.133363,0.80005 -0.266697,1.73339 -0.4,2.8 -3e-5,0.0667 -3e-5,0.33339 0,0.8 0.06664,0.46672 0.09997,0.93338 0.1,1.4 l 0,4.5 c -3e-5,0.73338 -0.466696,1.80004 -1.4,3.2 -0.333362,4e-5 -0.633361,-0.19996 -0.9,-0.6 -0.200027,-0.39996 -0.466694,-0.93329 -0.8,-1.6 -0.33336,-0.73329 -0.733359,-1.33329 -1.2,-1.8 -1.466691,5e-5 -3.2000217,0.16671 -5.1999997,0.5 -0.466687,0.60005 -0.833353,1.46671 -1.1,2.6 -0.733352,-0.26662 -1.100018,-0.73329 -1.1,-1.4 l -0.3,-10.5 c -1.400017,1.40005 -3.066682,2.80005 -4.99999996,4.2 -1.93334404,1.33338 -3.30001004,2.00005 -4.10000004,2 -9e-6,5e-5 -0.03334,5e-5 -0.1,0 -0.06667,5e-5 -0.200009,5e-5 -0.4,0 -0.133342,5e-5 -0.300008,5e-5 -0.5,0 6.666652,-4.46661 10.533315,-8.29994 11.6,-11.5 -0.200019,-0.13327 -0.533352,-0.19994 -1,-0.2 -0.200018,6e-5 -0.966684,0.16673 -2.3,0.5 -1.333348,0.26673 -2.166681,0.40006 -2.5,0.4 -0.93334596,6e-5 -1.60001196,-0.43327 -1.99999996,-1.3 1.799987,-0.0666 4.53331696,-0.4666 8.19999996,-1.2 0.533313,-0.13327 0.833313,-0.73327 0.9,-1.8 l 0,-1.2 c -0.133354,0.0667 -0.466687,0.10007 -1,0.1 -0.733352,7e-5 -1.800018,-0.0666 -3.2,-0.2 1.066649,-0.13327 2.499981,-0.4666 4.3,-1 0.399979,-0.2666 0.733312,-1.13327 1,-2.6 -2.266686,-0.19993 -4.000018,-0.29993 -5.2,-0.3 -1.7e-5,-0.13326 -0.100017,-0.33326 -0.3,-0.6 1.266649,-0.19993 3.033314,-0.5666 5.3,-1.1 0.266645,-0.4666 0.399978,-0.99993 0.4,-1.6 -2.2e-5,-0.33326 -0.100022,-0.86659 -0.3,-1.6 -0.133355,-0.79993 -0.200022,-1.36659 -0.2,-1.7 -2.2e-5,-0.19992 0.03331,-0.39992 0.1,-0.6 l 0.8,0 c 0.4666437,8e-5 1.2999757,0.46674 2.4999997,1.4 l -1,3.1 c 0.333309,0.3334 0.633309,0.50007 0.9,0.5 0.199975,7e-5 1.099974,-0.23326 2.7,-0.7 1.666637,-0.46659 2.59997,-0.69993 2.8,-0.7 0.466636,7e-5 1.066635,0.13341 1.8,0.4 l 0,0.6 c -1.80003,0.40007 -4.433361,1.1334 -7.9,2.2 -0.200024,0.0667 -0.46669,0.36674 -0.8,0.9 -0.26669,0.5334 -0.400023,0.90007 -0.4,1.1 l 0,0.7 0.3,0.3 c 0.399976,-0.0666 1.166642,-0.29993 2.3,-0.7 1.199973,-0.4666 1.866639,-0.69993 2,-0.7 l 3.2,0 m -3.4,21 c -2.7e-5,-0.66662 0.03331,-1.49995 0.1,-2.5 0.06664,-0.99995 0.09997,-1.59995 0.1,-1.8 -2.8e-5,-2.93328 -0.73336,-4.43328 -2.2,-4.5 l -5.4999997,1 0,3.5 c 2.199978,-0.53328 3.5666427,-0.79995 4.0999997,-0.8 1.066642,5e-5 1.666641,0.23339 1.8,0.7 -1.933357,0.66672 -3.3333557,1.00005 -4.1999997,1 -0.866687,5e-5 -1.433354,-0.0333 -1.7,-0.1 l 0,3.5 c 0.933312,-0.0666 1.799978,-0.16662 2.5999997,-0.3 0.799977,-0.13329 1.399976,-0.23329 1.8,-0.3 0.399975,-0.0666 0.666642,-0.1 0.8,-0.1 0.06664,5e-5 0.166641,0.0334 0.3,0.1 0.133308,5e-5 0.366641,0.0667 0.7,0.2 0.333307,0.13338 0.76664,0.26671 1.3,0.4"
         sodipodi:nodetypes="ccccccccccsssscscccscccccsccccccccccccsssccscsccccsccccccscsccccscscccccccccccsscccscsccsssssc"
         style="fill:#9c0000;fill-opacity:1" />
    </g>
    <g
       transform="translate(515.17133,402.17609)"
       style="font-size:100px;font-style:normal;font-variant:normal;font-weight:normal;font-stretch:normal;fill:#9c0000;fill-opacity:1;stroke:none;font-family:Droid Serif;-inkscape-font-specification:Droid Serif"
       id="g4174">
      <path
         d="m -30.280072,96.167519 c -1.800043,4.600041 -2.700042,7.366701 -2.7,8.300001 -4.2e-5,1.2667 1.133291,4.66669 3.4,10.2 0.266621,0.86669 0.499954,2.26669 0.7,4.2 0.599954,-1.46665 1.866619,-3.83331 3.8,-7.1 1.999948,-3.26664 2.999947,-5.69997 3,-7.3 -5.3e-5,-1.26663 -0.200052,-2.99996 -0.6,-5.200001 1.866613,1.800041 3.299945,3.900031 4.3,6.300001 1.999942,-1.3333 4.499939,-2.19997 7.5,-2.6 -0.333397,0.2667 -0.833396,0.70003 -1.5,1.3 -0.666728,0.60003 -1.200061,1.10003 -1.6,1.5 -0.40006,0.33336 -0.833393,0.7667 -1.3,1.3 -0.466726,0.4667 -0.800059,0.93336 -1,1.4 -0.200058,0.46669 -0.333391,0.93336 -0.4,1.4 -0.06672,0.80003 -0.166724,1.90003 -0.3,3.3 -0.06672,1.40002 -0.133391,2.43335 -0.2,3.1 -5.7e-5,0.66669 -0.06672,1.56669 -0.2,2.7 -0.13339,1.06668 -0.266724,1.86668 -0.4,2.4 -0.13339,0.53335 -0.33339,1.16668 -0.6,1.9 -0.200056,0.73335 -0.466722,1.30001 -0.8,1.7 -0.266722,0.33334 -0.633388,0.70001 -1.1,1.1 -0.466721,0.33334 -1.000053,0.56668 -1.6,0.7 -0.600052,0.13334 -1.266718,0.20001 -2,0.2 -3.333381,1e-5 -5.133379,-1.99999 -5.4,-6 -1.133378,2.66668 -3.000042,4.00001 -5.6,4 -3.733369,1e-5 -6.999549,-2.78661 -6,-8.1 l 1.9,-10.1 c -0.133369,-3.06663 -1.533367,-6.26663 -4.2,-9.600001 0.399968,0.200041 1.033301,0.533374 1.9,1 0.933299,0.40004 1.599965,0.733373 2,1 0.466631,0.200039 0.999964,0.566705 1.6,1.100001 0.599962,0.4667 1.099962,1.00004 1.5,1.6 1.333294,-2.399962 3.299958,-4.29996 5.9,-5.700001 m 9.6,7.700001 c -5.4e-5,0.2667 -5.4e-5,0.50003 0,0.7 -5.4e-5,1.73336 -0.600053,3.63336 -1.8,5.7 -1.133384,2.06669 -2.30005,4.10002 -3.5,6.1 -1.200047,1.93335 -1.800047,3.60002 -1.8,5 -4.7e-5,2.73335 1.333285,4.10001 4,4.1 3.399946,1e-5 5.1,-2.83332 5.1,-8.5 l 0,-5.4 c -5.6e-5,-0.53331 0.299944,-1.46664 0.9,-2.8 0.599943,-1.3333 1.233275,-2.29997 1.9,-2.9 -1.133391,0.60003 -2.366723,1.3667 -3.7,2.3 -5.5e-5,-1.66664 -0.366721,-3.09997 -1.1,-4.3 m -18.8,12.9 c -3.5e-5,1.86668 0.399964,3.46668 1.2,4.8 0.866629,1.33335 1.966628,2.00001 3.3,2 3.066624,1e-5 4.599956,-1.79998 4.6,-5.4 -4.4e-5,-1.46665 -0.66671,-3.89998 -2,-7.3 -1.333374,-3.39997 -2.00004,-5.56664 -2,-6.5 -4e-5,-0.99997 0.233293,-2.2333 0.7,-3.7 -1.066707,1.4667 -1.733373,3.0667 -2,4.8 -0.600038,-1.06663 -1.633371,-2.46663 -3.1,-4.2 0.799963,2.2667 1.199963,4.0667 1.2,5.4 -3.7e-5,0.2667 -0.33337,1.96669 -1,5.1 -0.600035,3.06669 -0.900035,4.73335 -0.9,5"
         id="path4176"
         sodipodi:nodetypes="ccscccscccsccscccsscscsscscccccccccsccssccscccccsssscccsc"
         style="fill:#9c0000;fill-opacity:1" />
    </g>
    <g
       id="g4178"
       style="font-size:100px;font-style:normal;font-variant:normal;font-weight:normal;font-stretch:normal;fill:#006c00;fill-opacity:1;stroke:none;font-family:Droid Serif;-inkscape-font-specification:Droid Serif"
       transform="translate(359.23038,470.28106)">
      <path
         id="path4180"
         d="m 150.85091,58.023348 -2.3,1.5 c -0.40006,0.266677 -0.70006,0.50001 -0.9,0.7 -0.1334,0.20001 -0.30006,0.433343 -0.5,0.7 -0.20006,0.200009 -0.43339,0.600009 -0.7,1.2 -0.26673,0.533341 -0.56673,1.13334 -0.9,1.8 -0.26673,0.666672 -0.76673,1.733338 -1.5,3.2 -0.66672,1.466668 -1.40006,3 -2.2,4.6 -0.33339,0.666665 -1.03339,1.399997 -2.1,2.2 -1.06672,0.799996 -2.63338,1.866661 -4.7,3.2 -2.00005,1.399992 -3.76671,2.69999 -5.3,3.9 l 1.1,-4.9 c 0.66662,-3.600002 1.73329,-6.599999 3.2,-9 1.46662,-2.466661 3.26662,-4.266659 5.4,-5.4 2.19994,-1.19999 4.06661,-2.033323 5.6,-2.5 1.53327,-0.466655 3.4666,-0.866655 5.8,-1.2 m -19.1,1.9 c -0.73338,2.133342 -1.20004,3.866673 -1.4,5.2 -0.20004,1.333337 -0.30004,3.166669 -0.3,5.5 -4e-5,0.333333 -4e-5,0.933332 0,1.8 -4e-5,0.866664 -4e-5,1.566663 0,2.1 l -4,0 c -4e-5,-0.86667 -4e-5,-1.833336 0,-2.9 -4e-5,-1 -4e-5,-1.633333 0,-1.9 -4e-5,-0.466666 -4e-5,-0.833332 0,-1.1 -4e-5,-0.333331 -4e-5,-0.699998 0,-1.1 0.0666,-0.399997 0.0999,-0.73333 0.1,-1 0.0666,-0.266663 0.16663,-0.699996 0.3,-1.3 0.19996,-0.666661 0.33329,-1.199994 0.4,-1.6 0.0666,-0.46666 0.23329,-1.266659 0.5,-2.4 0.26662,-1.133323 0.49996,-2.133322 0.7,-3 0.79996,0.400012 2.03329,0.966678 3.7,1.7 m -8.1,-1.8 c 0.0666,0.466678 0.1333,1.566677 0.2,3.3 0.1333,1.666674 0.2333,2.766673 0.3,3.3 0.0666,0.533338 0.16663,1.533337 0.3,3 0.13329,1.466668 0.26663,2.5 0.4,3.1 0.13329,0.666665 0.29996,1.633331 0.5,2.9 0.26663,1.266662 0.53329,2.266661 0.8,3 0.33329,0.799993 0.69996,1.733325 1.1,2.8 0.46662,1.066656 0.96662,2.033322 1.5,2.9 0.53329,0.93332 1.13329,1.866653 1.8,2.8 l -3.2,2.3 c -5.00004,-6.266678 -7.50003,-16.066668 -7.5,-29.4 0.19997,0.333345 0.46663,0.400012 0.8,0.2 0.59996,1.2e-5 1.59996,-0.06665 3,-0.2 m 22.2,2.1 c -0.33339,10e-6 -0.83339,0.10001 -1.5,0.3 -0.66672,0.133343 -1.63339,0.566676 -2.9,1.3 -1.20005,0.666674 -2.40005,1.566674 -3.6,2.7 -1.13338,1.066671 -2.26672,2.700003 -3.4,4.9 -1.06671,2.133332 -1.83338,4.599996 -2.3,7.4 2.99995,-1.600005 5.29995,-3.100003 6.9,-4.5 1.59995,-1.333334 2.63328,-2.433333 3.1,-3.3 0.46661,-0.933331 0.99994,-2.266663 1.6,-4 0.66661,-1.799993 1.36661,-3.399991 2.1,-4.8 m -16.2,0.1 c -0.0667,10e-6 -0.20004,10e-6 -0.4,0 -0.20004,-0.06666 -0.33338,-0.09999 -0.4,-0.1 -0.93338,3.200007 -1.40004,6.166671 -1.4,8.9 -4e-5,0.266668 -4e-5,0.833334 0,1.7 -4e-5,0.866665 -0.6,2.2 0,2.2 l 1.2,0 c -0.0667,-0.800002 -0.10004,-1.600001 -0.1,-2.4 -4e-5,-1.666665 0.36662,-5.099995 1.1,-10.3 m -1.7,25.2 0.5,-0.6 c -2.13337,-3.533344 -3.60004,-7.166674 -4.4,-10.9 -0.80004,-3.666667 -1.33337,-8.433329 -1.6,-14.3 -0.13337,1.1e-5 -0.4667,0.03334 -1,0.1 -4e-5,5.066672 0.49996,9.700001 1.5,13.9 0.99996,4.266659 1.96663,7.299989 2.9,9.1 0.99996,1.799986 1.69996,2.699985 2.1,2.7"
         sodipodi:nodetypes="cccccccsscccccsccsssccssscccssccccssscccccccccccccscccccccccssccscccccccc"
         style="fill:#006c00;fill-opacity:1" />
    </g>
    <g
       transform="translate(415.68876,472.4867)"
       style="font-size:100px;font-style:normal;font-variant:normal;font-weight:normal;font-stretch:normal;fill:#000000;fill-opacity:1;stroke:none;font-family:Droid Serif;-inkscape-font-specification:Droid Serif"
       id="g4182">
      <path
         d="m 101.80994,80.339278 c -8e-5,4.799983 -2.266745,7.199981 -6.800004,7.2 l -61.1,0 c -4.533338,-1.9e-5 -6.800002,-2.400017 -6.8,-7.2 l 0,-80.70000035 c -2e-6,-4.79992645 2.266662,-7.19992405 6.8,-7.20000005 l 61.1,0 c 4.533259,7.6e-5 6.799924,2.4000736 6.800004,7.20000005 l 0,80.70000035 m -1.7,0 0,-80.70000035 c -8e-5,-3.66659425 -1.700078,-5.49992575 -5.100004,-5.50000005 l -61.1,0 c -3.400006,7.43e-5 -5.100004,1.8334058 -5.1,5.50000005 l 0,80.70000035 c -4e-6,3.733317 1.699994,5.599982 5.1,5.6 l 61.1,0 c 3.399926,-1.8e-5 5.099924,-1.866683 5.100004,-5.6"
         id="path4184"
         sodipodi:nodetypes="cccccccccccccccccc" />
    </g>
  </g>
</svg>
