<?xml version="1.0" encoding="UTF-8" standalone="no"?>
<!-- Created with Inkscape (http://www.inkscape.org/) -->

<svg
   xmlns:dc="http://purl.org/dc/elements/1.1/"
   xmlns:cc="http://creativecommons.org/ns#"
   xmlns:rdf="http://www.w3.org/1999/02/22-rdf-syntax-ns#"
   xmlns:svg="http://www.w3.org/2000/svg"
   xmlns="http://www.w3.org/2000/svg"
   xmlns:sodipodi="http://sodipodi.sourceforge.net/DTD/sodipodi-0.dtd"
   xmlns:inkscape="http://www.inkscape.org/namespaces/inkscape"
   width="74.699997"
   height="95.099998"
   id="svg3739"
   version="1.1"
   inkscape:version="0.47 r22583"
   sodipodi:docname="MJ1wan.svg">
  <defs
     id="defs3741" />
  <sodipodi:namedview
     id="base"
     pagecolor="#ffffff"
     bordercolor="#666666"
     borderopacity="1.0"
     inkscape:pageopacity="0.0"
     inkscape:pageshadow="2"
     inkscape:zoom="3.844464"
     inkscape:cx="-85.067285"
     inkscape:cy="60.892951"
     inkscape:document-units="px"
     inkscape:current-layer="layer1"
     showgrid="false"
     inkscape:window-width="1440"
     inkscape:window-height="851"
     inkscape:window-x="0"
     inkscape:window-y="25"
     inkscape:window-maximized="1" />
  <metadata
     id="metadata3744">
    <rdf:RDF>
      <cc:Work
         rdf:about="">
        <dc:format>image/svg+xml</dc:format>
        <dc:type
           rdf:resource="http://purl.org/dc/dcmitype/StillImage" />
        <dc:title />
      </cc:Work>
    </rdf:RDF>
  </metadata>
  <g
     inkscape:label="Layer 1"
     inkscape:groupmode="layer"
     id="layer1"
     transform="translate(-466.80778,-466.36335)">
    <path
       id="path4717"
       d="m 541.50778,554.26335 c -8e-5,4.79998 -2.26674,7.19998 -6.8,7.2 l -61.1,0 c -4.53334,-2e-5 -6.8,-2.40002 -6.8,-7.2 l 0,-80.7 c 0,-4.79993 2.26666,-7.19992 6.8,-7.2 l 61.1,0 c 4.53326,8e-5 6.79992,2.40007 6.8,7.2 l 0,80.7 m -1.7,0 0,-80.7 c -7e-5,-3.66659 -1.70007,-5.49992 -5.1,-5.5 l -61.1,0 c -3.40001,8e-5 -5.1,1.83341 -5.1,5.5 l 0,80.7 c 0,3.73332 1.69999,5.59998 5.1,5.6 l 61.1,0 c 3.39993,-2e-5 5.09993,-1.86668 5.1,-5.6"
       sodipodi:nodetypes="cccccccccccccccccc"
       style="font-size:100px;font-style:normal;font-variant:normal;font-weight:normal;font-stretch:normal;fill:#000000;fill-opacity:1;stroke:none;font-family:Droid Serif;-inkscape-font-specification:Droid Serif" />
    <path
       style="fill:#ffffff;fill-opacity:1;fill-rule:nonzero;stroke:none"
       d="m 471.2842,559.24441 c -0.94708,-0.41444 -2.12234,-1.74629 -2.39323,-2.71212 -0.10726,-0.38239 -0.19501,-19.6576 -0.19501,-42.83378 l 0,-42.13851 0.63314,-1.10546 c 0.41793,-0.72972 0.99843,-1.2823 1.70784,-1.62572 1.05688,-0.51163 1.60584,-0.52025 33.12504,-0.52025 34.51143,0 33.04052,-0.0572 34.2736,1.33208 0.30208,0.34033 0.68249,1.01666 0.84537,1.50296 0.21659,0.64664 0.29615,12.17985 0.29615,42.92877 l 0,42.04459 -0.58526,1.14537 c -0.32189,0.62996 -0.91571,1.38633 -1.3196,1.68083 -0.73098,0.53301 -0.88259,0.53571 -33.16457,0.59191 -26.56406,0.0462 -32.57371,-0.006 -33.22347,-0.29067 z"
       id="path4739" />
    <path
       style="font-size:100px;font-style:normal;font-variant:normal;font-weight:normal;font-stretch:normal;fill:#20208c;fill-opacity:1;stroke:none;font-family:Droid Serif;-inkscape-font-specification:Droid Serif"
       sodipodi:nodetypes="ccsscscsscccsc"
       id="path4731"
       d="m 517.63222,488.77101 c 0.79995,5e-5 1.93328,0.36672 3.4,1.1 1.53328,0.66672 2.29994,1.36671 2.3,2.1 -6e-5,0.73338 -0.90006,1.10005 -2.7,1.1 -0.33339,5e-5 -1.23339,-0.1 -2.7,-0.3 -1.40005,-0.26662 -2.26672,-0.39995 -2.6,-0.4 -5.33338,5e-5 -14.4667,1.16671 -27.4,3.5 -0.60002,4e-5 -1.50002,-0.29996 -2.7,-0.9 -1.20002,-0.59995 -1.80002,-1.23329 -1.8,-1.9 -2e-5,-0.53329 0.59998,-0.79995 1.8,-0.8 l 2.2,0.1 2.2,0 c 3.06664,5e-5 5.86664,-0.16662 8.4,-0.5 2.5333,-0.33329 9.06663,-1.36662 19.6,-3.1" />
    <path
       d="m 517.15246,516.39124 c 0.46662,2e-5 1.09995,0.26669 1.9,0.8 0.86661,0.46669 1.36661,0.80002 1.5,1 l 0,0.8 c -0.33339,0.33335 -0.80005,0.50002 -1.4,0.5 -0.33338,2e-5 -1.16672,-0.0333 -2.5,-0.1 -1.33338,-0.13331 -2.16671,-0.19998 -2.5,-0.2 -2.33338,2e-5 -3.90004,0.30002 -4.7,0.9 l -3.4,3.5 c 0.13329,-0.26665 0.49996,-1.36665 1.1,-3.3 -0.20004,-0.19998 -0.83337,-0.29998 -1.9,-0.3 -0.60004,2e-5 -2.1667,0.10002 -4.7,0.3 -3e-5,0.93335 -0.2667,2.30002 -0.8,4.1 l -0.3,-0.9 c -0.2667,-0.66665 -0.5667,-1.26665 -0.9,-1.8 -0.2667,-0.53331 -0.53336,-0.79998 -0.8,-0.8 -0.60003,2e-5 -1.90003,0.20002 -3.9,0.6 -1.93336,0.40002 -3.20002,0.60002 -3.8,0.6 -1.13335,2e-5 -2.23335,-0.56665 -3.3,-1.7 l 11,-1.2 -2.2,-4.3 2.5,0 c 0.0666,3e-5 0.59997,0.23336 1.6,0.7 -3e-5,0.80002 0.2333,2.00002 0.7,3.6 0.5333,-0.0666 2.9333,-0.43331 7.2,-1.1 0.66663,-2.19998 1.06663,-4.19997 1.2,-6 2.46662,1.40003 3.69996,2.26669 3.7,2.6 l -1.6,2.5 c 0.19996,0.20002 0.56662,0.30002 1.1,0.3 0.33329,2e-5 1.19995,-0.16664 2.6,-0.5 1.39995,-0.39998 2.26662,-0.59998 2.6,-0.6 m -24.7,9.4 c 3.9333,-0.19999 7.19997,-0.53332 9.8,-1 2.59996,-0.46665 4.46663,-0.86665 5.6,-1.2 1.13329,-0.33332 1.99996,-0.49998 2.6,-0.5 0.99996,2e-5 2.33329,0.83335 4,2.5 -0.86671,1.60001 -1.56671,2.96668 -2.1,4.1 -0.53338,1.06667 -0.90004,1.76668 -1.1,2.1 -0.13338,0.33334 -0.36671,0.76667 -0.7,1.3 -0.33338,0.53334 -0.83338,1.33334 -1.5,2.4 -0.73337,-0.66666 -1.43337,-0.99999 -2.1,-1 -1.00004,1e-5 -2.1667,0.26667 -3.5,0.8 l 0,2.2 c 0.1333,0.0667 0.49996,0.1 1.1,0.1 0.0666,0 2.13329,-0.2 6.2,-0.6 4.06662,-0.46666 6.16662,-0.7 6.3,-0.7 0.66662,0 2.06662,0.7 4.2,2.1 -0.46672,0.93333 -0.83339,2.43333 -1.1,4.5 -0.26672,2.06666 -0.70005,4.03333 -1.3,5.9 -0.53338,1.93332 -1.53338,3.53332 -3,4.8 -0.80005,-1.00001 -2.40005,-2.80001 -4.8,-5.4 1.99995,0.33332 3.13329,0.49999 3.4,0.5 1.13329,-10e-6 1.83328,-0.60001 2.1,-1.8 0.26662,-1.13334 0.39995,-3.5 0.4,-7.1 -0.53338,-0.73333 -1.43338,-1.1 -2.7,-1.1 -4.40004,0 -8.10004,0.43333 -11.1,1.3 l 0,2.7 c 0.39996,0.4 0.76663,0.6 1.1,0.6 0.9333,0 1.99996,-0.3 3.2,-0.9 -0.33337,-0.26667 -0.50004,-0.8 -0.5,-1.6 0.79996,0.0667 1.76663,0.53333 2.9,1.4 1.13329,0.8 1.69996,1.6 1.7,2.4 -4e-5,1.06666 -0.40004,1.59999 -1.2,1.6 -0.33338,-10e-6 -0.90004,-0.43334 -1.7,-1.3 -0.73337,-0.8 -1.16671,-1.23334 -1.3,-1.3 -6.80003,1.99999 -10.2667,2.99999 -10.4,3 -0.40003,-10e-6 -0.83336,-0.20001 -1.3,-0.6 -0.40003,-0.40001 -0.66669,-0.83334 -0.8,-1.3 1.46664,-0.2 3.59997,-0.6 6.4,-1.2 l 0,-2.4 c -0.0667,-0.6 -0.50003,-0.9 -1.3,-0.9 -3.40003,0 -6.03336,0.26667 -7.9,0.8 -2e-5,1.86666 -2e-5,3.33333 0,4.4 0.0666,1.13333 0.1,1.83333 0.1,2.1 0.0666,0.26666 0.1,0.49999 0.1,0.7 0.0666,0.26666 0.1,0.56666 0.1,0.9 -2e-5,0.13332 -0.10002,0.53332 -0.3,1.2 -0.13336,0.66665 -0.20002,1.09999 -0.2,1.3 -2e-5,0.26665 0.0666,0.46665 0.2,0.6 l -1.1,0 c -0.40002,-10e-6 -0.63336,-0.23335 -0.7,-0.7 -0.40002,-5.53334 -0.96669,-9.63334 -1.7,-12.3 0.59998,0.0667 1.53331,0.23333 2.8,0.5 l 10,-1.5 0.1,-0.2 0,-2.2 c -0.20003,-0.2 -0.60003,-0.3 -1.2,-0.3 -1.6667,0 -2.73336,0.26667 -3.2,0.8 -0.6667,-0.6 -1.46669,-2.29999 -2.4,-5.1 -0.93336,-2.86665 -1.66669,-4.66665 -2.2,-5.4 m 14.2,7.3 c 0.86663,10e-6 1.59996,-0.63333 2.2,-1.9 0.66662,-1.26666 0.99996,-2.53332 1,-3.8 -4e-5,-0.46665 -0.13338,-1.06665 -0.4,-1.8 l -5.9,0 0,2.5 c 0.39996,0.20001 0.7333,0.30001 1,0.3 0.19996,10e-6 0.39996,-0.0333 0.6,-0.1 0.26663,-0.0666 0.46663,-0.1 0.6,-0.1 0.79996,10e-6 1.36663,0.40001 1.7,1.2 -0.80004,0.60001 -2.10004,1.10001 -3.9,1.5 l 0,2.2 3.1,0 m -5.3,-6.8 c -0.2667,10e-6 -0.90003,0.10001 -1.9,0.3 -1.00003,0.20001 -1.63336,0.30001 -1.9,0.3 -0.20003,10e-6 -0.63336,-0.16665 -1.3,-0.5 l 1.2,7.8 c 1.66664,-0.19999 2.99997,-0.46666 4,-0.8 l 0,-2.3 c -0.4667,-0.0666 -0.93337,-0.1 -1.4,-0.1 -0.40003,1e-5 -0.7667,0.0333 -1.1,0.1 -0.20003,-0.19999 -0.4667,-0.49999 -0.8,-0.9 0.0666,-0.0666 1.16664,-0.43332 3.3,-1.1 -0.0667,-1.73332 -0.10003,-2.66665 -0.1,-2.8"
       id="path4733"
       sodipodi:nodetypes="ccccscscccsccccscsccccccccccscccssscccscsccscscscccsccsccscccssscsccccsccccscsccccccccscccccscccssscccccssccccscccc"
       style="font-size:100px;font-style:normal;font-variant:normal;font-weight:normal;font-stretch:normal;fill:#ba0000;fill-opacity:1;stroke:none;font-family:Droid Serif;-inkscape-font-specification:Droid Serif" />
  </g>
</svg>
