<?xml version="1.0" encoding="UTF-8" standalone="no"?>
<!-- Created with Inkscape (http://www.inkscape.org/) -->

<svg
   xmlns:dc="http://purl.org/dc/elements/1.1/"
   xmlns:cc="http://creativecommons.org/ns#"
   xmlns:rdf="http://www.w3.org/1999/02/22-rdf-syntax-ns#"
   xmlns:svg="http://www.w3.org/2000/svg"
   xmlns="http://www.w3.org/2000/svg"
   xmlns:sodipodi="http://sodipodi.sourceforge.net/DTD/sodipodi-0.dtd"
   xmlns:inkscape="http://www.inkscape.org/namespaces/inkscape"
   width="74.699997"
   height="95.099998"
   id="svg2"
   version="1.1"
   inkscape:version="0.47 r22583"
   sodipodi:docname="绘图-1.svg">
  <defs
     id="defs4" />
  <sodipodi:namedview
     id="base"
     pagecolor="#ffffff"
     bordercolor="#666666"
     borderopacity="1.0"
     inkscape:pageopacity="0.0"
     inkscape:pageshadow="2"
     inkscape:zoom="2.1748383"
     inkscape:cx="42.200435"
     inkscape:cy="52.575327"
     inkscape:document-units="px"
     inkscape:current-layer="layer1"
     showgrid="false"
     inkscape:window-width="1440"
     inkscape:window-height="851"
     inkscape:window-x="0"
     inkscape:window-y="25"
     inkscape:window-maximized="1" />
  <metadata
     id="metadata7">
    <rdf:RDF>
      <cc:Work
         rdf:about="">
        <dc:format>image/svg+xml</dc:format>
        <dc:type
           rdf:resource="http://purl.org/dc/dcmitype/StillImage" />
        <dc:title></dc:title>
      </cc:Work>
    </rdf:RDF>
  </metadata>
  <g
     inkscape:label="Layer 1"
     inkscape:groupmode="layer"
     id="layer1"
     transform="translate(-489.33991,-446.32203)">
    <path
       style="fill:#ffffff;fill-opacity:1;fill-rule:nonzero;stroke:none"
       d="m 493.59779,539.01322 c -0.78974,-0.39824 -1.31565,-0.90814 -1.75814,-1.70463 l -0.63135,-1.13642 0,-42.30014 0,-42.30014 0.63135,-1.13642 c 0.44249,-0.79649 0.9684,-1.30639 1.75814,-1.70463 l 1.1268,-0.56821 31.96532,0 31.96532,0 1.1268,0.56821 c 0.78974,0.39824 1.31565,0.90814 1.75814,1.70463 l 0.63135,1.13642 0,42.17387 0,42.17387 -0.63135,1.26269 c -0.48327,0.96654 -0.89562,1.39596 -1.75814,1.8309 l -1.1268,0.56821 -31.96532,0 -31.96532,0 -1.1268,-0.56821 z"
       id="path3873" />
    <g
       id="g4269"
       style="font-size:100px;font-style:normal;font-variant:normal;font-weight:normal;font-stretch:normal;fill:#9c0000;fill-opacity:1;stroke:none;font-family:Droid Serif;-inkscape-font-specification:Droid Serif"
       transform="translate(442.7987,464.92598)">
      <path
         id="path4271"
         d="m 65.541212,5.8960457 c 0.266645,5.15e-5 1.399978,-0.2332816 3.4,-0.7 2.06664,-0.5332806 3.233306,-0.799947 3.5,-0.8 0.333305,5.3e-5 1.366637,0.4667192 3.1,1.4 l -4.4,5.4000003 c 2.333304,2.400043 7.066633,4.166708 14.2,5.3 0.333292,0.06671 0.699959,0.266707 1.1,0.6 -2.866706,1.066706 -5.166703,1.600038 -6.9,1.6 -0.866701,3.8e-5 -2.100033,-0.499961 -3.7,-1.5 -1.533363,-1.066626 -2.933362,-2.099958 -4.2,-3.1 -1.200026,-0.999956 -1.833359,-1.499956 -1.9,-1.5 -0.666691,0.733377 -2.200023,1.633376 -4.6,2.7 -2.400018,1.000041 -3.866683,1.50004 -4.4,1.5 -0.133349,4e-5 -0.500016,-0.06663 -1.1,-0.2 -0.533348,-0.199959 -1.000014,-0.299959 -1.4,-0.3 3.866649,-0.799958 7.233312,-2.399957 10.1,-4.8 -2.4e-5,-0.199954 -0.733356,-0.799954 -2.2,-1.8000003 -1.40002,-1.0666179 -2.366686,-1.5999507 -2.9,-1.6 -0.200018,4.93e-5 -0.566685,0.300049 -1.1,0.9 -0.53335,0.6000478 -1.433349,1.4333803 -2.7,2.5000003 -1.200014,1.066711 -2.600012,2.000044 -4.2,2.8 -1.466676,0.733375 -2.300008,1.100042 -2.5,1.1 l -0.7,0 c 5.866653,-3.733288 9.766649,-7.6999506 11.7,-11.9000003 l 0,-0.4 c -0.200019,-0.1999455 -0.333352,-0.2999454 -0.4,-0.3 l -1.3,0.2 0,-7.3 c -1.7e-5,-0.3999379 -0.300017,-1.4666035 -0.9,-3.2 0.133317,6.49e-5 0.46665,0.033398 1,0.1 0.533315,0.066731 0.833315,0.1000647 0.9,0.1 0.199981,6.47e-5 0.399981,-0.033269 0.6,-0.1 0.199981,-0.066602 0.366647,-0.1332684 0.5,-0.2 0.133314,-0.066602 0.266647,-0.1666015 0.4,-0.3 0.133313,-0.1999345 0.233313,-0.3332677 0.3,-0.4 0.133313,-0.1332675 0.233313,-0.3332673 0.3,-0.6 0.133313,-0.2666001 0.233313,-0.4332666 0.3,-0.5 0.06665,-0.1332664 0.133312,-0.3332662 0.2,-0.5999997 0.133312,-0.333266 0.233312,-0.533266 0.3,-0.6 l 0,-0.5 c -0.06669,-0.0666 -0.400021,-0.09993 -1,-0.1 -0.333353,6.8e-5 -1.366686,0.166735 -3.1,0.5 -1.733349,0.266734 -2.766681,0.400067 -3.1,0.4 -0.200014,6.7e-5 -0.66668,-0.166599 -1.4,-0.5 -0.666679,-0.399932 -1.066678,-0.799931 -1.2,-1.2 l 22.1,-2.6 c 1.866631,7.2e-5 2.999963,0.566738 3.4,1.7 l -13.8,1.5 c 0.199977,0.06674 0.43331,0.233402 0.7,0.5 -0.600023,0.733401 -1.533356,1.7000663 -2.8,2.8999997 0.06664,0.066732 0.166645,0.1000653 0.3,0.1 0.533311,6.53e-5 1.866643,-0.1999345 4,-0.6 2.133306,-0.3999337 3.299971,-0.5999335 3.5,-0.6 0.866637,6.65e-5 1.899969,0.500066 3.1,1.5 -0.533365,0.9333974 -0.966698,2.7667289 -1.3,5.5 -0.333364,2.73339008 -0.80003,4.4333884 -1.4,5.1 -1.133362,-0.7332782 -1.833361,-1.0999445 -2.1,-1.1 -0.200027,5.55e-5 -1.166693,0.1333887 -2.9,0.4 -1.666689,0.2667215 -2.866688,0.433388 -3.6,0.5 l -0.3,0.3 1.1,1 -1.2,1.7 c -2e-5,0.066718 0.199979,0.1000515 0.6,0.1 m 28.4,31.6000003 c -1.333381,2e-5 -2.000047,-0.666646 -2,-2 -4.7e-5,-0.666644 0.199952,-1.133311 0.6,-1.4 l 6.4,-3.6 -3.7,6.3 c -0.266717,0.40002 -0.70005,0.633353 -1.3,0.7 m -8.2,-5.5 c -4.1e-5,1.26669 -0.666707,1.900023 -2,1.9 -1.266705,2.3e-5 -1.900037,-0.63331 -1.9,-1.9 l 0,-0.2 1.9,-12.4 2,12.6 m 24.299998,13.6 -12.699998,1.9 c -1.200052,1e-5 -1.800051,-0.633323 -1.8,-1.9 -5.1e-5,-1.333321 0.599948,-1.999987 1.8,-2 l 0.3,0 12.399998,2 m -11.099998,15.1 -6.4,-3.7 c -0.400048,-0.266666 -0.600047,-0.733333 -0.6,-1.4 -4.7e-5,-1.333331 0.666619,-1.999997 2,-2 0.59995,0.06667 1.033283,0.300003 1.3,0.7 l 3.7,6.4 m -23.2,-25.2 c -3.1e-5,1.333354 -0.666697,2.00002 -2,2 -0.666695,-0.06665 -1.133361,-0.29998 -1.4,-0.7 l -3.6,-6.3 6.3,3.6 c 0.399969,0.266689 0.633302,0.733356 0.7,1.4 m 8,-0.7 c 3.066624,2.2e-5 5.633289,1.066688 7.7,3.2 2.066618,2.066684 3.09995,4.600014 3.1,7.6 -5e-5,2.933342 -1.033382,5.466673 -3.1,7.6 -2.066711,2.066668 -4.633376,3.100001 -7.7,3.1 -2.93337,1e-6 -5.4667,-1.033332 -7.6,-3.1 -2.066696,-2.066661 -3.100028,-4.599992 -3.1,-7.6 -2.8e-5,-3.066652 1.033304,-5.633316 3.1,-7.7 2.1333,-2.066645 4.66663,-3.099978 7.6,-3.1 m -11.7,10.8 c -2.7e-5,1.266677 -0.63336,1.90001 -1.9,1.9 l -12.6,-1.9 12.7,-2 c 1.199973,1.3e-5 1.799973,0.666679 1.8,2 m 13.7,13.8 -2,12.4 -1.9,-12.6 c -3.7e-5,-1.266668 0.633295,-1.9 1.9,-1.9 1.333293,0 1.999959,0.633332 2,1.9 l 0,0.2 m -12,-5.8 c 1.333303,3e-6 1.999969,0.666669 2,2 -0.0667,0.666667 -0.300031,1.133334 -0.7,1.4 l -6.3,3.7 3.6,-6.4 c 0.266639,-0.399997 0.733305,-0.63333 1.4,-0.7 m -8.9,-51.5000003 c 0.06665,5.53e-5 0.433313,-0.066611 1.1,-0.2 0.733311,-0.1999443 1.699977,-0.3666108 2.9,-0.5 1.266641,-0.1999438 2.533307,-0.2999437 3.8,-0.3 0.599971,-1.53327552 0.899971,-2.4666079 0.9,-2.8 l 0,-5.6 c -0.666695,-0.2666017 -1.200028,-0.3999349 -1.6,-0.4 l -8.1,1.2 c -1.9e-5,0.7333965 0.03331,1.4667291 0.1,2.2 2.999978,-0.7999375 4.966642,-1.1999371 5.9,-1.2 0.666641,6.29e-5 1.133307,0.2667293 1.4,0.8 l -0.2,0.3 c -2.400024,0.6000612 -4.766688,0.9000609 -7.1,0.9 l 0,2.5 6.2,-1.4 c 0.266641,0.066726 0.633307,0.1667263 1.1,0.3 l 0,0.6 c -0.533359,0.2667253 -1.100026,0.5000584 -1.7,0.69999998 -0.600024,0.1333914 -1.133357,0.2333913 -1.6,0.3 -0.400023,0.0667245 -1.066689,0.1333911 -2,0.2 -0.933354,0.0667243 -1.733353,0.1333909 -2.4,0.2 l 0,2.20000002 1.3,0 m 4.6,8.1000003 c 0.466641,4.7e-5 0.966641,-0.4666193 1.5,-1.4000003 0.599973,-0.9999504 0.899973,-1.6999497 0.9,-2.1 -2.7e-5,-0.1999491 -0.03336,-0.3999489 -0.1,-0.6 -0.06669,-0.1999485 -0.100027,-0.3332817 -0.1,-0.4 -2.066692,0.7333843 -3.700023,1.1000506 -4.9,1.1 -0.133355,5.06e-5 -0.433355,-0.033283 -0.9,-0.1 -0.466687,-0.066616 -0.766687,-0.099949 -0.9,-0.1 -0.533353,5.08e-5 -1.066686,0.2667172 -1.6,0.8 0.533314,0.2000498 1.266647,0.5667161 2.2,1.1 0.999978,0.4667151 1.866644,0.8667147 2.6,1.2 0.733309,0.3333803 1.166642,0.5000473 1.3,0.5000003 m 14.3,43.6 c 2.399958,3e-6 4.366623,-0.799996 5.9,-2.4 1.599953,-1.599993 2.399953,-3.533324 2.4,-5.8 -4.7e-5,-2.266653 -0.800047,-4.199984 -2.4,-5.8 -1.533377,-1.599981 -3.500042,-2.39998 -5.9,-2.4 -2.33337,2e-5 -4.300035,0.800019 -5.9,2.4 -1.533365,1.600016 -2.300031,3.533347 -2.3,5.8 -3.1e-5,2.333342 0.799968,4.300007 2.4,5.9 1.599965,1.533337 3.533296,2.300003 5.8,2.3"
         sodipodi:nodetypes="ccsccccsccccsccccsscsccccccccsssssscscccscscccccccssscscscccccccscccccsccccccscccccscccccccccccscscsccccccccccscccccccccccccccccsccccccccsscccccsscsssccscccscscscc"
         style="fill:#9c0000;fill-opacity:1" />
    </g>
    <g
       transform="translate(427.08837,459.29437)"
       style="font-size:100px;font-style:normal;font-variant:normal;font-weight:normal;font-stretch:normal;fill:#000000;fill-opacity:1;stroke:none;font-family:Droid Serif;-inkscape-font-specification:Droid Serif"
       id="text3689">
      <path
         d="m 136.95154,74.927657 c -8e-5,4.799983 -2.26674,7.19998 -6.8,7.2 l -61.1,0 c -4.533338,-2e-5 -6.800003,-2.400017 -6.8,-7.2 l 0,-80.7000004 c -3e-6,-4.7999266 2.266662,-7.1999236 6.8,-7.1999996 l 61.1,0 c 4.53326,7.6e-5 6.79992,2.400073 6.8,7.1999996 l 0,80.7000004 m -1.7,0 0,-80.7000004 c -8e-5,-3.6665942 -1.70007,-5.4999256 -5.1,-5.4999996 l -61.1,0 c -3.400006,7.4e-5 -5.100004,1.8334054 -5.1,5.4999996 l 0,80.7000004 c -4e-6,3.733317 1.699994,5.599982 5.1,5.6 l 61.1,0 c 3.39993,-1.8e-5 5.09992,-1.866683 5.1,-5.6"
         id="path3694"
         sodipodi:nodetypes="cccccccccccccccccc" />
    </g>
  </g>
</svg>
