<?xml version="1.0" encoding="UTF-8" standalone="no"?>
<!-- Created with Inkscape (http://www.inkscape.org/) -->

<svg
   xmlns:dc="http://purl.org/dc/elements/1.1/"
   xmlns:cc="http://creativecommons.org/ns#"
   xmlns:rdf="http://www.w3.org/1999/02/22-rdf-syntax-ns#"
   xmlns:svg="http://www.w3.org/2000/svg"
   xmlns="http://www.w3.org/2000/svg"
   xmlns:sodipodi="http://sodipodi.sourceforge.net/DTD/sodipodi-0.dtd"
   xmlns:inkscape="http://www.inkscape.org/namespaces/inkscape"
   width="74.699997"
   height="95.099998"
   id="svg2"
   version="1.1"
   inkscape:version="0.47 r22583"
   sodipodi:docname="绘图-1.svg">
  <defs
     id="defs4" />
  <sodipodi:namedview
     id="base"
     pagecolor="#ffffff"
     bordercolor="#666666"
     borderopacity="1.0"
     inkscape:pageopacity="0.0"
     inkscape:pageshadow="2"
     inkscape:zoom="3.0756858"
     inkscape:cx="66.55304"
     inkscape:cy="59.655816"
     inkscape:document-units="px"
     inkscape:current-layer="layer1"
     showgrid="false"
     inkscape:window-width="1440"
     inkscape:window-height="851"
     inkscape:window-x="0"
     inkscape:window-y="25"
     inkscape:window-maximized="1" />
  <metadata
     id="metadata7">
    <rdf:RDF>
      <cc:Work
         rdf:about="">
        <dc:format>image/svg+xml</dc:format>
        <dc:type
           rdf:resource="http://purl.org/dc/dcmitype/StillImage" />
        <dc:title></dc:title>
      </cc:Work>
    </rdf:RDF>
  </metadata>
  <g
     inkscape:label="Layer 1"
     inkscape:groupmode="layer"
     id="layer1"
     transform="translate(-391.83013,-475.82072)">
    <path
       style="fill:#ffffff;fill-opacity:1;fill-rule:nonzero;stroke:none"
       d="m 396.35654,568.8003 c -0.89366,-0.35869 -1.49508,-0.96103 -2.11551,-2.11876 l -0.54133,-1.01015 0,-42.30014 0,-42.30014 0.63134,-1.12351 c 0.34724,-0.61793 1.02909,-1.35661 1.51523,-1.6415 0.87882,-0.51502 1.06993,-0.51799 33.33503,-0.51799 32.26511,0 32.45622,0.003 33.33504,0.51799 0.48613,0.28489 1.16799,1.02357 1.51523,1.6415 l 0.63134,1.12351 0,42.30014 0,42.30014 -0.63134,1.11405 c -0.34724,0.61273 -0.95218,1.3514 -1.3443,1.6415 l -0.71296,0.52744 -32.49581,0.0486 c -21.08618,0.0315 -32.71566,-0.0396 -33.12196,-0.2027 l 0,0 z"
       id="path3906" />
    <path
       style="font-size:100px;font-style:normal;font-variant:normal;font-weight:normal;font-stretch:normal;fill:#10106c;fill-opacity:1;stroke:none;font-family:Droid Serif;-inkscape-font-specification:Droid Serif"
       d="m 424.77735,489.89563 c -3e-5,0.40006 -0.20003,0.70006 -0.6,0.9 -0.33336,0.13339 -1.20003,0.30006 -2.6,0.5 -1.86669,0.26673 -3.56669,0.53339 -5.1,0.8 0.46664,0.26672 1.23331,0.73339 2.3,1.4 -3e-5,3.20005 -3e-5,5.80005 0,7.8 0.0666,2.00005 0.1,3.30005 0.1,3.9 -3e-5,0.53338 -3e-5,1.00004 0,1.4 0.0666,0.33338 0.1,0.60004 0.1,0.8 -3e-5,0.60004 -0.10003,1.03337 -0.3,1.3 -1.86669,-0.53329 -3.46669,-1.96662 -4.8,-4.3 0.39998,0.13338 0.93331,0.20005 1.6,0.2 1.06664,5e-5 1.59998,-1.09995 1.6,-3.3 -2e-5,-4.86661 -0.60002,-7.93328 -1.8,-9.2 l -1.7,0 c -0.73335,1.60006 -2.00002,3.00006 -3.8,4.2 3.73331,-6.66661 5.59998,-11.43327 5.6,-14.3 -2e-5,-0.53326 -0.0334,-0.99993 -0.1,-1.4 l 1.1,0 c 0.33331,7e-5 1.09997,0.60007 2.3,1.8 l -4.5,8.6 c 0.13331,0.20006 0.33331,0.30006 0.6,0.3 l 7.6,-2.3 c 0.66664,0.13339 1.46664,0.43339 2.4,0.9 m -22.9,2.8 c 0.0667,0.0667 0.19999,0.10006 0.4,0.1 0.19999,6e-5 1.26666,-0.26661 3.2,-0.8 1.99998,-0.59994 3.09998,-0.89994 3.3,-0.9 0.53332,6e-5 1.06665,0.20006 1.6,0.6 -0.53335,0.60006 -1.60002,1.13339 -3.2,1.6 l -2.3,0.7 c 0.59999,1.53339 0.89999,2.83339 0.9,3.9 -1e-5,1.06672 -0.16668,2.70005 -0.5,4.9 -0.33335,2.20004 -0.66668,3.43338 -1,3.7 -0.66668,-0.33329 -1.03334,-1.16662 -1.1,-2.5 l 1,-7.5 c -10e-6,-0.86661 -0.16668,-1.49994 -0.5,-1.9 -0.33334,-0.46661 -0.66668,-0.73328 -1,-0.8 -0.26668,-0.0666 -0.63334,-0.0999 -1.1,-0.1 -1.86667,2.60005 -3.63334,4.13339 -5.3,4.6 5.06666,-6.99994 7.69999,-12.33327 7.9,-16 l 1.1,0 c 0.46665,7e-5 1.06665,0.70007 1.8,2.1 l -5.2,8.3"
       id="path3998"
       sodipodi:nodetypes="ccscccscsccsscccsccccccccscscccssccccscccccc" />
    <path
       d="m 466.53013,563.72073 c -8e-5,4.79998 -2.26674,7.19998 -6.8,7.19999 l -61.1,0 c -4.53334,-10e-6 -6.8,-2.40001 -6.8,-7.19999 l 0,-80.70001 c 0,-4.79992 2.26666,-7.19992 6.8,-7.2 l 61.1,0 c 4.53326,8e-5 6.79992,2.40008 6.8,7.2 l 0,80.70001 m -14.5,-70.40001 -0.1,-15.8 -4.1,0 -0.5,7.9 c -6e-5,0.3334 0.19994,0.86674 0.6,1.6 0.39994,0.7334 1.06661,1.8334 2,3.3 0.99994,1.40006 1.69994,2.40006 2.1,3 m 12.8,19.8 0,-30.1 c -8e-5,-3.66659 -1.70007,-5.49992 -5.1,-5.5 l -7.1,0 c -6e-5,4.26674 -6e-5,7.76674 0,10.5 -6e-5,2.66673 -6e-5,4.5334 0,5.6 0.0666,1.06673 0.0999,1.73339 0.1,2 0.93327,1.33339 2.83327,4.06672 5.7,8.2 2.93326,4.13338 5.06659,7.23338 6.4,9.3 m -22.9,-31.8 c -2.13338,-2.53326 -3.30005,-3.79992 -3.5,-3.8 l -6.5,0 3.5,7.3 c 0.13329,-0.26659 0.26662,-0.49993 0.4,-0.7 0.19995,-0.19993 0.43329,-0.39993 0.7,-0.6 0.33329,-0.19993 0.63328,-0.36659 0.9,-0.5 0.26662,-0.19993 0.59995,-0.36659 1,-0.5 0.46662,-0.19993 0.83328,-0.33326 1.1,-0.4 0.26662,-0.0666 0.66661,-0.19993 1.2,-0.4 0.53328,-0.19993 0.93328,-0.33326 1.2,-0.4 m 1.4,3.4 c -0.80005,7e-5 -1.66672,0.36674 -2.6,1.1 -0.93338,0.7334 -1.56672,1.50007 -1.9,2.3 0.26662,0.66673 0.53328,1.20007 0.8,1.6 0.33328,0.40007 0.76661,0.9334 1.3,1.6 0.59995,0.60006 1.16661,1.26673 1.7,2 1.59994,2.20006 4.26661,6.10006 8,11.7 3.79994,5.60005 7.0666,10.53337 9.8,14.8 2.79993,4.20003 4.26659,6.43336 4.4,6.7 l 0,-11.2 -0.8,-0.7 c -0.60007,-0.39996 -1.23341,-0.83329 -1.9,-1.3 -0.60007,-0.53329 -0.96674,-0.86662 -1.1,-1 -1.40007,-2.66662 -3.06674,-5.53328 -5,-8.6 -1.86673,-3.13328 -3.3334,-5.46661 -4.4,-7 -1.00006,-1.53327 -2.63339,-3.89994 -4.9,-7.1 -2.20006,-3.19993 -3.33339,-4.83326 -3.4,-4.9 m 4,40.3 c 1.73327,-0.99997 4.0666,-1.69997 7,-2.1 -7e-5,-0.26663 -0.0667,-1.09997 -0.2,-2.5 -0.1334,-1.39996 -0.20006,-2.93329 -0.2,-4.6 -6e-5,-0.26663 -6e-5,-0.49996 0,-0.7 -6e-5,-0.26662 -6e-5,-0.46663 0,-0.6 0.0666,-0.13329 0.0999,-0.26662 0.1,-0.4 -7e-5,-0.13329 -7e-5,-0.23329 0,-0.3 l 0,-0.1 c -0.9334,-1.66663 -2.80006,-4.59996 -5.6,-8.80001 -0.13339,-0.26662 -0.36673,-0.39995 -0.7,-0.4 l -0.4,20.5 m -0.3,6.70001 c -6e-5,-1.59998 0.49994,-2.86665 1.5,-3.80001 1.06661,-0.9333 2.3666,-1.39997 3.9,-1.4 1.93327,3e-5 3.03327,0.4667 3.3,1.4 0.39993,1.40003 1.33327,14.70001 2.8,39.90001 0.0666,0.53331 0.4666,1.03331 1.2,1.5 3.39993,-2e-5 5.09992,-1.86669 5.1,-5.6 l 0,-34 c -0.66674,0.20002 -1.40007,0.43335 -2.2,0.69999 -0.66674,-2.7333 -3.40007,-8.1333 -8.2,-16.19999 l 0,3.19999 c -7e-5,0.40004 0.0999,1.3667 0.3,2.90001 0.2666,1.53336 0.39993,2.50002 0.4,2.9 -7e-5,0.66669 -0.26673,1.00002 -0.8,1 -0.1334,2e-5 -0.4334,-0.0333 -0.9,-0.10001 -0.46673,-0.1333 -0.76673,-0.19997 -0.9,-0.2 -1.3334,3e-5 -2.80006,0.60003 -4.4,1.80001 l 4.6,-1 c 0.79993,2e-5 1.69993,0.43335 2.7,1.29999 -0.46673,3e-5 -1.06673,-0.0666 -1.8,-0.19999 l -1.2,-0.20001 c -0.80006,3e-5 -1.56673,0.20003 -2.3,0.60001 -0.73339,0.33335 -1.26673,0.66669 -1.6,1 -0.26673,0.26669 -0.90006,0.90002 -1.9,1.89999 -6e-5,-1.19997 0.39994,-2.19997 1.2,-3 -0.40006,3e-5 -0.70006,0.13336 -0.9,0.4 -6e-5,-2.26663 -0.0667,-6.06663 -0.2,-11.4 -0.0667,-5.39995 -0.10006,-9.03328 -0.1,-10.9 0.26661,-0.26661 0.56661,-0.66661 0.9,-1.2 l -11.1,-14.6 c 1.66662,-3.66659 3.73328,-5.49993 6.2,-5.5 0.33328,7e-5 0.59995,0.0334 0.8,0.1 0.26661,0.0667 0.46661,0.13341 0.6,0.2 0.19994,0.0667 0.39994,0.20007 0.6,0.4 0.26661,0.20007 0.43328,0.36674 0.5,0.5 0.13328,0.13341 0.33328,0.40007 0.6,0.8 0.26661,0.40007 0.49994,0.70007 0.7,0.9 0.0666,-1.26659 0.0999,-2.69993 0.1,-4.3 -6e-5,-1.46659 -0.0334,-2.79992 -0.1,-4 l -6.5,0 3.6,4.3 c -0.33339,0.13341 -0.90005,0.36674 -1.7,0.7 -0.80005,0.26674 -1.36672,0.46674 -1.7,0.6 -0.26672,0.0667 -0.70005,0.23341 -1.3,0.5 -0.53338,0.26674 -0.90005,0.50007 -1.1,0.7 -0.20005,0.13341 -0.46672,0.36674 -0.8,0.7 -0.26671,0.26674 -0.46671,0.56674 -0.6,0.9 -0.0667,0.26674 -0.10005,0.60007 -0.1,1 -5e-5,0.20007 0.0333,0.4334 0.1,0.7 -0.13338,7e-5 -0.46671,0.0334 -1,0.1 -2.20004,-5.06659 -3.93338,-8.46659 -5.2,-10.2 l -31.5,0 c -3.40001,8e-5 -5.10001,1.83341 -5.1,5.5 l 0,42.6 c 5.53332,-2.66663 10.03332,-3.99996 13.5,-4 0.26665,4e-5 0.43331,0.0334 0.5,0.10001 -0.73335,0.53336 -1.43335,0.96669 -2.1,1.29999 -0.60002,0.33337 -1.36668,0.6667 -2.3,1 -0.86668,0.2667 -1.63335,0.4667 -2.3,0.6 -0.60001,0.13337 -1.70001,0.40003 -3.3,0.8 -1.60001,0.33336 -2.93334,0.63336 -4,0.90001 l 0,5 c 2.66666,-2.26665 5.66666,-4.36665 9,-6.30001 3.39998,-1.9333 5.86665,-2.89997 7.4,-2.9 0.26664,3e-5 0.66664,0.0667 1.2,0.20001 0.59998,0.13336 0.96664,0.20002 1.1,0.19999 0.0666,3e-5 1.66664,-0.59997 4.8,-1.79999 3.1333,-1.26664 5.19997,-1.89997 6.2,-1.9 0.86663,0.40003 1.4333,0.63336 1.7,0.69999 l 0,1.80001 c -1.20004,0.73336 -2.33337,1.26669 -3.4,1.59999 1.3333,0.8667 2.2333,1.30003 2.7,1.30001 0.19996,2e-5 0.66663,-0.0333 1.4,-0.10001 0.7333,-0.1333 1.19996,-0.19997 1.4,-0.2 0.86663,3e-5 2.26663,0.53336 4.2,1.6 l 1.7,0 -6.4,-5.1 c 1.93329,0.6667 4.36662,2.40003 7.3,5.2 2.93329,2.80003 4.53328,5.20003 4.8,7.20001 3.13328,0.13335 6.03328,0.73335 8.7,1.79999 -6e-5,-0.59998 -0.0667,-1.13331 -0.2,-1.6 -0.0667,-0.53331 -0.10006,-0.96664 -0.1,-1.29999 m 11.2,37.6 c -0.5334,-0.66669 -0.80007,-1.33336 -0.8,-2 -0.66673,-16.13334 -1.6334,-28.63333 -2.9,-37.5 -0.1334,-0.93332 -1.10006,-1.39998 -2.9,-1.40001 -2.33339,3e-5 -3.50006,1.06669 -3.5,3.2 -6e-5,0.20002 0.26661,1.83336 0.8,4.9 0.53327,3.06668 1.06661,7.53335 1.6,13.4 0.53327,5.86667 0.79994,12.33333 0.8,19.40001 l 6.9,0 m -59.6,0 51.6,0 c -6e-5,-11.66668 -0.83339,-22.56667 -2.5,-32.70001 -6.00005,-2.26664 -11.50005,-3.39998 -16.5,-3.39999 -1.46671,10e-6 -2.96671,0.0667 -4.5,0.19999 1.13329,0.46669 2.19996,0.86669 3.2,1.2 1.06662,0.33335 1.83329,0.60002 2.3,0.8 0.46662,0.13335 0.89996,0.33335 1.3,0.6 0.59995,0.46669 1.99995,2.13335 4.2,5 2.19995,2.80001 3.29995,4.56668 3.3,5.30001 -5e-5,0.53333 -0.0334,0.83333 -0.1,0.9 -1.20005,-1.73333 -2.66672,-3.2 -4.4,-4.4 -1.73338,-1.26666 -3.70004,-2.46666 -5.9,-3.6 -2.20004,-1.13333 -3.70004,-1.96666 -4.5,-2.5 -0.13337,-0.73332 -0.43337,-1.79999 -0.9,-3.20001 l -1.6,0 c -2.6667,2e-5 -7.40003,1.70002 -14.2,5.1 l 0,3.4 c 0.13331,-0.79999 0.56665,-1.19998 1.3,-1.2 0.59998,2e-5 0.96664,0.0333 1.1,0.1 -2e-5,5.13334 -0.10002,8.53334 -0.3,10.2 -0.13336,1.66667 -0.63336,4.46667 -1.5,8.4 -0.13335,0.73333 -0.63335,1.1 -1.5,1.1 -0.20002,0 -0.90002,-4.1 -2.1,-12.29999 -2e-5,-1.93333 0.93331,-3.83333 2.8,-5.70001 -2e-5,-0.26665 -0.10002,-0.39999 -0.3,-0.39999 l -12.9,13.1 c 0.46666,-3.66667 3.43332,-8.3 8.9,-13.90001 l -8.4,5.30001 c -0.20001,-0.2 -0.30001,-0.4 -0.3,-0.60001 2.39999,-1.59999 6.59999,-4.06665 12.6,-7.39999 l 3.3,-2 c 2.46664,-1.13332 5.69997,-2.16666 9.7,-3.10001 4.06663,-0.93331 7.33329,-1.39998 9.8,-1.39999 2.19995,10e-6 4.26662,0.13335 6.2,0.39999 -1.26671,-3.26664 -2.86671,-5.29997 -4.8,-6.1 -0.33338,0.2667 -0.56671,0.40003 -0.7,0.4 -0.13338,3e-5 -0.36671,-0.0666 -0.7,-0.19999 -0.26671,-0.13331 -0.43338,-0.19998 -0.5,-0.20001 -0.26671,3e-5 -0.66671,0.20003 -1.2,0.6 -0.53337,0.33336 -0.83337,0.50003 -0.9,0.5 l -11.5,3.8 c -0.73336,0.26669 -1.90003,0.70002 -3.5,1.30001 -1.60002,0.60001 -2.86669,1.10001 -3.8,1.5 -0.93335,0.33334 -2.06669,0.86668 -3.4,1.59999 -1.33335,0.66669 -2.56668,1.36669 -3.7,2.1 1.99998,-4.26664 8.53331,-8.73331 19.6,-13.4 -1.33337,-0.99997 -2.2667,-1.49997 -2.8,-1.5 -0.80003,3e-5 -4.80003,1.93336 -12,5.8 l -3.8,2.5 7.5,-8.3 -1,0 -5.5,4.8 -11.6,6.1 0,6 c 1.99999,-0.66665 3.09999,-0.99998 3.3,-1 2.53332,2e-5 4.66665,0.20002 6.4,0.6 l 0,0.70001 c -10e-6,1.06667 -2.96668,2.13334 -8.9,3.19999 -0.33334,0.0667 -0.60001,0.13335 -0.8,0.2 l 0,4.8 c 0.79999,0.0667 1.19999,0.43334 1.2,1.1 -10e-6,0.40001 -0.40001,0.83334 -1.2,1.3 l 0,13.00001 c -10e-6,1.66665 0.46666,2.99998 1.4,4 0.99999,0.99998 2.23332,1.49998 3.7,1.5 m 35.3,-80.50001 -5.6,-4.3 c 1.13329,0.33341 2.63329,1.2334 4.5,2.7 -4e-5,-0.13326 -0.23338,-0.63326 -0.7,-1.5 0.93329,0.60007 1.53329,1.6334 1.8,3.1 m -11.1,50.00001 -8.9,19.09999 c 0.19997,-1.53333 0.36664,-3.53333 0.5,-6 0.19997,-2.46666 0.36664,-4.53332 0.5,-6.19999 0.13331,-1.66666 0.39997,-3.36666 0.8,-5.10001 0.46664,-1.73332 1.16664,-3.09998 2.1,-4.1 0.9333,-0.99998 2.1333,-1.63331 3.6,-1.9 -0.0667,0.33335 -0.30003,0.76669 -0.7,1.3 0.3333,0.60002 1.0333,0.90002 2.1,0.9 l 0,2"
       id="path4005"
       style="font-size:100px;font-style:normal;font-variant:normal;font-weight:normal;font-stretch:normal;fill:#006c00;fill-opacity:1;stroke:none;font-family:Droid Serif;-inkscape-font-specification:Droid Serif"
       sodipodi:nodetypes="cccccccccccccsccccccsccccccccccccssccscccscccccccccccccssssscccccccssccccccccsscsccccccscccccccssscsscscccccccscsccccccscccsccccssscccccscscccsccccccssssscccccscccccsccscccccscccsccccccccccsccssscccsccccscccccccscccccsccccccccccccscscccc" />
    <g
       transform="translate(329.57859,488.79306)"
       style="font-size:100px;font-style:normal;font-variant:normal;font-weight:normal;font-stretch:normal;fill:#000000;fill-opacity:1;stroke:none;font-family:Droid Serif;-inkscape-font-specification:Droid Serif"
       id="text3689">
      <path
         d="m 136.95154,74.927657 c -8e-5,4.799983 -2.26674,7.19998 -6.8,7.2 l -61.1,0 c -4.533338,-2e-5 -6.800003,-2.400017 -6.8,-7.2 l 0,-80.7000004 c -3e-6,-4.7999266 2.266662,-7.1999236 6.8,-7.1999996 l 61.1,0 c 4.53326,7.6e-5 6.79992,2.400073 6.8,7.1999996 l 0,80.7000004 m -1.7,0 0,-80.7000004 c -8e-5,-3.6665942 -1.70007,-5.4999256 -5.1,-5.4999996 l -61.1,0 c -3.400006,7.4e-5 -5.100004,1.8334054 -5.1,5.4999996 l 0,80.7000004 c -4e-6,3.733317 1.699994,5.599982 5.1,5.6 l 61.1,0 c 3.39993,-1.8e-5 5.09992,-1.866683 5.1,-5.6"
         id="path3694"
         sodipodi:nodetypes="cccccccccccccccccc" />
    </g>
  </g>
</svg>
